<svg width="15" height="13" viewBox="0 0 15 13" fill="none" xmlns="http://www.w3.org/2000/svg">
<path d="M14.1875 6.93701L9.1875 11.937C9 12.1245 8.75 12.2183 8.5 12.2183C8.21875 12.2183 7.96875 12.1245 7.78125 11.937C7.375 11.562 7.375 10.9058 7.78125 10.5308L11.0625 7.21826H1.5C0.9375 7.21826 0.5 6.78076 0.5 6.21826C0.5 5.68701 0.9375 5.21826 1.5 5.21826H11.0625L7.78125 1.93701C7.375 1.56201 7.375 0.905762 7.78125 0.530762C8.15625 0.124512 8.8125 0.124512 9.1875 0.530762L14.1875 5.53076C14.5938 5.90576 14.5938 6.56201 14.1875 6.93701Z" fill="white"/>
</svg>
