<svg width="90" height="160" viewBox="0 0 90 160" fill="none" xmlns="http://www.w3.org/2000/svg">
<path d="M21.6793 157.665C22.9108 159.499 25.3959 159.987 27.23 158.756L57.1178 138.688C58.9518 137.456 59.4403 134.971 58.2089 133.137C56.9774 131.303 54.4923 130.815 52.6582 132.046L26.0913 149.884L8.25317 123.317C7.0217 121.483 4.5366 120.995 2.70254 122.226C0.868476 123.458 0.379976 125.943 1.61144 127.777L21.6793 157.665ZM50.5 103L47.9642 99.9065L47.9642 99.9065L50.5 103ZM62.2605 7.31418C70.9312 13.1728 76.3655 20.0335 79.2666 27.3417C82.1725 34.662 82.6378 42.687 80.9543 51.0169C77.5667 67.7785 65.4993 85.5333 47.9642 99.9065L53.0357 106.094C71.5007 90.9582 84.9333 71.713 88.7957 52.6016C90.7373 42.995 90.265 33.3653 86.7021 24.39C83.1345 15.4026 76.5687 7.32692 66.7393 0.685472L62.2605 7.31418ZM47.9642 99.9065C37.3691 108.591 31.7435 115.85 28.2328 124.472C24.8539 132.772 23.5078 142.289 21.0753 154.663L28.9251 156.206C31.4925 143.146 32.6462 134.848 35.6422 127.489C38.5065 120.454 43.1309 114.212 53.0357 106.094L47.9642 99.9065Z" fill="#F89C24"/>
</svg>
