<svg width="15" height="13" viewBox="0 0 15 13" fill="none" xmlns="http://www.w3.org/2000/svg">
<path d="M14.1875 7.62451L9.1875 12.6245C9 12.812 8.75 12.9058 8.5 12.9058C8.21875 12.9058 7.96875 12.812 7.78125 12.6245C7.375 12.2495 7.375 11.5933 7.78125 11.2183L11.0625 7.90576H1.5C0.9375 7.90576 0.5 7.46826 0.5 6.90576C0.5 6.37451 0.9375 5.90576 1.5 5.90576H11.0625L7.78125 2.62451C7.375 2.24951 7.375 1.59326 7.78125 1.21826C8.15625 0.812012 8.8125 0.812012 9.1875 1.21826L14.1875 6.21826C14.5938 6.59326 14.5938 7.24951 14.1875 7.62451Z" fill="#262424"/>
</svg>
