<svg width="421" height="66" viewBox="0 0 421 66" fill="none" xmlns="http://www.w3.org/2000/svg">
<path d="M9.51034 16.0824L7.59265 12.5721L0.571975 16.4075L2.48966 19.9178L9.51034 16.0824ZM238 42.5L240.067 45.9244L238 42.5ZM418.354 39.5443C420.312 38.5202 421.068 36.1032 420.044 34.1457L403.356 2.24757C402.332 0.290138 399.915 -0.466483 397.957 0.557607C396 1.5817 395.243 3.9987 396.267 5.95613L411.101 34.3101L382.748 49.1443C380.79 50.1684 380.034 52.5854 381.058 54.5428C382.082 56.5002 384.499 57.2569 386.456 56.2328L418.354 39.5443ZM2.48966 19.9178C5.36743 25.1856 10.3709 29.9908 16.66 34.3102C22.9906 38.6581 30.8704 42.6817 39.8255 46.294C57.7379 53.5196 80.3026 59.2396 104.225 62.562C128.156 65.8856 153.587 66.8296 177.246 64.42C200.86 62.015 222.975 56.242 240.067 45.9244L235.933 39.0756C220.225 48.558 199.398 54.1225 176.435 56.4612C153.517 58.7954 128.736 57.8894 105.325 54.6381C81.9058 51.3855 59.9996 45.8056 42.8182 38.8749C34.2265 35.4091 26.9037 31.6406 21.1892 27.7158C15.4333 23.7626 11.5492 19.8146 9.51034 16.0824L2.48966 19.9178ZM240.067 45.9244C280.517 21.5065 309.933 15.6976 336.098 17.9232C362.703 20.1861 385.979 30.6371 415.305 39.8174L417.695 32.1827C389.521 23.363 364.547 12.314 336.777 9.95194C308.567 7.55249 277.483 13.9935 235.933 39.0756L240.067 45.9244Z" fill="#F89C24"/>
</svg>
