<svg xmlns="http://www.w3.org/2000/svg" version="1.1" xmlns:xlink="http://www.w3.org/1999/xlink" xmlns:svgjs="http://svgjs.dev/svgjs" width="1000" height="1000"><style>
    #light-icon {
      display: inline;
    }
    #dark-icon {
      display: none;
    }

    @media (prefers-color-scheme: dark) {
      #light-icon {
        display: none;
      }
      #dark-icon {
        display: inline;
      }
    }
  </style><g id="light-icon"><svg xmlns="http://www.w3.org/2000/svg" version="1.1" xmlns:xlink="http://www.w3.org/1999/xlink" xmlns:svgjs="http://svgjs.dev/svgjs" width="1000" height="1000"><g><g transform="matrix(6.666666666666667,0,0,6.666666666666667,0,216.66666666666663)"><svg xmlns="http://www.w3.org/2000/svg" version="1.1" xmlns:xlink="http://www.w3.org/1999/xlink" xmlns:svgjs="http://svgjs.dev/svgjs" width="150" height="85"><svg width="150" height="85" viewBox="0 0 150 85" fill="none" xmlns="http://www.w3.org/2000/svg">
<g clip-path="url(#clip0_2027_9421)">
<path d="M67.332 31.5109V34.2262H56.6329V31.5109H67.332ZM57.4911 23.2147V43.082H54.017V23.2147H57.4911ZM70.0033 23.2147V43.082H66.543V23.2147H70.0033ZM82.8202 39.6024V28.3179H86.1696V43.082H83.014L82.8202 39.6024ZM83.2907 36.5323L84.4119 36.505C84.4119 37.4965 84.3011 38.4108 84.0797 39.2476C83.8582 40.0755 83.5168 40.7987 83.0554 41.4172C82.5941 42.0268 82.0035 42.5043 81.2838 42.85C80.564 43.1865 79.7013 43.3549 78.6955 43.3549C77.9665 43.3549 77.2976 43.2502 76.6886 43.041C76.0796 42.8318 75.5537 42.5088 75.1107 42.0722C74.677 41.6356 74.3402 41.067 74.1003 40.3666C73.8604 39.6661 73.7404 38.8293 73.7404 37.8558V28.3179H77.0761V37.8832C77.0761 38.4199 77.1407 38.8701 77.2699 39.234C77.399 39.5888 77.5744 39.8754 77.7959 40.0937C78.0173 40.312 78.2756 40.4666 78.5709 40.5576C78.8662 40.6486 79.18 40.694 79.5121 40.694C80.4626 40.694 81.21 40.5122 81.7544 40.1483C82.308 39.7753 82.7001 39.275 82.9308 38.6473C83.1708 38.0196 83.2907 37.3146 83.2907 36.5323ZM99.1803 28.3179H102.211V42.6726C102.211 44.0008 101.925 45.1287 101.353 46.0566C100.781 46.9845 99.983 47.6894 98.9589 48.1716C97.9346 48.6628 96.7489 48.9084 95.4016 48.9084C94.8296 48.9084 94.1929 48.8266 93.4915 48.6628C92.7995 48.499 92.1259 48.2353 91.4708 47.8714C90.8248 47.5166 90.2851 47.0481 89.8514 46.4659L91.4154 44.5283C91.9507 45.156 92.5412 45.6154 93.187 45.9065C93.833 46.1976 94.5112 46.3432 95.2217 46.3432C95.9876 46.3432 96.6381 46.2022 97.1733 45.9201C97.7178 45.6472 98.1375 45.2425 98.4328 44.7057C98.7281 44.169 98.8757 43.5141 98.8757 42.7408V31.661L99.1803 28.3179ZM89.0071 35.8637V35.5772C89.0071 34.4583 89.1455 33.4395 89.4223 32.5206C89.6991 31.5927 90.0959 30.7968 90.6127 30.1327C91.1293 29.4596 91.7568 28.9456 92.495 28.5908C93.2332 28.227 94.0683 28.045 95.0003 28.045C95.9691 28.045 96.795 28.2179 97.4777 28.5635C98.1699 28.9092 98.7466 29.405 99.2079 30.0509C99.6693 30.6877 100.029 31.4517 100.288 32.3432C100.555 33.2257 100.754 34.2081 100.883 35.2906V36.2049C100.763 37.26 100.56 38.2243 100.274 39.0975C99.9876 39.9708 99.6093 40.7259 99.1387 41.3626C98.6682 41.9994 98.0868 42.4907 97.3947 42.8364C96.7119 43.182 95.9045 43.3549 94.9726 43.3549C94.0591 43.3549 93.2332 43.1683 92.495 42.7954C91.7661 42.4224 91.1387 41.8994 90.6127 41.2262C90.0959 40.553 89.6991 39.7616 89.4223 38.852C89.1455 37.9332 89.0071 36.9372 89.0071 35.8637ZM92.3428 35.5772V35.8637C92.3428 36.5368 92.4074 37.1646 92.5366 37.7467C92.6749 38.3289 92.8826 38.8429 93.1594 39.2886C93.4455 39.7253 93.8054 40.071 94.2391 40.3256C94.682 40.5713 95.2033 40.694 95.8031 40.694C96.5873 40.694 97.2287 40.5303 97.727 40.2028C98.2345 39.8754 98.622 39.4342 98.8896 38.8792C99.1664 38.3152 99.3602 37.6876 99.471 36.9962V34.5264C99.4156 33.9897 99.3002 33.4894 99.1249 33.0255C98.9588 32.5615 98.7328 32.1568 98.4467 31.8111C98.1607 31.4563 97.8008 31.1833 97.3671 30.9924C96.9334 30.7922 96.4213 30.6922 95.8307 30.6922C95.2309 30.6922 94.7096 30.8196 94.2667 31.0742C93.8238 31.3289 93.4593 31.6791 93.1732 32.1249C92.8964 32.5707 92.6889 33.0892 92.5504 33.6805C92.412 34.2718 92.3428 34.904 92.3428 35.5772ZM108.966 22.123V43.082H105.644V22.123H108.966ZM108.385 35.1541L107.305 35.1405C107.314 34.1217 107.457 33.1802 107.734 32.3159C108.02 31.4517 108.417 30.7013 108.924 30.0645C109.441 29.4186 110.059 28.9228 110.779 28.5772C111.499 28.2224 112.297 28.045 113.174 28.045C113.912 28.045 114.576 28.1451 115.167 28.3453C115.766 28.5453 116.283 28.8683 116.717 29.314C117.151 29.7507 117.478 30.3238 117.7 31.0333C117.93 31.7338 118.046 32.5889 118.046 33.5986V43.082H114.696V33.5713C114.696 32.8618 114.59 32.2978 114.378 31.8793C114.175 31.4608 113.875 31.1606 113.478 30.9788C113.081 30.7877 112.597 30.6922 112.025 30.6922C111.425 30.6922 110.894 30.8104 110.433 31.047C109.981 31.2835 109.603 31.6064 109.298 32.0158C108.993 32.4252 108.763 32.8981 108.606 33.4348C108.458 33.9716 108.385 34.5447 108.385 35.1541ZM128.026 43.3549C126.918 43.3549 125.916 43.1774 125.022 42.8226C124.136 42.4588 123.379 41.9539 122.752 41.3081C122.133 40.6622 121.658 39.9026 121.326 39.0293C120.993 38.156 120.828 37.2145 120.828 36.2049V35.659C120.828 34.5037 120.998 33.4576 121.339 32.5206C121.681 31.5837 122.157 30.7832 122.765 30.1191C123.374 29.446 124.094 28.932 124.925 28.5772C125.755 28.2224 126.654 28.045 127.624 28.045C128.694 28.045 129.631 28.2224 130.434 28.5772C131.236 28.932 131.901 29.4322 132.426 30.0781C132.961 30.7149 133.358 31.4744 133.617 32.3569C133.884 33.2393 134.018 34.2126 134.018 35.277V36.6824H122.447V34.3218H130.724V34.0625C130.705 33.4712 130.585 32.9163 130.364 32.3978C130.152 31.8793 129.824 31.4608 129.381 31.1425C128.939 30.8241 128.348 30.6648 127.61 30.6648C127.056 30.6648 126.562 30.7832 126.129 31.0196C125.705 31.247 125.349 31.5791 125.063 32.0158C124.778 32.4524 124.555 32.98 124.398 33.5986C124.251 34.2081 124.178 34.8949 124.178 35.659V36.2049C124.178 36.8506 124.265 37.4511 124.44 38.0059C124.625 38.5518 124.892 39.0293 125.243 39.4387C125.594 39.8481 126.018 40.171 126.516 40.4075C127.015 40.6349 127.583 40.7486 128.219 40.7486C129.021 40.7486 129.737 40.5895 130.364 40.271C130.991 39.9527 131.536 39.5024 131.998 38.9202L133.755 40.5986C133.433 41.0624 133.012 41.5082 132.496 41.9357C131.979 42.3542 131.347 42.6954 130.599 42.9591C129.861 43.223 129.003 43.3549 128.026 43.3549ZM145.022 39.0839C145.022 38.7565 144.939 38.4607 144.772 38.197C144.607 37.9241 144.288 37.6785 143.818 37.4602C143.356 37.2419 142.674 37.0417 141.769 36.8597C140.975 36.6869 140.246 36.4822 139.583 36.2457C138.927 36.0002 138.364 35.7045 137.894 35.3588C137.424 35.0131 137.059 34.6038 136.8 34.1308C136.541 33.6577 136.413 33.1119 136.413 32.4933C136.413 31.8929 136.546 31.3244 136.814 30.7877C137.081 30.251 137.465 29.7779 137.963 29.3687C138.461 28.9593 139.065 28.6364 139.776 28.3998C140.496 28.1633 141.299 28.045 142.185 28.045C143.439 28.045 144.514 28.2542 145.409 28.6727C146.314 29.0821 147.006 29.6415 147.485 30.351C147.965 31.0515 148.205 31.843 148.205 32.7253H144.869C144.869 32.3341 144.768 31.9702 144.565 31.6337C144.371 31.288 144.076 31.0106 143.679 30.8013C143.282 30.583 142.785 30.4739 142.185 30.4739C141.612 30.4739 141.137 30.5648 140.759 30.7467C140.389 30.9196 140.113 31.147 139.929 31.429C139.753 31.711 139.665 32.0203 139.665 32.3569C139.665 32.6025 139.711 32.8254 139.803 33.0255C139.905 33.2165 140.072 33.3939 140.302 33.5576C140.532 33.7123 140.846 33.8578 141.243 33.9943C141.65 34.1308 142.156 34.2627 142.766 34.3901C143.91 34.6265 144.893 34.9313 145.714 35.3042C146.544 35.6681 147.181 36.1412 147.624 36.7234C148.066 37.2964 148.289 38.0241 148.289 38.9066C148.289 39.5616 148.146 40.1619 147.86 40.7077C147.582 41.2444 147.176 41.7129 146.641 42.1132C146.106 42.5043 145.465 42.809 144.717 43.0273C143.979 43.2457 143.148 43.3549 142.226 43.3549C140.87 43.3549 139.721 43.1183 138.779 42.6453C137.838 42.1631 137.124 41.5492 136.635 40.8033C136.154 40.0482 135.914 39.2659 135.914 38.4562H139.14C139.176 39.0658 139.346 39.5525 139.651 39.9162C139.965 40.271 140.353 40.5303 140.815 40.694C141.285 40.8487 141.769 40.926 142.267 40.926C142.867 40.926 143.37 40.8487 143.776 40.694C144.182 40.5303 144.491 40.312 144.704 40.0391C144.915 39.7571 145.022 39.4387 145.022 39.0839Z" fill="black"></path>
<path d="M59.7195 58.3785V59.4496H54.2661V58.3785H59.7195ZM54.4738 54.1077V64.0412H53.1381V54.1077H54.4738ZM60.8822 54.1077V64.0412H59.5535V54.1077H60.8822ZM62.7231 60.4321V60.2752C62.7231 59.743 62.8015 59.2496 62.9583 58.7946C63.1152 58.3353 63.3412 57.9373 63.6365 57.6008C63.9318 57.2596 64.2893 56.9958 64.7092 56.8094C65.1291 56.6183 65.5996 56.5228 66.121 56.5228C66.6469 56.5228 67.1198 56.6183 67.5397 56.8094C67.9642 56.9958 68.3241 57.2596 68.6194 57.6008C68.9192 57.9373 69.1475 58.3353 69.3044 58.7946C69.4612 59.2496 69.5398 59.743 69.5398 60.2752V60.4321C69.5398 60.9642 69.4612 61.4577 69.3044 61.9126C69.1475 62.3674 68.9192 62.7654 68.6194 63.1066C68.3241 63.4431 67.9664 63.707 67.5467 63.898C67.1314 64.0844 66.6609 64.1777 66.1348 64.1777C65.6088 64.1777 65.1359 64.0844 64.7162 63.898C64.2963 63.707 63.9364 63.4431 63.6365 63.1066C63.3412 62.7654 63.1152 62.3674 62.9583 61.9126C62.8015 61.4577 62.7231 60.9642 62.7231 60.4321ZM64.0034 60.2752V60.4321C64.0034 60.8005 64.0472 61.1485 64.1348 61.476C64.2225 61.7989 64.3539 62.0854 64.5293 62.3357C64.7092 62.5858 64.933 62.7836 65.2005 62.9291C65.4682 63.0701 65.7796 63.1407 66.1348 63.1407C66.4855 63.1407 66.7923 63.0701 67.0552 62.9291C67.3229 62.7836 67.5443 62.5858 67.7196 62.3357C67.895 62.0854 68.0264 61.7989 68.1141 61.476C68.2063 61.1485 68.2525 60.8005 68.2525 60.4321V60.2752C68.2525 59.9113 68.2063 59.5679 68.1141 59.245C68.0264 58.9175 67.8926 58.6287 67.7127 58.3785C67.5374 58.1238 67.3159 57.9237 67.0484 57.7781C66.7853 57.6326 66.4762 57.5598 66.121 57.5598C65.7703 57.5598 65.4612 57.6326 65.1937 57.7781C64.9307 57.9237 64.7092 58.1238 64.5293 58.3785C64.3539 58.6287 64.2225 58.9175 64.1348 59.245C64.0472 59.5679 64.0034 59.9113 64.0034 60.2752ZM72.4187 58.1261V64.0412H71.1314V56.6593H72.3495L72.4187 58.1261ZM72.1557 60.0705L71.5605 60.0501C71.5651 59.5452 71.632 59.079 71.7612 58.6514C71.8904 58.2193 72.0819 57.844 72.3356 57.5257C72.5894 57.2074 72.9055 56.9617 73.2838 56.7889C73.6621 56.6114 74.1004 56.5228 74.5987 56.5228C74.9492 56.5228 75.2723 56.5728 75.5675 56.6729C75.8628 56.7684 76.1189 56.9208 76.3357 57.13C76.5526 57.3392 76.7209 57.6076 76.8409 57.9351C76.9609 58.2625 77.0208 58.6583 77.0208 59.1222V64.0412H75.7406V59.1836C75.7406 58.797 75.6736 58.4877 75.5398 58.2557C75.4107 58.0237 75.2261 57.8555 74.9862 57.7509C74.7463 57.6417 74.4649 57.5871 74.1418 57.5871C73.7635 57.5871 73.4475 57.6531 73.1938 57.785C72.9401 57.9168 72.737 58.0988 72.5848 58.3308C72.4325 58.5627 72.3218 58.8288 72.2526 59.1289C72.1879 59.4247 72.1557 59.7385 72.1557 60.0705ZM77.007 59.3746L76.1489 59.6338C76.1535 59.2291 76.2203 58.8402 76.3496 58.4672C76.4834 58.0943 76.6748 57.7622 76.9239 57.4711C77.1777 57.18 77.4891 56.9504 77.8582 56.782C78.2273 56.6092 78.6494 56.5228 79.1247 56.5228C79.526 56.5228 79.8813 56.5751 80.1904 56.6797C80.5042 56.7843 80.7671 56.9457 80.9794 57.1642C81.1962 57.3778 81.36 57.6531 81.4707 57.9896C81.5815 58.3262 81.6368 58.7264 81.6368 59.1904V64.0412H80.3496V59.1768C80.3496 58.7629 80.2827 58.4422 80.1489 58.2148C80.0197 57.9828 79.8352 57.8213 79.5952 57.7304C79.36 57.6348 79.0785 57.5871 78.751 57.5871C78.4695 57.5871 78.2204 57.6348 78.0036 57.7304C77.7867 57.8259 77.6045 57.9578 77.4568 58.1261C77.3092 58.2898 77.1962 58.4786 77.1177 58.6923C77.0439 58.9061 77.007 59.1336 77.007 59.3746ZM86.6818 64.1777C86.1605 64.1777 85.6876 64.0913 85.2632 63.9184C84.8433 63.7411 84.4811 63.4932 84.1766 63.1748C83.8767 62.8564 83.6461 62.4789 83.4846 62.0422C83.3231 61.6056 83.2424 61.128 83.2424 60.6095V60.3229C83.2424 59.7225 83.3324 59.1881 83.5122 58.7197C83.6922 58.2466 83.9367 57.8464 84.2458 57.5188C84.5549 57.1914 84.9056 56.9435 85.2978 56.7753C85.69 56.6069 86.0959 56.5228 86.5158 56.5228C87.0509 56.5228 87.5124 56.6138 87.8999 56.7956C88.292 56.9776 88.6127 57.2323 88.8618 57.5598C89.111 57.8827 89.2955 58.2649 89.4155 58.706C89.5354 59.1427 89.5954 59.6202 89.5954 60.1387V60.7051H84.0036V59.6748H88.3151V59.5793C88.2966 59.2518 88.2274 58.9334 88.1075 58.6242C87.9922 58.3148 87.8077 58.0602 87.5538 57.86C87.3001 57.6598 86.9541 57.5598 86.5158 57.5598C86.2251 57.5598 85.9575 57.6212 85.713 57.744C85.4685 57.8623 85.2585 58.0397 85.0832 58.2762C84.9079 58.5128 84.7718 58.8015 84.6749 59.1427C84.5781 59.4837 84.5296 59.8772 84.5296 60.3229V60.6095C84.5296 60.9597 84.5781 61.2895 84.6749 61.5987C84.7764 61.9036 84.9218 62.1718 85.1109 62.4039C85.3047 62.6358 85.5377 62.8177 85.8098 62.9496C86.0867 63.0816 86.4004 63.1475 86.7511 63.1475C87.2032 63.1475 87.5861 63.0565 87.8999 62.8745C88.2136 62.6927 88.4881 62.4493 88.7234 62.1446L89.4985 62.7518C89.3371 62.9928 89.1317 63.2226 88.8826 63.4409C88.6335 63.6592 88.3266 63.8365 87.9622 63.973C87.6023 64.1095 87.1755 64.1777 86.6818 64.1777ZM100.17 61.5306C100.17 61.2985 100.133 61.094 100.059 60.9165C99.99 60.7346 99.8654 60.5708 99.6855 60.4253C99.5103 60.2797 99.2657 60.141 98.952 60.0091C98.6429 59.8772 98.2506 59.743 97.7755 59.6066C97.2772 59.461 96.8274 59.2995 96.4259 59.1222C96.0246 58.9402 95.6809 58.7333 95.3948 58.5013C95.1088 58.2694 94.8896 58.0033 94.7373 57.703C94.5851 57.4029 94.509 57.0595 94.509 56.6729C94.509 56.2862 94.5897 55.9292 94.7513 55.6018C94.9127 55.2743 95.1434 54.99 95.4433 54.7489C95.7477 54.5033 96.1099 54.3122 96.5298 54.1758C96.9496 54.0394 97.4179 53.9712 97.9347 53.9712C98.6913 53.9712 99.3326 54.1144 99.8586 54.401C100.389 54.683 100.793 55.0536 101.07 55.5131C101.346 55.9679 101.485 56.4546 101.485 56.9731H100.156C100.156 56.6001 100.075 56.2704 99.914 55.9838C99.7524 55.6927 99.5079 55.4653 99.1804 55.3015C98.8527 55.1332 98.4376 55.0491 97.9347 55.0491C97.4594 55.0491 97.0673 55.1196 96.7582 55.2606C96.4491 55.4016 96.2183 55.5926 96.0661 55.8337C95.9184 56.0748 95.8446 56.3499 95.8446 56.6593C95.8446 56.8684 95.8884 57.0595 95.9762 57.2323C96.0684 57.4007 96.2091 57.5575 96.3983 57.703C96.592 57.8486 96.8366 57.9828 97.1319 58.1056C97.4318 58.2284 97.7893 58.3467 98.2046 58.4604C98.7767 58.6196 99.2703 58.797 99.6855 58.9926C100.101 59.1881 100.442 59.4087 100.71 59.6543C100.982 59.8955 101.183 60.1706 101.312 60.4799C101.446 60.7846 101.513 61.1303 101.513 61.5169C101.513 61.9217 101.43 62.2878 101.263 62.6153C101.097 62.9428 100.86 63.2226 100.551 63.4545C100.241 63.6865 99.87 63.8661 99.4364 63.9935C99.0073 64.1163 98.5275 64.1777 97.9969 64.1777C97.531 64.1777 97.0719 64.114 96.6198 63.9866C96.1722 63.8594 95.7639 63.6683 95.3948 63.4135C95.0303 63.1589 94.7373 62.8451 94.5159 62.472C94.299 62.0945 94.1906 61.6579 94.1906 61.1621H95.5193C95.5193 61.5032 95.5863 61.7967 95.7201 62.0422C95.8538 62.2833 96.036 62.4834 96.2668 62.6426C96.5021 62.8018 96.7674 62.9201 97.0627 62.9974C97.3625 63.0702 97.674 63.1066 97.9969 63.1066C98.4629 63.1066 98.8574 63.0429 99.1804 62.9155C99.5033 62.7881 99.7478 62.6063 99.914 62.3698C100.085 62.1332 100.17 61.8535 100.17 61.5306ZM106.129 64.1777C105.607 64.1777 105.134 64.0913 104.71 63.9184C104.29 63.7411 103.928 63.4932 103.623 63.1748C103.323 62.8564 103.093 62.4789 102.931 62.0422C102.77 61.6056 102.689 61.128 102.689 60.6095V60.3229C102.689 59.7225 102.779 59.1881 102.959 58.7197C103.139 58.2466 103.383 57.8464 103.693 57.5188C104.002 57.1914 104.352 56.9435 104.744 56.7753C105.137 56.6069 105.543 56.5228 105.962 56.5228C106.498 56.5228 106.959 56.6138 107.347 56.7956C107.739 56.9776 108.059 57.2323 108.309 57.5598C108.558 57.8827 108.742 58.2649 108.862 58.706C108.982 59.1427 109.042 59.6202 109.042 60.1387V60.7051H103.45V59.6748H107.762V59.5793C107.743 59.2518 107.674 58.9334 107.554 58.6242C107.439 58.3148 107.254 58.0602 107.001 57.86C106.747 57.6598 106.401 57.5598 105.962 57.5598C105.672 57.5598 105.404 57.6212 105.16 57.744C104.915 57.8623 104.705 58.0397 104.53 58.2762C104.355 58.5128 104.218 58.8015 104.122 59.1427C104.025 59.4837 103.976 59.8772 103.976 60.3229V60.6095C103.976 60.9597 104.025 61.2895 104.122 61.5987C104.223 61.9036 104.368 62.1718 104.558 62.4039C104.751 62.6358 104.984 62.8177 105.257 62.9496C105.533 63.0816 105.847 63.1475 106.198 63.1475C106.65 63.1475 107.033 63.0565 107.347 62.8745C107.66 62.6927 107.935 62.4493 108.17 62.1446L108.945 62.7518C108.784 62.9928 108.578 63.2226 108.329 63.4409C108.08 63.6592 107.773 63.8365 107.409 63.973C107.049 64.1095 106.622 64.1777 106.129 64.1777ZM111.817 57.819V64.0412H110.537V56.6593H111.783L111.817 57.819ZM114.156 56.6183L114.149 57.7918C114.043 57.7691 113.942 57.7554 113.845 57.7509C113.753 57.7417 113.647 57.7372 113.527 57.7372C113.231 57.7372 112.971 57.7827 112.745 57.8736C112.518 57.9646 112.327 58.0919 112.17 58.2557C112.013 58.4195 111.889 58.615 111.796 58.8425C111.709 59.0654 111.651 59.3109 111.623 59.5793L111.264 59.784C111.264 59.3382 111.307 58.9198 111.395 58.5286C111.487 58.1375 111.628 57.7918 111.817 57.4916C112.006 57.1869 112.246 56.9504 112.537 56.782C112.832 56.6092 113.183 56.5228 113.589 56.5228C113.681 56.5228 113.787 56.5341 113.907 56.5569C114.027 56.5751 114.11 56.5956 114.156 56.6183ZM117.741 62.9019L119.79 56.6593H121.097L118.406 64.0412H117.547L117.741 62.9019ZM116.032 56.6593L118.142 62.936L118.287 64.0412H117.43L114.717 56.6593H116.032ZM123.72 56.6593V64.0412H122.433V56.6593H123.72ZM122.336 54.7011C122.336 54.4964 122.399 54.3236 122.523 54.1826C122.653 54.0416 122.842 53.9712 123.091 53.9712C123.335 53.9712 123.522 54.0416 123.651 54.1826C123.785 54.3236 123.852 54.4964 123.852 54.7011C123.852 54.8968 123.785 55.065 123.651 55.206C123.522 55.3425 123.335 55.4107 123.091 55.4107C122.842 55.4107 122.653 55.3425 122.523 55.206C122.399 55.065 122.336 54.8968 122.336 54.7011ZM128.772 63.1407C129.077 63.1407 129.358 63.0792 129.617 62.9565C129.875 62.8337 130.088 62.6654 130.253 62.4516C130.42 62.2333 130.514 61.9854 130.537 61.7079H131.756C131.732 62.1446 131.582 62.5516 131.306 62.9291C131.033 63.3021 130.676 63.6046 130.233 63.8365C129.79 64.064 129.304 64.1777 128.772 64.1777C128.21 64.1777 127.719 64.0799 127.298 63.8843C126.883 63.6888 126.537 63.4204 126.26 63.0792C125.988 62.7382 125.783 62.347 125.645 61.9058C125.511 61.46 125.444 60.9893 125.444 60.4935V60.2069C125.444 59.7111 125.511 59.2427 125.645 58.8015C125.783 58.3558 125.988 57.9624 126.26 57.6212C126.537 57.2801 126.883 57.0117 127.298 56.8161C127.719 56.6206 128.21 56.5228 128.772 56.5228C129.358 56.5228 129.87 56.641 130.309 56.8776C130.747 57.1096 131.091 57.4279 131.34 57.8328C131.594 58.233 131.732 58.6878 131.756 59.1972H130.537C130.514 58.8925 130.427 58.6173 130.274 58.3717C130.127 58.1261 129.924 57.9306 129.665 57.785C129.411 57.6348 129.113 57.5598 128.772 57.5598C128.38 57.5598 128.05 57.6371 127.782 57.7918C127.52 57.9419 127.31 58.1466 127.153 58.4059C127 58.6605 126.891 58.9447 126.821 59.2587C126.756 59.5679 126.724 59.884 126.724 60.2069V60.4935C126.724 60.8165 126.756 61.1348 126.821 61.4486C126.886 61.7625 126.993 62.0468 127.146 62.3015C127.303 62.5562 127.513 62.7609 127.776 62.9155C128.043 63.0656 128.375 63.1407 128.772 63.1407ZM136.302 64.1777C135.781 64.1777 135.308 64.0913 134.883 63.9184C134.464 63.7411 134.101 63.4932 133.796 63.1748C133.496 62.8564 133.266 62.4789 133.104 62.0422C132.944 61.6056 132.862 61.128 132.862 60.6095V60.3229C132.862 59.7225 132.952 59.1881 133.133 58.7197C133.312 58.2466 133.557 57.8464 133.866 57.5188C134.176 57.1914 134.525 56.9435 134.917 56.7753C135.309 56.6069 135.716 56.5228 136.136 56.5228C136.671 56.5228 137.132 56.6138 137.521 56.7956C137.913 56.9776 138.233 57.2323 138.482 57.5598C138.731 57.8827 138.915 58.2649 139.036 58.706C139.155 59.1427 139.215 59.6202 139.215 60.1387V60.7051H133.624V59.6748H137.935V59.5793C137.917 59.2518 137.848 58.9334 137.727 58.6242C137.613 58.3148 137.427 58.0602 137.174 57.86C136.921 57.6598 136.574 57.5598 136.136 57.5598C135.846 57.5598 135.578 57.6212 135.333 57.744C135.089 57.8623 134.878 58.0397 134.704 58.2762C134.528 58.5128 134.392 58.8015 134.295 59.1427C134.198 59.4837 134.15 59.8772 134.15 60.3229V60.6095C134.15 60.9597 134.198 61.2895 134.295 61.5987C134.396 61.9036 134.542 62.1718 134.731 62.4039C134.924 62.6358 135.158 62.8177 135.43 62.9496C135.706 63.0816 136.02 63.1475 136.371 63.1475C136.824 63.1475 137.206 63.0565 137.521 62.8745C137.833 62.6927 138.109 62.4493 138.344 62.1446L139.119 62.7518C138.957 62.9928 138.752 63.2226 138.503 63.4409C138.254 63.6592 137.947 63.8365 137.582 63.973C137.223 64.1095 136.795 64.1777 136.302 64.1777ZM145.07 62.0832C145.07 61.9012 145.029 61.733 144.946 61.5783C144.867 61.4191 144.704 61.2758 144.455 61.1484C144.21 61.0165 143.841 60.9029 143.347 60.8074C142.932 60.7209 142.556 60.6185 142.219 60.5004C141.887 60.3821 141.604 60.2388 141.367 60.0705C141.137 59.9022 140.96 59.7044 140.835 59.477C140.711 59.2496 140.648 58.9834 140.648 58.6787C140.648 58.3876 140.713 58.1124 140.842 57.8531C140.975 57.5939 141.163 57.3642 141.403 57.1642C141.647 56.964 141.94 56.807 142.282 56.6934C142.623 56.5796 143.003 56.5228 143.424 56.5228C144.022 56.5228 144.535 56.6274 144.959 56.8366C145.384 57.0459 145.709 57.3255 145.936 57.6758C146.161 58.0215 146.275 58.4059 146.275 58.8288H144.995C144.995 58.6242 144.932 58.4262 144.808 58.2353C144.687 58.0397 144.51 57.8782 144.274 57.7509C144.044 57.6235 143.76 57.5598 143.424 57.5598C143.068 57.5598 142.78 57.6144 142.558 57.7235C142.342 57.8282 142.182 57.9623 142.081 58.1261C141.984 58.2898 141.935 58.4627 141.935 58.6446C141.935 58.781 141.958 58.9039 142.004 59.013C142.055 59.1176 142.143 59.2155 142.267 59.3064C142.393 59.3928 142.567 59.4747 142.793 59.552C143.02 59.6293 143.308 59.7066 143.659 59.784C144.272 59.9204 144.777 60.0842 145.174 60.2752C145.571 60.4662 145.866 60.7005 146.06 60.9779C146.254 61.2553 146.35 61.592 146.35 61.9876C146.35 62.3106 146.282 62.6063 146.143 62.8745C146.009 63.1429 145.813 63.3749 145.554 63.5705C145.3 63.7616 144.997 63.9116 144.641 64.0208C144.291 64.1254 143.896 64.1777 143.458 64.1777C142.798 64.1777 142.24 64.0617 141.783 63.8298C141.326 63.5977 140.98 63.2976 140.745 62.9291C140.51 62.5607 140.392 62.1718 140.392 61.7625H141.679C141.698 62.1081 141.8 62.3834 141.984 62.5881C142.168 62.7881 142.395 62.9315 142.662 63.0179C142.93 63.0997 143.195 63.1407 143.458 63.1407C143.809 63.1407 144.102 63.0952 144.337 63.0042C144.576 62.9132 144.758 62.7881 144.883 62.629C145.007 62.4698 145.07 62.2878 145.07 62.0832Z" fill="black"></path>
<path d="M8.17544 74.9309V75.7343H4.0854V74.9309H8.17544ZM4.24112 71.7278V79.1779H3.23938V71.7278H4.24112ZM9.04743 71.7278V79.1779H8.05087V71.7278H9.04743ZM13.0129 79.2803C12.6218 79.2803 12.2672 79.2154 11.9489 79.0858C11.634 78.9528 11.3623 78.7669 11.134 78.5281C10.909 78.2893 10.736 78.0062 10.6149 77.6787C10.4938 77.3513 10.4333 76.993 10.4333 76.6042V76.3893C10.4333 75.939 10.5007 75.5381 10.6357 75.1868C10.7706 74.832 10.954 74.5318 11.1859 74.2861C11.4177 74.0406 11.6807 73.8546 11.9748 73.7284C12.2689 73.6022 12.5734 73.5391 12.8883 73.5391C13.2898 73.5391 13.6357 73.6073 13.9264 73.7438C14.2205 73.8802 14.4611 74.0713 14.6479 74.3169C14.8348 74.5591 14.9731 74.8456 15.0631 75.1765C15.1531 75.504 15.1981 75.8621 15.1981 76.251V76.6758H11.0042V75.9031H14.2378V75.8315C14.224 75.5858 14.172 75.3471 14.0822 75.1151C13.9956 74.8831 13.8572 74.6922 13.6669 74.5421C13.4766 74.3919 13.217 74.3169 12.8883 74.3169C12.6703 74.3169 12.4696 74.3629 12.2862 74.455C12.1029 74.5437 11.9454 74.6768 11.8139 74.8541C11.6824 75.0316 11.5803 75.2482 11.5077 75.504C11.435 75.7599 11.3987 76.055 11.3987 76.3893V76.6042C11.3987 76.8668 11.435 77.1141 11.5077 77.3461C11.5838 77.5746 11.6928 77.7759 11.8346 77.9499C11.98 78.1238 12.1547 78.2603 12.3589 78.3593C12.5664 78.4581 12.8018 78.5076 13.0648 78.5076C13.4039 78.5076 13.6911 78.4394 13.9264 78.3029C14.1616 78.1664 14.3676 77.984 14.5441 77.7554L15.1254 78.2108C15.0042 78.3916 14.8502 78.564 14.6634 78.7277C14.4765 78.8914 14.2464 79.0245 13.9731 79.1268C13.7033 79.2291 13.3832 79.2803 13.0129 79.2803ZM17.3624 71.3184V79.1779H16.397V71.3184H17.3624ZM19.8642 74.7058V81.3066H18.8988V73.6414H19.7811L19.8642 74.7058ZM23.648 76.3636V76.4711C23.648 76.8736 23.5996 77.2472 23.5026 77.5917C23.4058 77.9329 23.2639 78.2296 23.0771 78.482C22.8937 78.7344 22.667 78.9306 22.3971 79.0705C22.1272 79.2103 21.8176 79.2803 21.4681 79.2803C21.1116 79.2803 20.7967 79.2223 20.5234 79.1063C20.25 78.9904 20.0181 78.8214 19.8279 78.5997C19.6376 78.378 19.4853 78.112 19.3711 77.8015C19.2603 77.4911 19.1843 77.1414 19.1427 76.7525V76.1794C19.1843 75.77 19.2621 75.4034 19.3763 75.0793C19.4905 74.7553 19.641 74.479 19.8279 74.2504C20.0181 74.0183 20.2483 73.8427 20.5182 73.7233C20.7881 73.6006 21.0996 73.5391 21.4525 73.5391C21.8054 73.5391 22.1186 73.6073 22.3919 73.7438C22.6652 73.8769 22.8954 74.0678 23.0823 74.3169C23.2691 74.5659 23.4092 74.8644 23.5026 75.2123C23.5996 75.5568 23.648 75.9406 23.648 76.3636ZM22.6826 76.4711V76.3636C22.6826 76.0873 22.6532 75.828 22.5944 75.5858C22.5355 75.3403 22.4438 75.1253 22.3193 74.9411C22.1981 74.7535 22.0424 74.6068 21.8522 74.5011C21.6618 74.3919 21.4351 74.3374 21.1722 74.3374C20.93 74.3374 20.7189 74.3782 20.5389 74.4601C20.3624 74.5421 20.212 74.6529 20.0874 74.7928C19.9629 74.9292 19.8607 75.0861 19.7811 75.2635C19.705 75.4375 19.648 75.6183 19.6098 75.8059V77.1312C19.679 77.37 19.776 77.5951 19.9005 77.8067C20.0251 78.0147 20.1912 78.1836 20.3988 78.3132C20.6064 78.4394 20.8677 78.5025 21.1826 78.5025C21.4421 78.5025 21.6653 78.4496 21.8522 78.3439C22.0424 78.2347 22.1981 78.0863 22.3193 77.8988C22.4438 77.7111 22.5355 77.4962 22.5944 77.254C22.6532 77.0084 22.6826 76.7474 22.6826 76.4711ZM25.9162 73.6414V79.1779H24.9508V73.6414H25.9162ZM24.8781 72.1729C24.8781 72.0194 24.9248 71.8897 25.0182 71.784C25.1152 71.6783 25.257 71.6254 25.4439 71.6254C25.6273 71.6254 25.7674 71.6783 25.8642 71.784C25.9646 71.8897 26.0148 72.0194 26.0148 72.1729C26.0148 72.3196 25.9646 72.4458 25.8642 72.5516C25.7674 72.6539 25.6273 72.705 25.4439 72.705C25.257 72.705 25.1152 72.6539 25.0182 72.5516C24.9248 72.4458 24.8781 72.3196 24.8781 72.1729ZM28.4179 74.8235V79.1779H27.4578V73.6414H28.3661L28.4179 74.8235ZM28.1896 76.1999L27.7899 76.1846C27.7933 75.8059 27.8505 75.4562 27.9612 75.1356C28.072 74.8115 28.2276 74.5301 28.4283 74.2913C28.6291 74.0524 28.8678 73.8682 29.1446 73.7386C29.4249 73.6057 29.7346 73.5391 30.0737 73.5391C30.3505 73.5391 30.5996 73.5767 30.8211 73.6517C31.0426 73.7233 31.2312 73.8393 31.3868 73.9996C31.5461 74.1599 31.6671 74.368 31.7501 74.6239C31.8332 74.8764 31.8748 75.185 31.8748 75.5501V79.1779H30.9093V75.5398C30.9093 75.2499 30.8661 75.0178 30.7796 74.8439C30.6931 74.6665 30.5668 74.5386 30.4007 74.4601C30.2346 74.3782 30.0305 74.3374 29.7882 74.3374C29.5495 74.3374 29.3315 74.3869 29.1342 74.4857C28.9404 74.5847 28.7726 74.7212 28.6307 74.8951C28.4923 75.0691 28.3833 75.2686 28.3038 75.4937C28.2276 75.7155 28.1896 75.9509 28.1896 76.1999ZM36.9717 73.6414H37.8437V79.0602C37.8437 79.5481 37.7434 79.9643 37.5426 80.3088C37.342 80.6533 37.0617 80.9143 36.7018 81.0917C36.3455 81.2724 35.9336 81.3629 35.4665 81.3629C35.2728 81.3629 35.0444 81.3322 34.7813 81.2708C34.5218 81.2128 34.2658 81.1121 34.0133 80.9689C33.764 80.829 33.5548 80.6397 33.3851 80.4009L33.8887 79.838C34.1239 80.1177 34.3696 80.3122 34.6257 80.4214C34.8852 80.5305 35.1412 80.5851 35.3939 80.5851C35.6983 80.5851 35.9614 80.5289 36.1828 80.4163C36.4043 80.3037 36.5755 80.1365 36.6966 79.9148C36.8212 79.6964 36.8835 79.427 36.8835 79.1063V74.8593L36.9717 73.6414ZM33.1049 76.4711V76.3636C33.1049 75.9406 33.1551 75.5568 33.2553 75.2123C33.3592 74.8644 33.5063 74.5659 33.6966 74.3169C33.8903 74.0678 34.1239 73.8769 34.3972 73.7438C34.6707 73.6073 34.9786 73.5391 35.3212 73.5391C35.6741 73.5391 35.982 73.6006 36.2451 73.7233C36.5115 73.8427 36.7364 74.0183 36.9198 74.2504C37.1067 74.479 37.2537 74.7553 37.361 75.0793C37.4682 75.4034 37.5426 75.77 37.5842 76.1794V76.6502C37.5462 77.0561 37.4718 77.4211 37.361 77.7452C37.2537 78.0693 37.1067 78.3456 36.9198 78.5741C36.7364 78.8027 36.5115 78.9784 36.2451 79.1012C35.9786 79.2206 35.6672 79.2803 35.3108 79.2803C34.9751 79.2803 34.6707 79.2103 34.3972 79.0705C34.1274 78.9306 33.8955 78.7344 33.7018 78.482C33.508 78.2296 33.3592 77.9329 33.2553 77.5917C33.1551 77.2472 33.1049 76.8736 33.1049 76.4711ZM34.0651 76.3636V76.4711C34.0651 76.7474 34.0927 77.0067 34.1481 77.2489C34.207 77.4911 34.2952 77.7043 34.4128 77.8885C34.534 78.0727 34.6879 78.2177 34.8748 78.3234C35.0616 78.4258 35.2848 78.4769 35.5443 78.4769C35.8627 78.4769 36.1257 78.4104 36.3333 78.2774C36.5409 78.1443 36.7052 77.9686 36.8264 77.7503C36.951 77.532 37.0479 77.2949 37.1171 77.0391V75.8059C37.079 75.6183 37.0202 75.4375 36.9406 75.2635C36.8644 75.0861 36.7642 74.9292 36.6396 74.7928C36.5184 74.6529 36.3679 74.5421 36.188 74.4601C36.008 74.3782 35.797 74.3374 35.5547 74.3374C35.2918 74.3374 35.0651 74.3919 34.8748 74.5011C34.6879 74.6068 34.534 74.7535 34.4128 74.9411C34.2952 75.1253 34.207 75.3403 34.1481 75.5858C34.0927 75.828 34.0651 76.0873 34.0651 76.3636ZM42.432 71.7278L44.394 75.4682L46.3611 71.7278H47.4978L44.8923 76.3944V79.1779H43.8905V76.3944L41.285 71.7278H42.432ZM47.7262 76.4711V76.3534C47.7262 75.9542 47.785 75.5842 47.9027 75.243C48.0203 74.8985 48.1899 74.6001 48.4114 74.3476C48.6328 74.0917 48.9009 73.8939 49.2158 73.754C49.5307 73.6108 49.8837 73.5391 50.2747 73.5391C50.6692 73.5391 51.0238 73.6108 51.3387 73.754C51.657 73.8939 51.9269 74.0917 52.1484 74.3476C52.3734 74.6001 52.5446 74.8985 52.6623 75.243C52.7799 75.5842 52.8387 75.9542 52.8387 76.3534V76.4711C52.8387 76.8703 52.7799 77.2403 52.6623 77.5815C52.5446 77.9226 52.3734 78.2211 52.1484 78.4769C51.9269 78.7293 51.6588 78.9273 51.3439 79.0705C51.0325 79.2103 50.6796 79.2803 50.2851 79.2803C49.8906 79.2803 49.5359 79.2103 49.221 79.0705C48.9061 78.9273 48.6362 78.7293 48.4114 78.4769C48.1899 78.2211 48.0203 77.9226 47.9027 77.5815C47.785 77.2403 47.7262 76.8703 47.7262 76.4711ZM48.6864 76.3534V76.4711C48.6864 76.7474 48.7193 77.0084 48.7851 77.254C48.8509 77.4962 48.9494 77.7111 49.0809 77.8988C49.2158 78.0863 49.3837 78.2347 49.5843 78.3439C49.7851 78.4496 50.0186 78.5025 50.2851 78.5025C50.5481 78.5025 50.7782 78.4496 50.9754 78.3439C51.1761 78.2347 51.3422 78.0863 51.4737 77.8988C51.6052 77.7111 51.7038 77.4962 51.7695 77.254C51.8387 77.0084 51.8733 76.7474 51.8733 76.4711V76.3534C51.8733 76.0805 51.8387 75.823 51.7695 75.5807C51.7038 75.3351 51.6034 75.1186 51.4685 74.9309C51.337 74.7399 51.1709 74.5898 50.9702 74.4806C50.773 74.3715 50.5411 74.3169 50.2747 74.3169C50.0118 74.3169 49.7799 74.3715 49.5792 74.4806C49.382 74.5898 49.2158 74.7399 49.0809 74.9309C48.9494 75.1186 48.8509 75.3351 48.7851 75.5807C48.7193 75.823 48.6864 76.0805 48.6864 76.3534ZM57.4789 77.8988V73.6414H58.4444V79.1779H57.5257L57.4789 77.8988ZM57.6606 76.732L58.0603 76.7218C58.0603 77.0902 58.0205 77.4314 57.9409 77.7452C57.8648 78.0556 57.7402 78.3252 57.5672 78.5537C57.3942 78.7823 57.1676 78.9614 56.8873 79.091C56.6069 79.2172 56.2662 79.2803 55.8647 79.2803C55.5914 79.2803 55.3405 79.2411 55.1121 79.1626C54.8872 79.0841 54.6934 78.963 54.5308 78.7993C54.3681 78.6356 54.2419 78.4224 54.1519 78.1597C54.0654 77.897 54.0222 77.5815 54.0222 77.2131V73.6414H54.9824V77.2233C54.9824 77.4724 55.0101 77.6787 55.0655 77.8424C55.1243 78.0027 55.2021 78.1307 55.299 78.2262C55.3994 78.3183 55.51 78.3831 55.6312 78.4206C55.7557 78.4581 55.8837 78.4769 56.0153 78.4769C56.4236 78.4769 56.7471 78.4001 56.9858 78.2467C57.2246 78.0897 57.3959 77.88 57.4997 77.6173C57.607 77.3513 57.6606 77.0561 57.6606 76.732ZM65.4877 72.3878L62.9859 79.1779H61.9635L64.8442 71.7278H65.5033L65.4877 72.3878ZM67.5847 79.1779L65.0777 72.3878L65.0621 71.7278H65.7213L68.6124 79.1779H67.5847ZM67.4549 76.4199V77.2284H63.2092V76.4199H67.4549ZM70.4394 74.5113V79.1779H69.4792V73.6414H70.4134L70.4394 74.5113ZM72.1937 73.6108L72.1885 74.4908C72.1089 74.4738 72.0328 74.4636 71.9602 74.4601C71.891 74.4533 71.8114 74.45 71.7214 74.45C71.4999 74.45 71.3044 74.4841 71.1348 74.5522C70.9653 74.6204 70.8217 74.716 70.7041 74.8388C70.5864 74.9616 70.493 75.1083 70.4238 75.2789C70.358 75.446 70.3148 75.6302 70.294 75.8315L70.0241 75.985C70.0241 75.6507 70.057 75.3369 70.1227 75.0435C70.192 74.7502 70.2975 74.4908 70.4394 74.2656C70.5812 74.0372 70.7611 73.8597 70.9792 73.7335C71.2006 73.6039 71.4636 73.5391 71.7681 73.5391C71.8373 73.5391 71.9168 73.5477 72.0068 73.5647C72.0968 73.5783 72.1591 73.5937 72.1937 73.6108ZM72.7232 76.4711V76.3534C72.7232 75.9542 72.782 75.5842 72.8996 75.243C73.0173 74.8985 73.1868 74.6001 73.4082 74.3476C73.6297 74.0917 73.8979 73.8939 74.2128 73.754C74.5277 73.6108 74.8806 73.5391 75.2716 73.5391C75.6661 73.5391 76.0208 73.6108 76.3357 73.754C76.654 73.8939 76.9239 74.0917 77.1453 74.3476C77.3702 74.6001 77.5416 74.8985 77.6592 75.243C77.7769 75.5842 77.8357 75.9542 77.8357 76.3534V76.4711C77.8357 76.8703 77.7769 77.2403 77.6592 77.5815C77.5416 77.9226 77.3702 78.2211 77.1453 78.4769C76.9239 78.7293 76.6558 78.9273 76.3409 79.0705C76.0294 79.2103 75.6765 79.2803 75.282 79.2803C74.8876 79.2803 74.5329 79.2103 74.218 79.0705C73.9031 78.9273 73.6332 78.7293 73.4082 78.4769C73.1868 78.2211 73.0173 77.9226 72.8996 77.5815C72.782 77.2403 72.7232 76.8703 72.7232 76.4711ZM73.6834 76.3534V76.4711C73.6834 76.7474 73.7162 77.0084 73.782 77.254C73.8477 77.4962 73.9463 77.7111 74.0778 77.8988C74.2128 78.0863 74.3806 78.2347 74.5813 78.3439C74.782 78.4496 75.0156 78.5025 75.282 78.5025C75.545 78.5025 75.775 78.4496 75.9723 78.3439C76.1731 78.2347 76.3391 78.0863 76.4706 77.8988C76.602 77.7111 76.7007 77.4962 76.7664 77.254C76.8357 77.0084 76.8703 76.7474 76.8703 76.4711V76.3534C76.8703 76.0805 76.8357 75.823 76.7664 75.5807C76.7007 75.3351 76.6004 75.1186 76.4654 74.9309C76.3339 74.7399 76.1679 74.5898 75.9671 74.4806C75.77 74.3715 75.5381 74.3169 75.2716 74.3169C75.0086 74.3169 74.7768 74.3715 74.5761 74.4806C74.3789 74.5898 74.2128 74.7399 74.0778 74.9309C73.9463 75.1186 73.8477 75.3351 73.782 75.5807C73.7162 75.823 73.6834 76.0805 73.6834 76.3534ZM82.4759 77.8988V73.6414H83.4413V79.1779H82.5225L82.4759 77.8988ZM82.6575 76.732L83.0572 76.7218C83.0572 77.0902 83.0174 77.4314 82.9378 77.7452C82.8616 78.0556 82.7371 78.3252 82.5641 78.5537C82.3911 78.7823 82.1644 78.9614 81.8842 79.091C81.6039 79.2172 81.263 79.2803 80.8617 79.2803C80.5882 79.2803 80.3374 79.2411 80.1091 79.1626C79.8842 79.0841 79.6904 78.963 79.5277 78.7993C79.3651 78.6356 79.2388 78.4224 79.1488 78.1597C79.0624 77.897 79.019 77.5815 79.019 77.2131V73.6414H79.9793V77.2233C79.9793 77.4724 80.007 77.6787 80.0623 77.8424C80.1211 78.0027 80.1991 78.1307 80.2959 78.2262C80.3962 78.3183 80.507 78.3831 80.6281 78.4206C80.7527 78.4581 80.8807 78.4769 81.0122 78.4769C81.4205 78.4769 81.7441 78.4001 81.9828 78.2467C82.2216 78.0897 82.3929 77.88 82.4967 77.6173C82.6039 77.3513 82.6575 77.0561 82.6575 76.732ZM85.8652 74.8235V79.1779H84.9049V73.6414H85.8133L85.8652 74.8235ZM85.6369 76.1999L85.2372 76.1846C85.2406 75.8059 85.2978 75.4562 85.4084 75.1356C85.5191 74.8115 85.6749 74.5301 85.8756 74.2913C86.0762 74.0524 86.3151 73.8682 86.5919 73.7386C86.8722 73.6057 87.1819 73.5391 87.521 73.5391C87.7977 73.5391 88.0469 73.5767 88.2684 73.6517C88.4898 73.7233 88.6784 73.8393 88.8341 73.9996C88.9933 74.1599 89.1144 74.368 89.1974 74.6239C89.2805 74.8764 89.322 75.185 89.322 75.5501V79.1779H88.3566V75.5398C88.3566 75.2499 88.3134 75.0178 88.2268 74.8439C88.1403 74.6665 88.0141 74.5386 87.8479 74.4601C87.6818 74.3782 87.4777 74.3374 87.2355 74.3374C86.9967 74.3374 86.7788 74.3869 86.5815 74.4857C86.3877 74.5847 86.2199 74.7212 86.078 74.8951C85.9396 75.0691 85.8306 75.2686 85.751 75.4937C85.6749 75.7155 85.6369 75.9509 85.6369 76.1999ZM94.3203 78.1033V71.3184H95.2858V79.1779H94.4034L94.3203 78.1033ZM90.5418 76.4711V76.3636C90.5418 75.9406 90.5936 75.5568 90.6974 75.2123C90.8047 74.8644 90.9553 74.5659 91.1491 74.3169C91.3462 74.0678 91.5798 73.8769 91.8497 73.7438C92.1231 73.6073 92.4276 73.5391 92.7633 73.5391C93.1162 73.5391 93.4241 73.6006 93.6871 73.7233C93.9536 73.8427 94.1785 74.0183 94.3619 74.2504C94.5488 74.479 94.6958 74.7553 94.8031 75.0793C94.9103 75.4034 94.9847 75.77 95.0263 76.1794V76.6502C94.9881 77.0561 94.9138 77.4211 94.8031 77.7452C94.6958 78.0693 94.5488 78.3456 94.3619 78.5741C94.1785 78.8027 93.9536 78.9784 93.6871 79.1012C93.4207 79.2206 93.1092 79.2803 92.7529 79.2803C92.4241 79.2803 92.1231 79.2103 91.8497 79.0705C91.5798 78.9306 91.3462 78.7344 91.1491 78.482C90.9553 78.2296 90.8047 77.9329 90.6974 77.5917C90.5936 77.2472 90.5418 76.8736 90.5418 76.4711ZM91.5072 76.3636V76.4711C91.5072 76.7474 91.5348 77.0067 91.5902 77.2489C91.649 77.4911 91.739 77.7043 91.8601 77.8885C91.9812 78.0727 92.1352 78.2177 92.322 78.3234C92.5089 78.4258 92.7321 78.4769 92.9916 78.4769C93.3099 78.4769 93.5712 78.4104 93.7754 78.2774C93.983 78.1443 94.1491 77.9686 94.2737 77.7503C94.3982 77.532 94.4951 77.2949 94.5644 77.0391V75.8059C94.5228 75.6183 94.4622 75.4375 94.3826 75.2635C94.3065 75.0861 94.2061 74.9292 94.0816 74.7928C93.9605 74.6529 93.81 74.5421 93.63 74.4601C93.4535 74.3782 93.2442 74.3374 93.002 74.3374C92.739 74.3374 92.5123 74.3919 92.322 74.5011C92.1352 74.6068 91.9812 74.7535 91.8601 74.9411C91.739 75.1253 91.649 75.3403 91.5902 75.5858C91.5348 75.828 91.5072 76.0873 91.5072 76.3636ZM102.148 71.7278V79.1779H101.161V71.7278H102.148ZM104.577 71.7278V72.5362H98.7374V71.7278H104.577ZM106.513 71.3184V79.1779H105.552V71.3184H106.513ZM106.284 76.1999L105.885 76.1846C105.888 75.8059 105.945 75.4562 106.056 75.1356C106.167 74.8115 106.322 74.5301 106.523 74.2913C106.724 74.0524 106.962 73.8682 107.239 73.7386C107.52 73.6057 107.829 73.5391 108.168 73.5391C108.445 73.5391 108.694 73.5767 108.916 73.6517C109.137 73.7233 109.326 73.8393 109.481 73.9996C109.641 74.1599 109.762 74.368 109.845 74.6239C109.928 74.8764 109.969 75.185 109.969 75.5501V79.1779H109.004V75.5398C109.004 75.2499 108.961 75.0178 108.874 74.8439C108.788 74.6665 108.661 74.5386 108.495 74.4601C108.329 74.3782 108.125 74.3374 107.883 74.3374C107.644 74.3374 107.426 74.3869 107.229 74.4857C107.035 74.5847 106.867 74.7212 106.725 74.8951C106.587 75.0691 106.478 75.2686 106.398 75.4937C106.322 75.7155 106.284 75.9509 106.284 76.1999ZM113.738 79.2803C113.347 79.2803 112.992 79.2154 112.674 79.0858C112.359 78.9528 112.087 78.7669 111.859 78.5281C111.634 78.2893 111.461 78.0062 111.34 77.6787C111.218 77.3513 111.158 76.993 111.158 76.6042V76.3893C111.158 75.939 111.225 75.5381 111.36 75.1868C111.495 74.832 111.679 74.5318 111.911 74.2861C112.142 74.0406 112.405 73.8546 112.699 73.7284C112.994 73.6022 113.298 73.5391 113.613 73.5391C114.014 73.5391 114.36 73.6073 114.651 73.7438C114.945 73.8802 115.186 74.0713 115.373 74.3169C115.559 74.5591 115.698 74.8456 115.788 75.1765C115.878 75.504 115.923 75.8621 115.923 76.251V76.6758H111.729V75.9031H114.963V75.8315C114.949 75.5858 114.897 75.3471 114.807 75.1151C114.72 74.8831 114.582 74.6922 114.392 74.5421C114.201 74.3919 113.942 74.3169 113.613 74.3169C113.395 74.3169 113.194 74.3629 113.011 74.455C112.828 74.5437 112.67 74.6768 112.539 74.8541C112.407 75.0316 112.305 75.2482 112.232 75.504C112.16 75.7599 112.123 76.055 112.123 76.3893V76.6042C112.123 76.8668 112.16 77.1141 112.232 77.3461C112.309 77.5746 112.418 77.7759 112.559 77.9499C112.705 78.1238 112.879 78.2603 113.084 78.3593C113.291 78.4581 113.526 78.5076 113.79 78.5076C114.129 78.5076 114.416 78.4394 114.651 78.3029C114.886 78.1664 115.092 77.984 115.269 77.7554L115.85 78.2108C115.729 78.3916 115.575 78.564 115.388 78.7277C115.201 78.8914 114.971 79.0245 114.698 79.1268C114.428 79.2291 114.108 79.2803 113.738 79.2803ZM124.762 74.9309V75.7343H120.672V74.9309H124.762ZM120.828 71.7278V79.1779H119.826V71.7278H120.828ZM125.634 71.7278V79.1779H124.637V71.7278H125.634ZM127.015 76.4711V76.3534C127.015 75.9542 127.074 75.5842 127.191 75.243C127.309 74.8985 127.479 74.6001 127.7 74.3476C127.922 74.0917 128.19 73.8939 128.504 73.754C128.819 73.6108 129.172 73.5391 129.563 73.5391C129.958 73.5391 130.312 73.6108 130.628 73.754C130.945 73.8939 131.216 74.0917 131.437 74.3476C131.662 74.6001 131.833 74.8985 131.95 75.243C132.068 75.5842 132.128 75.9542 132.128 76.3534V76.4711C132.128 76.8703 132.068 77.2403 131.95 77.5815C131.833 77.9226 131.662 78.2211 131.437 78.4769C131.216 78.7293 130.948 78.9273 130.632 79.0705C130.32 79.2103 129.968 79.2803 129.574 79.2803C129.18 79.2803 128.824 79.2103 128.51 79.0705C128.194 78.9273 127.925 78.7293 127.7 78.4769C127.479 78.2211 127.309 77.9226 127.191 77.5815C127.074 77.2403 127.015 76.8703 127.015 76.4711ZM127.975 76.3534V76.4711C127.975 76.7474 128.008 77.0084 128.074 77.254C128.139 77.4962 128.238 77.7111 128.369 77.8988C128.504 78.0863 128.672 78.2347 128.872 78.3439C129.073 78.4496 129.307 78.5025 129.574 78.5025C129.836 78.5025 130.067 78.4496 130.264 78.3439C130.465 78.2347 130.631 78.0863 130.762 77.8988C130.893 77.7111 130.993 77.4962 131.057 77.254C131.127 77.0084 131.161 76.7474 131.161 76.4711V76.3534C131.161 76.0805 131.127 75.823 131.057 75.5807C130.993 75.3351 130.892 75.1186 130.757 74.9309C130.625 74.7399 130.46 74.5898 130.259 74.4806C130.062 74.3715 129.829 74.3169 129.563 74.3169C129.3 74.3169 129.068 74.3715 128.868 74.4806C128.67 74.5898 128.504 74.7399 128.369 74.9309C128.238 75.1186 128.139 75.3351 128.074 75.5807C128.008 75.823 127.975 76.0805 127.975 76.3534ZM136.767 77.8988V73.6414H137.733V79.1779H136.814L136.767 77.8988ZM136.949 76.732L137.349 76.7218C137.349 77.0902 137.309 77.4314 137.23 77.7452C137.153 78.0556 137.029 78.3252 136.855 78.5537C136.683 78.7823 136.456 78.9614 136.175 79.091C135.895 79.2172 135.555 79.2803 135.154 79.2803C134.88 79.2803 134.629 79.2411 134.4 79.1626C134.176 79.0841 133.982 78.963 133.819 78.7993C133.657 78.6356 133.531 78.4224 133.44 78.1597C133.354 77.897 133.311 77.5815 133.311 77.2131V73.6414H134.271V77.2233C134.271 77.4724 134.298 77.6787 134.354 77.8424C134.413 78.0027 134.491 78.1307 134.588 78.2262C134.688 78.3183 134.798 78.3831 134.92 78.4206C135.044 78.4581 135.172 78.4769 135.304 78.4769C135.712 78.4769 136.036 78.4001 136.274 78.2467C136.513 78.0897 136.684 77.88 136.788 77.6173C136.896 77.3513 136.949 77.0561 136.949 76.732ZM142.467 77.7094C142.467 77.573 142.435 77.4467 142.372 77.3308C142.315 77.2113 142.192 77.104 142.004 77.0084C141.821 76.9095 141.544 76.8241 141.174 76.7525C140.863 76.6877 140.581 76.6109 140.328 76.5222C140.079 76.4336 139.866 76.3261 139.69 76.1999C139.517 76.0737 139.383 75.9252 139.29 75.7548C139.196 75.5842 139.149 75.3846 139.149 75.156C139.149 74.9377 139.198 74.7314 139.296 74.5369C139.395 74.3425 139.535 74.1702 139.715 74.0201C139.899 73.87 140.119 73.7523 140.375 73.667C140.63 73.5817 140.916 73.5391 141.231 73.5391C141.681 73.5391 142.065 73.6176 142.383 73.7745C142.702 73.9314 142.945 74.1412 143.115 74.4039C143.284 74.6632 143.369 74.9514 143.369 75.2686H142.409C142.409 75.1151 142.363 74.9667 142.27 74.8235C142.179 74.6768 142.046 74.5557 141.869 74.4601C141.697 74.3646 141.484 74.3169 141.231 74.3169C140.965 74.3169 140.748 74.3579 140.582 74.4397C140.42 74.5181 140.301 74.6188 140.224 74.7415C140.152 74.8644 140.115 74.994 140.115 75.1304C140.115 75.2328 140.133 75.3249 140.167 75.4067C140.205 75.4852 140.271 75.5586 140.365 75.6268C140.458 75.6917 140.589 75.753 140.759 75.811C140.928 75.869 141.144 75.927 141.407 75.985C141.868 76.0873 142.247 76.2102 142.545 76.3534C142.841 76.4967 143.063 76.6723 143.209 76.8805C143.354 77.0886 143.427 77.341 143.427 77.6377C143.427 77.88 143.375 78.1017 143.271 78.3029C143.171 78.5042 143.023 78.6782 142.83 78.8249C142.639 78.9681 142.411 79.0807 142.144 79.1626C141.881 79.2411 141.586 79.2803 141.257 79.2803C140.763 79.2803 140.343 79.1933 140.001 79.0194C139.658 78.8454 139.398 78.6202 139.222 78.3439C139.046 78.0676 138.958 77.7759 138.958 77.4689H139.923C139.937 77.7282 140.013 77.9345 140.152 78.0881C140.29 78.2382 140.459 78.3456 140.66 78.4104C140.861 78.4719 141.06 78.5025 141.257 78.5025C141.52 78.5025 141.739 78.4684 141.917 78.4001C142.096 78.3319 142.233 78.2382 142.326 78.1187C142.42 77.9994 142.467 77.8629 142.467 77.7094ZM147.019 79.2803C146.628 79.2803 146.272 79.2154 145.955 79.0858C145.639 78.9528 145.368 78.7669 145.14 78.5281C144.914 78.2893 144.742 78.0062 144.62 77.6787C144.5 77.3513 144.439 76.993 144.439 76.6042V76.3893C144.439 75.939 144.507 75.5381 144.641 75.1868C144.776 74.832 144.959 74.5318 145.192 74.2861C145.423 74.0406 145.687 73.8546 145.981 73.7284C146.275 73.6022 146.58 73.5391 146.894 73.5391C147.295 73.5391 147.641 73.6073 147.932 73.7438C148.226 73.8802 148.467 74.0713 148.654 74.3169C148.84 74.5591 148.978 74.8456 149.068 75.1765C149.159 75.504 149.204 75.8621 149.204 76.251V76.6758H145.01V75.9031H148.244V75.8315C148.23 75.5858 148.178 75.3471 148.088 75.1151C148.002 74.8831 147.862 74.6922 147.672 74.5421C147.482 74.3919 147.222 74.3169 146.894 74.3169C146.676 74.3169 146.476 74.3629 146.291 74.455C146.108 74.5437 145.951 74.6768 145.819 74.8541C145.688 75.0316 145.586 75.2482 145.513 75.504C145.441 75.7599 145.404 76.055 145.404 76.3893V76.6042C145.404 76.8668 145.441 77.1141 145.513 77.3461C145.59 77.5746 145.698 77.7759 145.84 77.9499C145.985 78.1238 146.16 78.2603 146.365 78.3593C146.572 78.4581 146.807 78.5076 147.071 78.5076C147.41 78.5076 147.697 78.4394 147.932 78.3029C148.167 78.1664 148.374 77.984 148.55 77.7554L149.131 78.2108C149.01 78.3916 148.855 78.564 148.669 78.7277C148.482 78.8914 148.252 79.0245 147.979 79.1268C147.709 79.2291 147.389 79.2803 147.019 79.2803Z" fill="black"></path>
<path d="M35.4331 27.3628V65.2053H27.7559V48.9039H23.6221V43.082H27.7559V27.3628H35.4331Z" fill="#B87A2A"></path>
<path d="M11.811 27.3628V65.2053H19.4882V48.9039H24.8032V43.082H19.4882V27.3628H11.811Z" fill="#B87A2A"></path>
<path d="M2.36218 65.2053V22.8725L23.622 2.32861L44.8819 22.8725V65.2053" stroke="black" stroke-width="2.5"></path>
<path d="M2.36218 84.418H150" stroke="black"></path>
</g>
<defs>
<clipPath id="clip0_2027_9421">
<rect width="150" height="85" fill="white"></rect>
</clipPath>
</defs>
</svg></svg></g></g></svg></g><g id="dark-icon"><svg xmlns="http://www.w3.org/2000/svg" version="1.1" xmlns:xlink="http://www.w3.org/1999/xlink" xmlns:svgjs="http://svgjs.dev/svgjs" width="1000" height="1000"><g clip-path="url(#SvgjsClipPath1053)"><rect width="1000" height="1000" fill="#ffffff"></rect><g transform="matrix(5.333333333333333,0,0,5.333333333333333,100,273.33333333333337)"><svg xmlns="http://www.w3.org/2000/svg" version="1.1" xmlns:xlink="http://www.w3.org/1999/xlink" xmlns:svgjs="http://svgjs.dev/svgjs" width="150" height="85"><svg width="150" height="85" viewBox="0 0 150 85" fill="none" xmlns="http://www.w3.org/2000/svg">
<g clip-path="url(#clip0_2027_9421)">
<path d="M67.332 31.5109V34.2262H56.6329V31.5109H67.332ZM57.4911 23.2147V43.082H54.017V23.2147H57.4911ZM70.0033 23.2147V43.082H66.543V23.2147H70.0033ZM82.8202 39.6024V28.3179H86.1696V43.082H83.014L82.8202 39.6024ZM83.2907 36.5323L84.4119 36.505C84.4119 37.4965 84.3011 38.4108 84.0797 39.2476C83.8582 40.0755 83.5168 40.7987 83.0554 41.4172C82.5941 42.0268 82.0035 42.5043 81.2838 42.85C80.564 43.1865 79.7013 43.3549 78.6955 43.3549C77.9665 43.3549 77.2976 43.2502 76.6886 43.041C76.0796 42.8318 75.5537 42.5088 75.1107 42.0722C74.677 41.6356 74.3402 41.067 74.1003 40.3666C73.8604 39.6661 73.7404 38.8293 73.7404 37.8558V28.3179H77.0761V37.8832C77.0761 38.4199 77.1407 38.8701 77.2699 39.234C77.399 39.5888 77.5744 39.8754 77.7959 40.0937C78.0173 40.312 78.2756 40.4666 78.5709 40.5576C78.8662 40.6486 79.18 40.694 79.5121 40.694C80.4626 40.694 81.21 40.5122 81.7544 40.1483C82.308 39.7753 82.7001 39.275 82.9308 38.6473C83.1708 38.0196 83.2907 37.3146 83.2907 36.5323ZM99.1803 28.3179H102.211V42.6726C102.211 44.0008 101.925 45.1287 101.353 46.0566C100.781 46.9845 99.983 47.6894 98.9589 48.1716C97.9346 48.6628 96.7489 48.9084 95.4016 48.9084C94.8296 48.9084 94.1929 48.8266 93.4915 48.6628C92.7995 48.499 92.1259 48.2353 91.4708 47.8714C90.8248 47.5166 90.2851 47.0481 89.8514 46.4659L91.4154 44.5283C91.9507 45.156 92.5412 45.6154 93.187 45.9065C93.833 46.1976 94.5112 46.3432 95.2217 46.3432C95.9876 46.3432 96.6381 46.2022 97.1733 45.9201C97.7178 45.6472 98.1375 45.2425 98.4328 44.7057C98.7281 44.169 98.8757 43.5141 98.8757 42.7408V31.661L99.1803 28.3179ZM89.0071 35.8637V35.5772C89.0071 34.4583 89.1455 33.4395 89.4223 32.5206C89.6991 31.5927 90.0959 30.7968 90.6127 30.1327C91.1293 29.4596 91.7568 28.9456 92.495 28.5908C93.2332 28.227 94.0683 28.045 95.0003 28.045C95.9691 28.045 96.795 28.2179 97.4777 28.5635C98.1699 28.9092 98.7466 29.405 99.2079 30.0509C99.6693 30.6877 100.029 31.4517 100.288 32.3432C100.555 33.2257 100.754 34.2081 100.883 35.2906V36.2049C100.763 37.26 100.56 38.2243 100.274 39.0975C99.9876 39.9708 99.6093 40.7259 99.1387 41.3626C98.6682 41.9994 98.0868 42.4907 97.3947 42.8364C96.7119 43.182 95.9045 43.3549 94.9726 43.3549C94.0591 43.3549 93.2332 43.1683 92.495 42.7954C91.7661 42.4224 91.1387 41.8994 90.6127 41.2262C90.0959 40.553 89.6991 39.7616 89.4223 38.852C89.1455 37.9332 89.0071 36.9372 89.0071 35.8637ZM92.3428 35.5772V35.8637C92.3428 36.5368 92.4074 37.1646 92.5366 37.7467C92.6749 38.3289 92.8826 38.8429 93.1594 39.2886C93.4455 39.7253 93.8054 40.071 94.2391 40.3256C94.682 40.5713 95.2033 40.694 95.8031 40.694C96.5873 40.694 97.2287 40.5303 97.727 40.2028C98.2345 39.8754 98.622 39.4342 98.8896 38.8792C99.1664 38.3152 99.3602 37.6876 99.471 36.9962V34.5264C99.4156 33.9897 99.3002 33.4894 99.1249 33.0255C98.9588 32.5615 98.7328 32.1568 98.4467 31.8111C98.1607 31.4563 97.8008 31.1833 97.3671 30.9924C96.9334 30.7922 96.4213 30.6922 95.8307 30.6922C95.2309 30.6922 94.7096 30.8196 94.2667 31.0742C93.8238 31.3289 93.4593 31.6791 93.1732 32.1249C92.8964 32.5707 92.6889 33.0892 92.5504 33.6805C92.412 34.2718 92.3428 34.904 92.3428 35.5772ZM108.966 22.123V43.082H105.644V22.123H108.966ZM108.385 35.1541L107.305 35.1405C107.314 34.1217 107.457 33.1802 107.734 32.3159C108.02 31.4517 108.417 30.7013 108.924 30.0645C109.441 29.4186 110.059 28.9228 110.779 28.5772C111.499 28.2224 112.297 28.045 113.174 28.045C113.912 28.045 114.576 28.1451 115.167 28.3453C115.766 28.5453 116.283 28.8683 116.717 29.314C117.151 29.7507 117.478 30.3238 117.7 31.0333C117.93 31.7338 118.046 32.5889 118.046 33.5986V43.082H114.696V33.5713C114.696 32.8618 114.59 32.2978 114.378 31.8793C114.175 31.4608 113.875 31.1606 113.478 30.9788C113.081 30.7877 112.597 30.6922 112.025 30.6922C111.425 30.6922 110.894 30.8104 110.433 31.047C109.981 31.2835 109.603 31.6064 109.298 32.0158C108.993 32.4252 108.763 32.8981 108.606 33.4348C108.458 33.9716 108.385 34.5447 108.385 35.1541ZM128.026 43.3549C126.918 43.3549 125.916 43.1774 125.022 42.8226C124.136 42.4588 123.379 41.9539 122.752 41.3081C122.133 40.6622 121.658 39.9026 121.326 39.0293C120.993 38.156 120.828 37.2145 120.828 36.2049V35.659C120.828 34.5037 120.998 33.4576 121.339 32.5206C121.681 31.5837 122.157 30.7832 122.765 30.1191C123.374 29.446 124.094 28.932 124.925 28.5772C125.755 28.2224 126.654 28.045 127.624 28.045C128.694 28.045 129.631 28.2224 130.434 28.5772C131.236 28.932 131.901 29.4322 132.426 30.0781C132.961 30.7149 133.358 31.4744 133.617 32.3569C133.884 33.2393 134.018 34.2126 134.018 35.277V36.6824H122.447V34.3218H130.724V34.0625C130.705 33.4712 130.585 32.9163 130.364 32.3978C130.152 31.8793 129.824 31.4608 129.381 31.1425C128.939 30.8241 128.348 30.6648 127.61 30.6648C127.056 30.6648 126.562 30.7832 126.129 31.0196C125.705 31.247 125.349 31.5791 125.063 32.0158C124.778 32.4524 124.555 32.98 124.398 33.5986C124.251 34.2081 124.178 34.8949 124.178 35.659V36.2049C124.178 36.8506 124.265 37.4511 124.44 38.0059C124.625 38.5518 124.892 39.0293 125.243 39.4387C125.594 39.8481 126.018 40.171 126.516 40.4075C127.015 40.6349 127.583 40.7486 128.219 40.7486C129.021 40.7486 129.737 40.5895 130.364 40.271C130.991 39.9527 131.536 39.5024 131.998 38.9202L133.755 40.5986C133.433 41.0624 133.012 41.5082 132.496 41.9357C131.979 42.3542 131.347 42.6954 130.599 42.9591C129.861 43.223 129.003 43.3549 128.026 43.3549ZM145.022 39.0839C145.022 38.7565 144.939 38.4607 144.772 38.197C144.607 37.9241 144.288 37.6785 143.818 37.4602C143.356 37.2419 142.674 37.0417 141.769 36.8597C140.975 36.6869 140.246 36.4822 139.583 36.2457C138.927 36.0002 138.364 35.7045 137.894 35.3588C137.424 35.0131 137.059 34.6038 136.8 34.1308C136.541 33.6577 136.413 33.1119 136.413 32.4933C136.413 31.8929 136.546 31.3244 136.814 30.7877C137.081 30.251 137.465 29.7779 137.963 29.3687C138.461 28.9593 139.065 28.6364 139.776 28.3998C140.496 28.1633 141.299 28.045 142.185 28.045C143.439 28.045 144.514 28.2542 145.409 28.6727C146.314 29.0821 147.006 29.6415 147.485 30.351C147.965 31.0515 148.205 31.843 148.205 32.7253H144.869C144.869 32.3341 144.768 31.9702 144.565 31.6337C144.371 31.288 144.076 31.0106 143.679 30.8013C143.282 30.583 142.785 30.4739 142.185 30.4739C141.612 30.4739 141.137 30.5648 140.759 30.7467C140.389 30.9196 140.113 31.147 139.929 31.429C139.753 31.711 139.665 32.0203 139.665 32.3569C139.665 32.6025 139.711 32.8254 139.803 33.0255C139.905 33.2165 140.072 33.3939 140.302 33.5576C140.532 33.7123 140.846 33.8578 141.243 33.9943C141.65 34.1308 142.156 34.2627 142.766 34.3901C143.91 34.6265 144.893 34.9313 145.714 35.3042C146.544 35.6681 147.181 36.1412 147.624 36.7234C148.066 37.2964 148.289 38.0241 148.289 38.9066C148.289 39.5616 148.146 40.1619 147.86 40.7077C147.582 41.2444 147.176 41.7129 146.641 42.1132C146.106 42.5043 145.465 42.809 144.717 43.0273C143.979 43.2457 143.148 43.3549 142.226 43.3549C140.87 43.3549 139.721 43.1183 138.779 42.6453C137.838 42.1631 137.124 41.5492 136.635 40.8033C136.154 40.0482 135.914 39.2659 135.914 38.4562H139.14C139.176 39.0658 139.346 39.5525 139.651 39.9162C139.965 40.271 140.353 40.5303 140.815 40.694C141.285 40.8487 141.769 40.926 142.267 40.926C142.867 40.926 143.37 40.8487 143.776 40.694C144.182 40.5303 144.491 40.312 144.704 40.0391C144.915 39.7571 145.022 39.4387 145.022 39.0839Z" fill="black"></path>
<path d="M59.7195 58.3785V59.4496H54.2661V58.3785H59.7195ZM54.4738 54.1077V64.0412H53.1381V54.1077H54.4738ZM60.8822 54.1077V64.0412H59.5535V54.1077H60.8822ZM62.7231 60.4321V60.2752C62.7231 59.743 62.8015 59.2496 62.9583 58.7946C63.1152 58.3353 63.3412 57.9373 63.6365 57.6008C63.9318 57.2596 64.2893 56.9958 64.7092 56.8094C65.1291 56.6183 65.5996 56.5228 66.121 56.5228C66.6469 56.5228 67.1198 56.6183 67.5397 56.8094C67.9642 56.9958 68.3241 57.2596 68.6194 57.6008C68.9192 57.9373 69.1475 58.3353 69.3044 58.7946C69.4612 59.2496 69.5398 59.743 69.5398 60.2752V60.4321C69.5398 60.9642 69.4612 61.4577 69.3044 61.9126C69.1475 62.3674 68.9192 62.7654 68.6194 63.1066C68.3241 63.4431 67.9664 63.707 67.5467 63.898C67.1314 64.0844 66.6609 64.1777 66.1348 64.1777C65.6088 64.1777 65.1359 64.0844 64.7162 63.898C64.2963 63.707 63.9364 63.4431 63.6365 63.1066C63.3412 62.7654 63.1152 62.3674 62.9583 61.9126C62.8015 61.4577 62.7231 60.9642 62.7231 60.4321ZM64.0034 60.2752V60.4321C64.0034 60.8005 64.0472 61.1485 64.1348 61.476C64.2225 61.7989 64.3539 62.0854 64.5293 62.3357C64.7092 62.5858 64.933 62.7836 65.2005 62.9291C65.4682 63.0701 65.7796 63.1407 66.1348 63.1407C66.4855 63.1407 66.7923 63.0701 67.0552 62.9291C67.3229 62.7836 67.5443 62.5858 67.7196 62.3357C67.895 62.0854 68.0264 61.7989 68.1141 61.476C68.2063 61.1485 68.2525 60.8005 68.2525 60.4321V60.2752C68.2525 59.9113 68.2063 59.5679 68.1141 59.245C68.0264 58.9175 67.8926 58.6287 67.7127 58.3785C67.5374 58.1238 67.3159 57.9237 67.0484 57.7781C66.7853 57.6326 66.4762 57.5598 66.121 57.5598C65.7703 57.5598 65.4612 57.6326 65.1937 57.7781C64.9307 57.9237 64.7092 58.1238 64.5293 58.3785C64.3539 58.6287 64.2225 58.9175 64.1348 59.245C64.0472 59.5679 64.0034 59.9113 64.0034 60.2752ZM72.4187 58.1261V64.0412H71.1314V56.6593H72.3495L72.4187 58.1261ZM72.1557 60.0705L71.5605 60.0501C71.5651 59.5452 71.632 59.079 71.7612 58.6514C71.8904 58.2193 72.0819 57.844 72.3356 57.5257C72.5894 57.2074 72.9055 56.9617 73.2838 56.7889C73.6621 56.6114 74.1004 56.5228 74.5987 56.5228C74.9492 56.5228 75.2723 56.5728 75.5675 56.6729C75.8628 56.7684 76.1189 56.9208 76.3357 57.13C76.5526 57.3392 76.7209 57.6076 76.8409 57.9351C76.9609 58.2625 77.0208 58.6583 77.0208 59.1222V64.0412H75.7406V59.1836C75.7406 58.797 75.6736 58.4877 75.5398 58.2557C75.4107 58.0237 75.2261 57.8555 74.9862 57.7509C74.7463 57.6417 74.4649 57.5871 74.1418 57.5871C73.7635 57.5871 73.4475 57.6531 73.1938 57.785C72.9401 57.9168 72.737 58.0988 72.5848 58.3308C72.4325 58.5627 72.3218 58.8288 72.2526 59.1289C72.1879 59.4247 72.1557 59.7385 72.1557 60.0705ZM77.007 59.3746L76.1489 59.6338C76.1535 59.2291 76.2203 58.8402 76.3496 58.4672C76.4834 58.0943 76.6748 57.7622 76.9239 57.4711C77.1777 57.18 77.4891 56.9504 77.8582 56.782C78.2273 56.6092 78.6494 56.5228 79.1247 56.5228C79.526 56.5228 79.8813 56.5751 80.1904 56.6797C80.5042 56.7843 80.7671 56.9457 80.9794 57.1642C81.1962 57.3778 81.36 57.6531 81.4707 57.9896C81.5815 58.3262 81.6368 58.7264 81.6368 59.1904V64.0412H80.3496V59.1768C80.3496 58.7629 80.2827 58.4422 80.1489 58.2148C80.0197 57.9828 79.8352 57.8213 79.5952 57.7304C79.36 57.6348 79.0785 57.5871 78.751 57.5871C78.4695 57.5871 78.2204 57.6348 78.0036 57.7304C77.7867 57.8259 77.6045 57.9578 77.4568 58.1261C77.3092 58.2898 77.1962 58.4786 77.1177 58.6923C77.0439 58.9061 77.007 59.1336 77.007 59.3746ZM86.6818 64.1777C86.1605 64.1777 85.6876 64.0913 85.2632 63.9184C84.8433 63.7411 84.4811 63.4932 84.1766 63.1748C83.8767 62.8564 83.6461 62.4789 83.4846 62.0422C83.3231 61.6056 83.2424 61.128 83.2424 60.6095V60.3229C83.2424 59.7225 83.3324 59.1881 83.5122 58.7197C83.6922 58.2466 83.9367 57.8464 84.2458 57.5188C84.5549 57.1914 84.9056 56.9435 85.2978 56.7753C85.69 56.6069 86.0959 56.5228 86.5158 56.5228C87.0509 56.5228 87.5124 56.6138 87.8999 56.7956C88.292 56.9776 88.6127 57.2323 88.8618 57.5598C89.111 57.8827 89.2955 58.2649 89.4155 58.706C89.5354 59.1427 89.5954 59.6202 89.5954 60.1387V60.7051H84.0036V59.6748H88.3151V59.5793C88.2966 59.2518 88.2274 58.9334 88.1075 58.6242C87.9922 58.3148 87.8077 58.0602 87.5538 57.86C87.3001 57.6598 86.9541 57.5598 86.5158 57.5598C86.2251 57.5598 85.9575 57.6212 85.713 57.744C85.4685 57.8623 85.2585 58.0397 85.0832 58.2762C84.9079 58.5128 84.7718 58.8015 84.6749 59.1427C84.5781 59.4837 84.5296 59.8772 84.5296 60.3229V60.6095C84.5296 60.9597 84.5781 61.2895 84.6749 61.5987C84.7764 61.9036 84.9218 62.1718 85.1109 62.4039C85.3047 62.6358 85.5377 62.8177 85.8098 62.9496C86.0867 63.0816 86.4004 63.1475 86.7511 63.1475C87.2032 63.1475 87.5861 63.0565 87.8999 62.8745C88.2136 62.6927 88.4881 62.4493 88.7234 62.1446L89.4985 62.7518C89.3371 62.9928 89.1317 63.2226 88.8826 63.4409C88.6335 63.6592 88.3266 63.8365 87.9622 63.973C87.6023 64.1095 87.1755 64.1777 86.6818 64.1777ZM100.17 61.5306C100.17 61.2985 100.133 61.094 100.059 60.9165C99.99 60.7346 99.8654 60.5708 99.6855 60.4253C99.5103 60.2797 99.2657 60.141 98.952 60.0091C98.6429 59.8772 98.2506 59.743 97.7755 59.6066C97.2772 59.461 96.8274 59.2995 96.4259 59.1222C96.0246 58.9402 95.6809 58.7333 95.3948 58.5013C95.1088 58.2694 94.8896 58.0033 94.7373 57.703C94.5851 57.4029 94.509 57.0595 94.509 56.6729C94.509 56.2862 94.5897 55.9292 94.7513 55.6018C94.9127 55.2743 95.1434 54.99 95.4433 54.7489C95.7477 54.5033 96.1099 54.3122 96.5298 54.1758C96.9496 54.0394 97.4179 53.9712 97.9347 53.9712C98.6913 53.9712 99.3326 54.1144 99.8586 54.401C100.389 54.683 100.793 55.0536 101.07 55.5131C101.346 55.9679 101.485 56.4546 101.485 56.9731H100.156C100.156 56.6001 100.075 56.2704 99.914 55.9838C99.7524 55.6927 99.5079 55.4653 99.1804 55.3015C98.8527 55.1332 98.4376 55.0491 97.9347 55.0491C97.4594 55.0491 97.0673 55.1196 96.7582 55.2606C96.4491 55.4016 96.2183 55.5926 96.0661 55.8337C95.9184 56.0748 95.8446 56.3499 95.8446 56.6593C95.8446 56.8684 95.8884 57.0595 95.9762 57.2323C96.0684 57.4007 96.2091 57.5575 96.3983 57.703C96.592 57.8486 96.8366 57.9828 97.1319 58.1056C97.4318 58.2284 97.7893 58.3467 98.2046 58.4604C98.7767 58.6196 99.2703 58.797 99.6855 58.9926C100.101 59.1881 100.442 59.4087 100.71 59.6543C100.982 59.8955 101.183 60.1706 101.312 60.4799C101.446 60.7846 101.513 61.1303 101.513 61.5169C101.513 61.9217 101.43 62.2878 101.263 62.6153C101.097 62.9428 100.86 63.2226 100.551 63.4545C100.241 63.6865 99.87 63.8661 99.4364 63.9935C99.0073 64.1163 98.5275 64.1777 97.9969 64.1777C97.531 64.1777 97.0719 64.114 96.6198 63.9866C96.1722 63.8594 95.7639 63.6683 95.3948 63.4135C95.0303 63.1589 94.7373 62.8451 94.5159 62.472C94.299 62.0945 94.1906 61.6579 94.1906 61.1621H95.5193C95.5193 61.5032 95.5863 61.7967 95.7201 62.0422C95.8538 62.2833 96.036 62.4834 96.2668 62.6426C96.5021 62.8018 96.7674 62.9201 97.0627 62.9974C97.3625 63.0702 97.674 63.1066 97.9969 63.1066C98.4629 63.1066 98.8574 63.0429 99.1804 62.9155C99.5033 62.7881 99.7478 62.6063 99.914 62.3698C100.085 62.1332 100.17 61.8535 100.17 61.5306ZM106.129 64.1777C105.607 64.1777 105.134 64.0913 104.71 63.9184C104.29 63.7411 103.928 63.4932 103.623 63.1748C103.323 62.8564 103.093 62.4789 102.931 62.0422C102.77 61.6056 102.689 61.128 102.689 60.6095V60.3229C102.689 59.7225 102.779 59.1881 102.959 58.7197C103.139 58.2466 103.383 57.8464 103.693 57.5188C104.002 57.1914 104.352 56.9435 104.744 56.7753C105.137 56.6069 105.543 56.5228 105.962 56.5228C106.498 56.5228 106.959 56.6138 107.347 56.7956C107.739 56.9776 108.059 57.2323 108.309 57.5598C108.558 57.8827 108.742 58.2649 108.862 58.706C108.982 59.1427 109.042 59.6202 109.042 60.1387V60.7051H103.45V59.6748H107.762V59.5793C107.743 59.2518 107.674 58.9334 107.554 58.6242C107.439 58.3148 107.254 58.0602 107.001 57.86C106.747 57.6598 106.401 57.5598 105.962 57.5598C105.672 57.5598 105.404 57.6212 105.16 57.744C104.915 57.8623 104.705 58.0397 104.53 58.2762C104.355 58.5128 104.218 58.8015 104.122 59.1427C104.025 59.4837 103.976 59.8772 103.976 60.3229V60.6095C103.976 60.9597 104.025 61.2895 104.122 61.5987C104.223 61.9036 104.368 62.1718 104.558 62.4039C104.751 62.6358 104.984 62.8177 105.257 62.9496C105.533 63.0816 105.847 63.1475 106.198 63.1475C106.65 63.1475 107.033 63.0565 107.347 62.8745C107.66 62.6927 107.935 62.4493 108.17 62.1446L108.945 62.7518C108.784 62.9928 108.578 63.2226 108.329 63.4409C108.08 63.6592 107.773 63.8365 107.409 63.973C107.049 64.1095 106.622 64.1777 106.129 64.1777ZM111.817 57.819V64.0412H110.537V56.6593H111.783L111.817 57.819ZM114.156 56.6183L114.149 57.7918C114.043 57.7691 113.942 57.7554 113.845 57.7509C113.753 57.7417 113.647 57.7372 113.527 57.7372C113.231 57.7372 112.971 57.7827 112.745 57.8736C112.518 57.9646 112.327 58.0919 112.17 58.2557C112.013 58.4195 111.889 58.615 111.796 58.8425C111.709 59.0654 111.651 59.3109 111.623 59.5793L111.264 59.784C111.264 59.3382 111.307 58.9198 111.395 58.5286C111.487 58.1375 111.628 57.7918 111.817 57.4916C112.006 57.1869 112.246 56.9504 112.537 56.782C112.832 56.6092 113.183 56.5228 113.589 56.5228C113.681 56.5228 113.787 56.5341 113.907 56.5569C114.027 56.5751 114.11 56.5956 114.156 56.6183ZM117.741 62.9019L119.79 56.6593H121.097L118.406 64.0412H117.547L117.741 62.9019ZM116.032 56.6593L118.142 62.936L118.287 64.0412H117.43L114.717 56.6593H116.032ZM123.72 56.6593V64.0412H122.433V56.6593H123.72ZM122.336 54.7011C122.336 54.4964 122.399 54.3236 122.523 54.1826C122.653 54.0416 122.842 53.9712 123.091 53.9712C123.335 53.9712 123.522 54.0416 123.651 54.1826C123.785 54.3236 123.852 54.4964 123.852 54.7011C123.852 54.8968 123.785 55.065 123.651 55.206C123.522 55.3425 123.335 55.4107 123.091 55.4107C122.842 55.4107 122.653 55.3425 122.523 55.206C122.399 55.065 122.336 54.8968 122.336 54.7011ZM128.772 63.1407C129.077 63.1407 129.358 63.0792 129.617 62.9565C129.875 62.8337 130.088 62.6654 130.253 62.4516C130.42 62.2333 130.514 61.9854 130.537 61.7079H131.756C131.732 62.1446 131.582 62.5516 131.306 62.9291C131.033 63.3021 130.676 63.6046 130.233 63.8365C129.79 64.064 129.304 64.1777 128.772 64.1777C128.21 64.1777 127.719 64.0799 127.298 63.8843C126.883 63.6888 126.537 63.4204 126.26 63.0792C125.988 62.7382 125.783 62.347 125.645 61.9058C125.511 61.46 125.444 60.9893 125.444 60.4935V60.2069C125.444 59.7111 125.511 59.2427 125.645 58.8015C125.783 58.3558 125.988 57.9624 126.26 57.6212C126.537 57.2801 126.883 57.0117 127.298 56.8161C127.719 56.6206 128.21 56.5228 128.772 56.5228C129.358 56.5228 129.87 56.641 130.309 56.8776C130.747 57.1096 131.091 57.4279 131.34 57.8328C131.594 58.233 131.732 58.6878 131.756 59.1972H130.537C130.514 58.8925 130.427 58.6173 130.274 58.3717C130.127 58.1261 129.924 57.9306 129.665 57.785C129.411 57.6348 129.113 57.5598 128.772 57.5598C128.38 57.5598 128.05 57.6371 127.782 57.7918C127.52 57.9419 127.31 58.1466 127.153 58.4059C127 58.6605 126.891 58.9447 126.821 59.2587C126.756 59.5679 126.724 59.884 126.724 60.2069V60.4935C126.724 60.8165 126.756 61.1348 126.821 61.4486C126.886 61.7625 126.993 62.0468 127.146 62.3015C127.303 62.5562 127.513 62.7609 127.776 62.9155C128.043 63.0656 128.375 63.1407 128.772 63.1407ZM136.302 64.1777C135.781 64.1777 135.308 64.0913 134.883 63.9184C134.464 63.7411 134.101 63.4932 133.796 63.1748C133.496 62.8564 133.266 62.4789 133.104 62.0422C132.944 61.6056 132.862 61.128 132.862 60.6095V60.3229C132.862 59.7225 132.952 59.1881 133.133 58.7197C133.312 58.2466 133.557 57.8464 133.866 57.5188C134.176 57.1914 134.525 56.9435 134.917 56.7753C135.309 56.6069 135.716 56.5228 136.136 56.5228C136.671 56.5228 137.132 56.6138 137.521 56.7956C137.913 56.9776 138.233 57.2323 138.482 57.5598C138.731 57.8827 138.915 58.2649 139.036 58.706C139.155 59.1427 139.215 59.6202 139.215 60.1387V60.7051H133.624V59.6748H137.935V59.5793C137.917 59.2518 137.848 58.9334 137.727 58.6242C137.613 58.3148 137.427 58.0602 137.174 57.86C136.921 57.6598 136.574 57.5598 136.136 57.5598C135.846 57.5598 135.578 57.6212 135.333 57.744C135.089 57.8623 134.878 58.0397 134.704 58.2762C134.528 58.5128 134.392 58.8015 134.295 59.1427C134.198 59.4837 134.15 59.8772 134.15 60.3229V60.6095C134.15 60.9597 134.198 61.2895 134.295 61.5987C134.396 61.9036 134.542 62.1718 134.731 62.4039C134.924 62.6358 135.158 62.8177 135.43 62.9496C135.706 63.0816 136.02 63.1475 136.371 63.1475C136.824 63.1475 137.206 63.0565 137.521 62.8745C137.833 62.6927 138.109 62.4493 138.344 62.1446L139.119 62.7518C138.957 62.9928 138.752 63.2226 138.503 63.4409C138.254 63.6592 137.947 63.8365 137.582 63.973C137.223 64.1095 136.795 64.1777 136.302 64.1777ZM145.07 62.0832C145.07 61.9012 145.029 61.733 144.946 61.5783C144.867 61.4191 144.704 61.2758 144.455 61.1484C144.21 61.0165 143.841 60.9029 143.347 60.8074C142.932 60.7209 142.556 60.6185 142.219 60.5004C141.887 60.3821 141.604 60.2388 141.367 60.0705C141.137 59.9022 140.96 59.7044 140.835 59.477C140.711 59.2496 140.648 58.9834 140.648 58.6787C140.648 58.3876 140.713 58.1124 140.842 57.8531C140.975 57.5939 141.163 57.3642 141.403 57.1642C141.647 56.964 141.94 56.807 142.282 56.6934C142.623 56.5796 143.003 56.5228 143.424 56.5228C144.022 56.5228 144.535 56.6274 144.959 56.8366C145.384 57.0459 145.709 57.3255 145.936 57.6758C146.161 58.0215 146.275 58.4059 146.275 58.8288H144.995C144.995 58.6242 144.932 58.4262 144.808 58.2353C144.687 58.0397 144.51 57.8782 144.274 57.7509C144.044 57.6235 143.76 57.5598 143.424 57.5598C143.068 57.5598 142.78 57.6144 142.558 57.7235C142.342 57.8282 142.182 57.9623 142.081 58.1261C141.984 58.2898 141.935 58.4627 141.935 58.6446C141.935 58.781 141.958 58.9039 142.004 59.013C142.055 59.1176 142.143 59.2155 142.267 59.3064C142.393 59.3928 142.567 59.4747 142.793 59.552C143.02 59.6293 143.308 59.7066 143.659 59.784C144.272 59.9204 144.777 60.0842 145.174 60.2752C145.571 60.4662 145.866 60.7005 146.06 60.9779C146.254 61.2553 146.35 61.592 146.35 61.9876C146.35 62.3106 146.282 62.6063 146.143 62.8745C146.009 63.1429 145.813 63.3749 145.554 63.5705C145.3 63.7616 144.997 63.9116 144.641 64.0208C144.291 64.1254 143.896 64.1777 143.458 64.1777C142.798 64.1777 142.24 64.0617 141.783 63.8298C141.326 63.5977 140.98 63.2976 140.745 62.9291C140.51 62.5607 140.392 62.1718 140.392 61.7625H141.679C141.698 62.1081 141.8 62.3834 141.984 62.5881C142.168 62.7881 142.395 62.9315 142.662 63.0179C142.93 63.0997 143.195 63.1407 143.458 63.1407C143.809 63.1407 144.102 63.0952 144.337 63.0042C144.576 62.9132 144.758 62.7881 144.883 62.629C145.007 62.4698 145.07 62.2878 145.07 62.0832Z" fill="black"></path>
<path d="M8.17544 74.9309V75.7343H4.0854V74.9309H8.17544ZM4.24112 71.7278V79.1779H3.23938V71.7278H4.24112ZM9.04743 71.7278V79.1779H8.05087V71.7278H9.04743ZM13.0129 79.2803C12.6218 79.2803 12.2672 79.2154 11.9489 79.0858C11.634 78.9528 11.3623 78.7669 11.134 78.5281C10.909 78.2893 10.736 78.0062 10.6149 77.6787C10.4938 77.3513 10.4333 76.993 10.4333 76.6042V76.3893C10.4333 75.939 10.5007 75.5381 10.6357 75.1868C10.7706 74.832 10.954 74.5318 11.1859 74.2861C11.4177 74.0406 11.6807 73.8546 11.9748 73.7284C12.2689 73.6022 12.5734 73.5391 12.8883 73.5391C13.2898 73.5391 13.6357 73.6073 13.9264 73.7438C14.2205 73.8802 14.4611 74.0713 14.6479 74.3169C14.8348 74.5591 14.9731 74.8456 15.0631 75.1765C15.1531 75.504 15.1981 75.8621 15.1981 76.251V76.6758H11.0042V75.9031H14.2378V75.8315C14.224 75.5858 14.172 75.3471 14.0822 75.1151C13.9956 74.8831 13.8572 74.6922 13.6669 74.5421C13.4766 74.3919 13.217 74.3169 12.8883 74.3169C12.6703 74.3169 12.4696 74.3629 12.2862 74.455C12.1029 74.5437 11.9454 74.6768 11.8139 74.8541C11.6824 75.0316 11.5803 75.2482 11.5077 75.504C11.435 75.7599 11.3987 76.055 11.3987 76.3893V76.6042C11.3987 76.8668 11.435 77.1141 11.5077 77.3461C11.5838 77.5746 11.6928 77.7759 11.8346 77.9499C11.98 78.1238 12.1547 78.2603 12.3589 78.3593C12.5664 78.4581 12.8018 78.5076 13.0648 78.5076C13.4039 78.5076 13.6911 78.4394 13.9264 78.3029C14.1616 78.1664 14.3676 77.984 14.5441 77.7554L15.1254 78.2108C15.0042 78.3916 14.8502 78.564 14.6634 78.7277C14.4765 78.8914 14.2464 79.0245 13.9731 79.1268C13.7033 79.2291 13.3832 79.2803 13.0129 79.2803ZM17.3624 71.3184V79.1779H16.397V71.3184H17.3624ZM19.8642 74.7058V81.3066H18.8988V73.6414H19.7811L19.8642 74.7058ZM23.648 76.3636V76.4711C23.648 76.8736 23.5996 77.2472 23.5026 77.5917C23.4058 77.9329 23.2639 78.2296 23.0771 78.482C22.8937 78.7344 22.667 78.9306 22.3971 79.0705C22.1272 79.2103 21.8176 79.2803 21.4681 79.2803C21.1116 79.2803 20.7967 79.2223 20.5234 79.1063C20.25 78.9904 20.0181 78.8214 19.8279 78.5997C19.6376 78.378 19.4853 78.112 19.3711 77.8015C19.2603 77.4911 19.1843 77.1414 19.1427 76.7525V76.1794C19.1843 75.77 19.2621 75.4034 19.3763 75.0793C19.4905 74.7553 19.641 74.479 19.8279 74.2504C20.0181 74.0183 20.2483 73.8427 20.5182 73.7233C20.7881 73.6006 21.0996 73.5391 21.4525 73.5391C21.8054 73.5391 22.1186 73.6073 22.3919 73.7438C22.6652 73.8769 22.8954 74.0678 23.0823 74.3169C23.2691 74.5659 23.4092 74.8644 23.5026 75.2123C23.5996 75.5568 23.648 75.9406 23.648 76.3636ZM22.6826 76.4711V76.3636C22.6826 76.0873 22.6532 75.828 22.5944 75.5858C22.5355 75.3403 22.4438 75.1253 22.3193 74.9411C22.1981 74.7535 22.0424 74.6068 21.8522 74.5011C21.6618 74.3919 21.4351 74.3374 21.1722 74.3374C20.93 74.3374 20.7189 74.3782 20.5389 74.4601C20.3624 74.5421 20.212 74.6529 20.0874 74.7928C19.9629 74.9292 19.8607 75.0861 19.7811 75.2635C19.705 75.4375 19.648 75.6183 19.6098 75.8059V77.1312C19.679 77.37 19.776 77.5951 19.9005 77.8067C20.0251 78.0147 20.1912 78.1836 20.3988 78.3132C20.6064 78.4394 20.8677 78.5025 21.1826 78.5025C21.4421 78.5025 21.6653 78.4496 21.8522 78.3439C22.0424 78.2347 22.1981 78.0863 22.3193 77.8988C22.4438 77.7111 22.5355 77.4962 22.5944 77.254C22.6532 77.0084 22.6826 76.7474 22.6826 76.4711ZM25.9162 73.6414V79.1779H24.9508V73.6414H25.9162ZM24.8781 72.1729C24.8781 72.0194 24.9248 71.8897 25.0182 71.784C25.1152 71.6783 25.257 71.6254 25.4439 71.6254C25.6273 71.6254 25.7674 71.6783 25.8642 71.784C25.9646 71.8897 26.0148 72.0194 26.0148 72.1729C26.0148 72.3196 25.9646 72.4458 25.8642 72.5516C25.7674 72.6539 25.6273 72.705 25.4439 72.705C25.257 72.705 25.1152 72.6539 25.0182 72.5516C24.9248 72.4458 24.8781 72.3196 24.8781 72.1729ZM28.4179 74.8235V79.1779H27.4578V73.6414H28.3661L28.4179 74.8235ZM28.1896 76.1999L27.7899 76.1846C27.7933 75.8059 27.8505 75.4562 27.9612 75.1356C28.072 74.8115 28.2276 74.5301 28.4283 74.2913C28.6291 74.0524 28.8678 73.8682 29.1446 73.7386C29.4249 73.6057 29.7346 73.5391 30.0737 73.5391C30.3505 73.5391 30.5996 73.5767 30.8211 73.6517C31.0426 73.7233 31.2312 73.8393 31.3868 73.9996C31.5461 74.1599 31.6671 74.368 31.7501 74.6239C31.8332 74.8764 31.8748 75.185 31.8748 75.5501V79.1779H30.9093V75.5398C30.9093 75.2499 30.8661 75.0178 30.7796 74.8439C30.6931 74.6665 30.5668 74.5386 30.4007 74.4601C30.2346 74.3782 30.0305 74.3374 29.7882 74.3374C29.5495 74.3374 29.3315 74.3869 29.1342 74.4857C28.9404 74.5847 28.7726 74.7212 28.6307 74.8951C28.4923 75.0691 28.3833 75.2686 28.3038 75.4937C28.2276 75.7155 28.1896 75.9509 28.1896 76.1999ZM36.9717 73.6414H37.8437V79.0602C37.8437 79.5481 37.7434 79.9643 37.5426 80.3088C37.342 80.6533 37.0617 80.9143 36.7018 81.0917C36.3455 81.2724 35.9336 81.3629 35.4665 81.3629C35.2728 81.3629 35.0444 81.3322 34.7813 81.2708C34.5218 81.2128 34.2658 81.1121 34.0133 80.9689C33.764 80.829 33.5548 80.6397 33.3851 80.4009L33.8887 79.838C34.1239 80.1177 34.3696 80.3122 34.6257 80.4214C34.8852 80.5305 35.1412 80.5851 35.3939 80.5851C35.6983 80.5851 35.9614 80.5289 36.1828 80.4163C36.4043 80.3037 36.5755 80.1365 36.6966 79.9148C36.8212 79.6964 36.8835 79.427 36.8835 79.1063V74.8593L36.9717 73.6414ZM33.1049 76.4711V76.3636C33.1049 75.9406 33.1551 75.5568 33.2553 75.2123C33.3592 74.8644 33.5063 74.5659 33.6966 74.3169C33.8903 74.0678 34.1239 73.8769 34.3972 73.7438C34.6707 73.6073 34.9786 73.5391 35.3212 73.5391C35.6741 73.5391 35.982 73.6006 36.2451 73.7233C36.5115 73.8427 36.7364 74.0183 36.9198 74.2504C37.1067 74.479 37.2537 74.7553 37.361 75.0793C37.4682 75.4034 37.5426 75.77 37.5842 76.1794V76.6502C37.5462 77.0561 37.4718 77.4211 37.361 77.7452C37.2537 78.0693 37.1067 78.3456 36.9198 78.5741C36.7364 78.8027 36.5115 78.9784 36.2451 79.1012C35.9786 79.2206 35.6672 79.2803 35.3108 79.2803C34.9751 79.2803 34.6707 79.2103 34.3972 79.0705C34.1274 78.9306 33.8955 78.7344 33.7018 78.482C33.508 78.2296 33.3592 77.9329 33.2553 77.5917C33.1551 77.2472 33.1049 76.8736 33.1049 76.4711ZM34.0651 76.3636V76.4711C34.0651 76.7474 34.0927 77.0067 34.1481 77.2489C34.207 77.4911 34.2952 77.7043 34.4128 77.8885C34.534 78.0727 34.6879 78.2177 34.8748 78.3234C35.0616 78.4258 35.2848 78.4769 35.5443 78.4769C35.8627 78.4769 36.1257 78.4104 36.3333 78.2774C36.5409 78.1443 36.7052 77.9686 36.8264 77.7503C36.951 77.532 37.0479 77.2949 37.1171 77.0391V75.8059C37.079 75.6183 37.0202 75.4375 36.9406 75.2635C36.8644 75.0861 36.7642 74.9292 36.6396 74.7928C36.5184 74.6529 36.3679 74.5421 36.188 74.4601C36.008 74.3782 35.797 74.3374 35.5547 74.3374C35.2918 74.3374 35.0651 74.3919 34.8748 74.5011C34.6879 74.6068 34.534 74.7535 34.4128 74.9411C34.2952 75.1253 34.207 75.3403 34.1481 75.5858C34.0927 75.828 34.0651 76.0873 34.0651 76.3636ZM42.432 71.7278L44.394 75.4682L46.3611 71.7278H47.4978L44.8923 76.3944V79.1779H43.8905V76.3944L41.285 71.7278H42.432ZM47.7262 76.4711V76.3534C47.7262 75.9542 47.785 75.5842 47.9027 75.243C48.0203 74.8985 48.1899 74.6001 48.4114 74.3476C48.6328 74.0917 48.9009 73.8939 49.2158 73.754C49.5307 73.6108 49.8837 73.5391 50.2747 73.5391C50.6692 73.5391 51.0238 73.6108 51.3387 73.754C51.657 73.8939 51.9269 74.0917 52.1484 74.3476C52.3734 74.6001 52.5446 74.8985 52.6623 75.243C52.7799 75.5842 52.8387 75.9542 52.8387 76.3534V76.4711C52.8387 76.8703 52.7799 77.2403 52.6623 77.5815C52.5446 77.9226 52.3734 78.2211 52.1484 78.4769C51.9269 78.7293 51.6588 78.9273 51.3439 79.0705C51.0325 79.2103 50.6796 79.2803 50.2851 79.2803C49.8906 79.2803 49.5359 79.2103 49.221 79.0705C48.9061 78.9273 48.6362 78.7293 48.4114 78.4769C48.1899 78.2211 48.0203 77.9226 47.9027 77.5815C47.785 77.2403 47.7262 76.8703 47.7262 76.4711ZM48.6864 76.3534V76.4711C48.6864 76.7474 48.7193 77.0084 48.7851 77.254C48.8509 77.4962 48.9494 77.7111 49.0809 77.8988C49.2158 78.0863 49.3837 78.2347 49.5843 78.3439C49.7851 78.4496 50.0186 78.5025 50.2851 78.5025C50.5481 78.5025 50.7782 78.4496 50.9754 78.3439C51.1761 78.2347 51.3422 78.0863 51.4737 77.8988C51.6052 77.7111 51.7038 77.4962 51.7695 77.254C51.8387 77.0084 51.8733 76.7474 51.8733 76.4711V76.3534C51.8733 76.0805 51.8387 75.823 51.7695 75.5807C51.7038 75.3351 51.6034 75.1186 51.4685 74.9309C51.337 74.7399 51.1709 74.5898 50.9702 74.4806C50.773 74.3715 50.5411 74.3169 50.2747 74.3169C50.0118 74.3169 49.7799 74.3715 49.5792 74.4806C49.382 74.5898 49.2158 74.7399 49.0809 74.9309C48.9494 75.1186 48.8509 75.3351 48.7851 75.5807C48.7193 75.823 48.6864 76.0805 48.6864 76.3534ZM57.4789 77.8988V73.6414H58.4444V79.1779H57.5257L57.4789 77.8988ZM57.6606 76.732L58.0603 76.7218C58.0603 77.0902 58.0205 77.4314 57.9409 77.7452C57.8648 78.0556 57.7402 78.3252 57.5672 78.5537C57.3942 78.7823 57.1676 78.9614 56.8873 79.091C56.6069 79.2172 56.2662 79.2803 55.8647 79.2803C55.5914 79.2803 55.3405 79.2411 55.1121 79.1626C54.8872 79.0841 54.6934 78.963 54.5308 78.7993C54.3681 78.6356 54.2419 78.4224 54.1519 78.1597C54.0654 77.897 54.0222 77.5815 54.0222 77.2131V73.6414H54.9824V77.2233C54.9824 77.4724 55.0101 77.6787 55.0655 77.8424C55.1243 78.0027 55.2021 78.1307 55.299 78.2262C55.3994 78.3183 55.51 78.3831 55.6312 78.4206C55.7557 78.4581 55.8837 78.4769 56.0153 78.4769C56.4236 78.4769 56.7471 78.4001 56.9858 78.2467C57.2246 78.0897 57.3959 77.88 57.4997 77.6173C57.607 77.3513 57.6606 77.0561 57.6606 76.732ZM65.4877 72.3878L62.9859 79.1779H61.9635L64.8442 71.7278H65.5033L65.4877 72.3878ZM67.5847 79.1779L65.0777 72.3878L65.0621 71.7278H65.7213L68.6124 79.1779H67.5847ZM67.4549 76.4199V77.2284H63.2092V76.4199H67.4549ZM70.4394 74.5113V79.1779H69.4792V73.6414H70.4134L70.4394 74.5113ZM72.1937 73.6108L72.1885 74.4908C72.1089 74.4738 72.0328 74.4636 71.9602 74.4601C71.891 74.4533 71.8114 74.45 71.7214 74.45C71.4999 74.45 71.3044 74.4841 71.1348 74.5522C70.9653 74.6204 70.8217 74.716 70.7041 74.8388C70.5864 74.9616 70.493 75.1083 70.4238 75.2789C70.358 75.446 70.3148 75.6302 70.294 75.8315L70.0241 75.985C70.0241 75.6507 70.057 75.3369 70.1227 75.0435C70.192 74.7502 70.2975 74.4908 70.4394 74.2656C70.5812 74.0372 70.7611 73.8597 70.9792 73.7335C71.2006 73.6039 71.4636 73.5391 71.7681 73.5391C71.8373 73.5391 71.9168 73.5477 72.0068 73.5647C72.0968 73.5783 72.1591 73.5937 72.1937 73.6108ZM72.7232 76.4711V76.3534C72.7232 75.9542 72.782 75.5842 72.8996 75.243C73.0173 74.8985 73.1868 74.6001 73.4082 74.3476C73.6297 74.0917 73.8979 73.8939 74.2128 73.754C74.5277 73.6108 74.8806 73.5391 75.2716 73.5391C75.6661 73.5391 76.0208 73.6108 76.3357 73.754C76.654 73.8939 76.9239 74.0917 77.1453 74.3476C77.3702 74.6001 77.5416 74.8985 77.6592 75.243C77.7769 75.5842 77.8357 75.9542 77.8357 76.3534V76.4711C77.8357 76.8703 77.7769 77.2403 77.6592 77.5815C77.5416 77.9226 77.3702 78.2211 77.1453 78.4769C76.9239 78.7293 76.6558 78.9273 76.3409 79.0705C76.0294 79.2103 75.6765 79.2803 75.282 79.2803C74.8876 79.2803 74.5329 79.2103 74.218 79.0705C73.9031 78.9273 73.6332 78.7293 73.4082 78.4769C73.1868 78.2211 73.0173 77.9226 72.8996 77.5815C72.782 77.2403 72.7232 76.8703 72.7232 76.4711ZM73.6834 76.3534V76.4711C73.6834 76.7474 73.7162 77.0084 73.782 77.254C73.8477 77.4962 73.9463 77.7111 74.0778 77.8988C74.2128 78.0863 74.3806 78.2347 74.5813 78.3439C74.782 78.4496 75.0156 78.5025 75.282 78.5025C75.545 78.5025 75.775 78.4496 75.9723 78.3439C76.1731 78.2347 76.3391 78.0863 76.4706 77.8988C76.602 77.7111 76.7007 77.4962 76.7664 77.254C76.8357 77.0084 76.8703 76.7474 76.8703 76.4711V76.3534C76.8703 76.0805 76.8357 75.823 76.7664 75.5807C76.7007 75.3351 76.6004 75.1186 76.4654 74.9309C76.3339 74.7399 76.1679 74.5898 75.9671 74.4806C75.77 74.3715 75.5381 74.3169 75.2716 74.3169C75.0086 74.3169 74.7768 74.3715 74.5761 74.4806C74.3789 74.5898 74.2128 74.7399 74.0778 74.9309C73.9463 75.1186 73.8477 75.3351 73.782 75.5807C73.7162 75.823 73.6834 76.0805 73.6834 76.3534ZM82.4759 77.8988V73.6414H83.4413V79.1779H82.5225L82.4759 77.8988ZM82.6575 76.732L83.0572 76.7218C83.0572 77.0902 83.0174 77.4314 82.9378 77.7452C82.8616 78.0556 82.7371 78.3252 82.5641 78.5537C82.3911 78.7823 82.1644 78.9614 81.8842 79.091C81.6039 79.2172 81.263 79.2803 80.8617 79.2803C80.5882 79.2803 80.3374 79.2411 80.1091 79.1626C79.8842 79.0841 79.6904 78.963 79.5277 78.7993C79.3651 78.6356 79.2388 78.4224 79.1488 78.1597C79.0624 77.897 79.019 77.5815 79.019 77.2131V73.6414H79.9793V77.2233C79.9793 77.4724 80.007 77.6787 80.0623 77.8424C80.1211 78.0027 80.1991 78.1307 80.2959 78.2262C80.3962 78.3183 80.507 78.3831 80.6281 78.4206C80.7527 78.4581 80.8807 78.4769 81.0122 78.4769C81.4205 78.4769 81.7441 78.4001 81.9828 78.2467C82.2216 78.0897 82.3929 77.88 82.4967 77.6173C82.6039 77.3513 82.6575 77.0561 82.6575 76.732ZM85.8652 74.8235V79.1779H84.9049V73.6414H85.8133L85.8652 74.8235ZM85.6369 76.1999L85.2372 76.1846C85.2406 75.8059 85.2978 75.4562 85.4084 75.1356C85.5191 74.8115 85.6749 74.5301 85.8756 74.2913C86.0762 74.0524 86.3151 73.8682 86.5919 73.7386C86.8722 73.6057 87.1819 73.5391 87.521 73.5391C87.7977 73.5391 88.0469 73.5767 88.2684 73.6517C88.4898 73.7233 88.6784 73.8393 88.8341 73.9996C88.9933 74.1599 89.1144 74.368 89.1974 74.6239C89.2805 74.8764 89.322 75.185 89.322 75.5501V79.1779H88.3566V75.5398C88.3566 75.2499 88.3134 75.0178 88.2268 74.8439C88.1403 74.6665 88.0141 74.5386 87.8479 74.4601C87.6818 74.3782 87.4777 74.3374 87.2355 74.3374C86.9967 74.3374 86.7788 74.3869 86.5815 74.4857C86.3877 74.5847 86.2199 74.7212 86.078 74.8951C85.9396 75.0691 85.8306 75.2686 85.751 75.4937C85.6749 75.7155 85.6369 75.9509 85.6369 76.1999ZM94.3203 78.1033V71.3184H95.2858V79.1779H94.4034L94.3203 78.1033ZM90.5418 76.4711V76.3636C90.5418 75.9406 90.5936 75.5568 90.6974 75.2123C90.8047 74.8644 90.9553 74.5659 91.1491 74.3169C91.3462 74.0678 91.5798 73.8769 91.8497 73.7438C92.1231 73.6073 92.4276 73.5391 92.7633 73.5391C93.1162 73.5391 93.4241 73.6006 93.6871 73.7233C93.9536 73.8427 94.1785 74.0183 94.3619 74.2504C94.5488 74.479 94.6958 74.7553 94.8031 75.0793C94.9103 75.4034 94.9847 75.77 95.0263 76.1794V76.6502C94.9881 77.0561 94.9138 77.4211 94.8031 77.7452C94.6958 78.0693 94.5488 78.3456 94.3619 78.5741C94.1785 78.8027 93.9536 78.9784 93.6871 79.1012C93.4207 79.2206 93.1092 79.2803 92.7529 79.2803C92.4241 79.2803 92.1231 79.2103 91.8497 79.0705C91.5798 78.9306 91.3462 78.7344 91.1491 78.482C90.9553 78.2296 90.8047 77.9329 90.6974 77.5917C90.5936 77.2472 90.5418 76.8736 90.5418 76.4711ZM91.5072 76.3636V76.4711C91.5072 76.7474 91.5348 77.0067 91.5902 77.2489C91.649 77.4911 91.739 77.7043 91.8601 77.8885C91.9812 78.0727 92.1352 78.2177 92.322 78.3234C92.5089 78.4258 92.7321 78.4769 92.9916 78.4769C93.3099 78.4769 93.5712 78.4104 93.7754 78.2774C93.983 78.1443 94.1491 77.9686 94.2737 77.7503C94.3982 77.532 94.4951 77.2949 94.5644 77.0391V75.8059C94.5228 75.6183 94.4622 75.4375 94.3826 75.2635C94.3065 75.0861 94.2061 74.9292 94.0816 74.7928C93.9605 74.6529 93.81 74.5421 93.63 74.4601C93.4535 74.3782 93.2442 74.3374 93.002 74.3374C92.739 74.3374 92.5123 74.3919 92.322 74.5011C92.1352 74.6068 91.9812 74.7535 91.8601 74.9411C91.739 75.1253 91.649 75.3403 91.5902 75.5858C91.5348 75.828 91.5072 76.0873 91.5072 76.3636ZM102.148 71.7278V79.1779H101.161V71.7278H102.148ZM104.577 71.7278V72.5362H98.7374V71.7278H104.577ZM106.513 71.3184V79.1779H105.552V71.3184H106.513ZM106.284 76.1999L105.885 76.1846C105.888 75.8059 105.945 75.4562 106.056 75.1356C106.167 74.8115 106.322 74.5301 106.523 74.2913C106.724 74.0524 106.962 73.8682 107.239 73.7386C107.52 73.6057 107.829 73.5391 108.168 73.5391C108.445 73.5391 108.694 73.5767 108.916 73.6517C109.137 73.7233 109.326 73.8393 109.481 73.9996C109.641 74.1599 109.762 74.368 109.845 74.6239C109.928 74.8764 109.969 75.185 109.969 75.5501V79.1779H109.004V75.5398C109.004 75.2499 108.961 75.0178 108.874 74.8439C108.788 74.6665 108.661 74.5386 108.495 74.4601C108.329 74.3782 108.125 74.3374 107.883 74.3374C107.644 74.3374 107.426 74.3869 107.229 74.4857C107.035 74.5847 106.867 74.7212 106.725 74.8951C106.587 75.0691 106.478 75.2686 106.398 75.4937C106.322 75.7155 106.284 75.9509 106.284 76.1999ZM113.738 79.2803C113.347 79.2803 112.992 79.2154 112.674 79.0858C112.359 78.9528 112.087 78.7669 111.859 78.5281C111.634 78.2893 111.461 78.0062 111.34 77.6787C111.218 77.3513 111.158 76.993 111.158 76.6042V76.3893C111.158 75.939 111.225 75.5381 111.36 75.1868C111.495 74.832 111.679 74.5318 111.911 74.2861C112.142 74.0406 112.405 73.8546 112.699 73.7284C112.994 73.6022 113.298 73.5391 113.613 73.5391C114.014 73.5391 114.36 73.6073 114.651 73.7438C114.945 73.8802 115.186 74.0713 115.373 74.3169C115.559 74.5591 115.698 74.8456 115.788 75.1765C115.878 75.504 115.923 75.8621 115.923 76.251V76.6758H111.729V75.9031H114.963V75.8315C114.949 75.5858 114.897 75.3471 114.807 75.1151C114.72 74.8831 114.582 74.6922 114.392 74.5421C114.201 74.3919 113.942 74.3169 113.613 74.3169C113.395 74.3169 113.194 74.3629 113.011 74.455C112.828 74.5437 112.67 74.6768 112.539 74.8541C112.407 75.0316 112.305 75.2482 112.232 75.504C112.16 75.7599 112.123 76.055 112.123 76.3893V76.6042C112.123 76.8668 112.16 77.1141 112.232 77.3461C112.309 77.5746 112.418 77.7759 112.559 77.9499C112.705 78.1238 112.879 78.2603 113.084 78.3593C113.291 78.4581 113.526 78.5076 113.79 78.5076C114.129 78.5076 114.416 78.4394 114.651 78.3029C114.886 78.1664 115.092 77.984 115.269 77.7554L115.85 78.2108C115.729 78.3916 115.575 78.564 115.388 78.7277C115.201 78.8914 114.971 79.0245 114.698 79.1268C114.428 79.2291 114.108 79.2803 113.738 79.2803ZM124.762 74.9309V75.7343H120.672V74.9309H124.762ZM120.828 71.7278V79.1779H119.826V71.7278H120.828ZM125.634 71.7278V79.1779H124.637V71.7278H125.634ZM127.015 76.4711V76.3534C127.015 75.9542 127.074 75.5842 127.191 75.243C127.309 74.8985 127.479 74.6001 127.7 74.3476C127.922 74.0917 128.19 73.8939 128.504 73.754C128.819 73.6108 129.172 73.5391 129.563 73.5391C129.958 73.5391 130.312 73.6108 130.628 73.754C130.945 73.8939 131.216 74.0917 131.437 74.3476C131.662 74.6001 131.833 74.8985 131.95 75.243C132.068 75.5842 132.128 75.9542 132.128 76.3534V76.4711C132.128 76.8703 132.068 77.2403 131.95 77.5815C131.833 77.9226 131.662 78.2211 131.437 78.4769C131.216 78.7293 130.948 78.9273 130.632 79.0705C130.32 79.2103 129.968 79.2803 129.574 79.2803C129.18 79.2803 128.824 79.2103 128.51 79.0705C128.194 78.9273 127.925 78.7293 127.7 78.4769C127.479 78.2211 127.309 77.9226 127.191 77.5815C127.074 77.2403 127.015 76.8703 127.015 76.4711ZM127.975 76.3534V76.4711C127.975 76.7474 128.008 77.0084 128.074 77.254C128.139 77.4962 128.238 77.7111 128.369 77.8988C128.504 78.0863 128.672 78.2347 128.872 78.3439C129.073 78.4496 129.307 78.5025 129.574 78.5025C129.836 78.5025 130.067 78.4496 130.264 78.3439C130.465 78.2347 130.631 78.0863 130.762 77.8988C130.893 77.7111 130.993 77.4962 131.057 77.254C131.127 77.0084 131.161 76.7474 131.161 76.4711V76.3534C131.161 76.0805 131.127 75.823 131.057 75.5807C130.993 75.3351 130.892 75.1186 130.757 74.9309C130.625 74.7399 130.46 74.5898 130.259 74.4806C130.062 74.3715 129.829 74.3169 129.563 74.3169C129.3 74.3169 129.068 74.3715 128.868 74.4806C128.67 74.5898 128.504 74.7399 128.369 74.9309C128.238 75.1186 128.139 75.3351 128.074 75.5807C128.008 75.823 127.975 76.0805 127.975 76.3534ZM136.767 77.8988V73.6414H137.733V79.1779H136.814L136.767 77.8988ZM136.949 76.732L137.349 76.7218C137.349 77.0902 137.309 77.4314 137.23 77.7452C137.153 78.0556 137.029 78.3252 136.855 78.5537C136.683 78.7823 136.456 78.9614 136.175 79.091C135.895 79.2172 135.555 79.2803 135.154 79.2803C134.88 79.2803 134.629 79.2411 134.4 79.1626C134.176 79.0841 133.982 78.963 133.819 78.7993C133.657 78.6356 133.531 78.4224 133.44 78.1597C133.354 77.897 133.311 77.5815 133.311 77.2131V73.6414H134.271V77.2233C134.271 77.4724 134.298 77.6787 134.354 77.8424C134.413 78.0027 134.491 78.1307 134.588 78.2262C134.688 78.3183 134.798 78.3831 134.92 78.4206C135.044 78.4581 135.172 78.4769 135.304 78.4769C135.712 78.4769 136.036 78.4001 136.274 78.2467C136.513 78.0897 136.684 77.88 136.788 77.6173C136.896 77.3513 136.949 77.0561 136.949 76.732ZM142.467 77.7094C142.467 77.573 142.435 77.4467 142.372 77.3308C142.315 77.2113 142.192 77.104 142.004 77.0084C141.821 76.9095 141.544 76.8241 141.174 76.7525C140.863 76.6877 140.581 76.6109 140.328 76.5222C140.079 76.4336 139.866 76.3261 139.69 76.1999C139.517 76.0737 139.383 75.9252 139.29 75.7548C139.196 75.5842 139.149 75.3846 139.149 75.156C139.149 74.9377 139.198 74.7314 139.296 74.5369C139.395 74.3425 139.535 74.1702 139.715 74.0201C139.899 73.87 140.119 73.7523 140.375 73.667C140.63 73.5817 140.916 73.5391 141.231 73.5391C141.681 73.5391 142.065 73.6176 142.383 73.7745C142.702 73.9314 142.945 74.1412 143.115 74.4039C143.284 74.6632 143.369 74.9514 143.369 75.2686H142.409C142.409 75.1151 142.363 74.9667 142.27 74.8235C142.179 74.6768 142.046 74.5557 141.869 74.4601C141.697 74.3646 141.484 74.3169 141.231 74.3169C140.965 74.3169 140.748 74.3579 140.582 74.4397C140.42 74.5181 140.301 74.6188 140.224 74.7415C140.152 74.8644 140.115 74.994 140.115 75.1304C140.115 75.2328 140.133 75.3249 140.167 75.4067C140.205 75.4852 140.271 75.5586 140.365 75.6268C140.458 75.6917 140.589 75.753 140.759 75.811C140.928 75.869 141.144 75.927 141.407 75.985C141.868 76.0873 142.247 76.2102 142.545 76.3534C142.841 76.4967 143.063 76.6723 143.209 76.8805C143.354 77.0886 143.427 77.341 143.427 77.6377C143.427 77.88 143.375 78.1017 143.271 78.3029C143.171 78.5042 143.023 78.6782 142.83 78.8249C142.639 78.9681 142.411 79.0807 142.144 79.1626C141.881 79.2411 141.586 79.2803 141.257 79.2803C140.763 79.2803 140.343 79.1933 140.001 79.0194C139.658 78.8454 139.398 78.6202 139.222 78.3439C139.046 78.0676 138.958 77.7759 138.958 77.4689H139.923C139.937 77.7282 140.013 77.9345 140.152 78.0881C140.29 78.2382 140.459 78.3456 140.66 78.4104C140.861 78.4719 141.06 78.5025 141.257 78.5025C141.52 78.5025 141.739 78.4684 141.917 78.4001C142.096 78.3319 142.233 78.2382 142.326 78.1187C142.42 77.9994 142.467 77.8629 142.467 77.7094ZM147.019 79.2803C146.628 79.2803 146.272 79.2154 145.955 79.0858C145.639 78.9528 145.368 78.7669 145.14 78.5281C144.914 78.2893 144.742 78.0062 144.62 77.6787C144.5 77.3513 144.439 76.993 144.439 76.6042V76.3893C144.439 75.939 144.507 75.5381 144.641 75.1868C144.776 74.832 144.959 74.5318 145.192 74.2861C145.423 74.0406 145.687 73.8546 145.981 73.7284C146.275 73.6022 146.58 73.5391 146.894 73.5391C147.295 73.5391 147.641 73.6073 147.932 73.7438C148.226 73.8802 148.467 74.0713 148.654 74.3169C148.84 74.5591 148.978 74.8456 149.068 75.1765C149.159 75.504 149.204 75.8621 149.204 76.251V76.6758H145.01V75.9031H148.244V75.8315C148.23 75.5858 148.178 75.3471 148.088 75.1151C148.002 74.8831 147.862 74.6922 147.672 74.5421C147.482 74.3919 147.222 74.3169 146.894 74.3169C146.676 74.3169 146.476 74.3629 146.291 74.455C146.108 74.5437 145.951 74.6768 145.819 74.8541C145.688 75.0316 145.586 75.2482 145.513 75.504C145.441 75.7599 145.404 76.055 145.404 76.3893V76.6042C145.404 76.8668 145.441 77.1141 145.513 77.3461C145.59 77.5746 145.698 77.7759 145.84 77.9499C145.985 78.1238 146.16 78.2603 146.365 78.3593C146.572 78.4581 146.807 78.5076 147.071 78.5076C147.41 78.5076 147.697 78.4394 147.932 78.3029C148.167 78.1664 148.374 77.984 148.55 77.7554L149.131 78.2108C149.01 78.3916 148.855 78.564 148.669 78.7277C148.482 78.8914 148.252 79.0245 147.979 79.1268C147.709 79.2291 147.389 79.2803 147.019 79.2803Z" fill="black"></path>
<path d="M35.4331 27.3628V65.2053H27.7559V48.9039H23.6221V43.082H27.7559V27.3628H35.4331Z" fill="#B87A2A"></path>
<path d="M11.811 27.3628V65.2053H19.4882V48.9039H24.8032V43.082H19.4882V27.3628H11.811Z" fill="#B87A2A"></path>
<path d="M2.36218 65.2053V22.8725L23.622 2.32861L44.8819 22.8725V65.2053" stroke="black" stroke-width="2.5"></path>
<path d="M2.36218 84.418H150" stroke="black"></path>
</g>
<defs>
<clipPath id="clip0_2027_9421">
<rect width="150" height="85" fill="white"></rect>
</clipPath>
<clipPath id="SvgjsClipPath1053"><rect width="1000" height="1000" x="0" y="0" rx="100" ry="100"></rect></clipPath></defs>
</svg></svg></g></g></svg></g></svg>