<svg width="72" height="35" viewBox="0 0 72 35" fill="none" xmlns="http://www.w3.org/2000/svg">
<path d="M67.8702 16.4825H66.0336V13.4356H66.4601C67.1315 13.4356 67.7753 13.1949 68.25 12.7663C68.7247 12.3378 68.9914 11.7565 68.9914 11.1505C68.9914 10.5444 68.7247 9.96315 68.25 9.5346C67.7753 9.10605 67.1315 8.8653 66.4601 8.8653H52.7666C52.6433 8.85989 52.52 8.87765 52.4046 8.91746C52.2891 8.95726 52.1841 9.01824 52.0962 9.09654C52.0082 9.17484 51.9392 9.26876 51.8934 9.37237C51.8477 9.47598 51.8263 9.58702 51.8305 9.69849V23.7188H50.7055V21.7942C50.7055 21.3034 50.209 20.9258 49.6649 20.9258H47.3305V14.3403C47.3394 14.1557 47.2827 13.9733 47.1688 13.8198L36.5114 0.488293C36.4235 0.372849 36.3065 0.27793 36.17 0.211375C36.0335 0.14482 35.8814 0.10854 35.7263 0.10553H33.5466C33.3737 0.108492 33.2046 0.15186 33.0558 0.231404C32.907 0.310947 32.7836 0.42395 32.6976 0.559387C32.6398 0.651922 32.5999 0.752753 32.5799 0.857473L28.8925 6.75343C28.8077 6.88879 28.7637 7.04182 28.7648 7.1973C28.7659 7.35277 28.8121 7.50528 28.8988 7.63964C28.9855 7.774 29.1096 7.88553 29.2588 7.96314C29.4081 8.04074 29.5772 8.08172 29.7494 8.08199C30.5521 8.08199 31.1575 8.60403 31.1575 9.29554C31.1575 9.97601 30.5319 10.5093 29.7333 10.5093C29.4851 10.498 29.2445 10.4285 29.0351 10.3077C28.8258 10.1869 28.6548 10.0189 28.5392 9.82036C28.6391 9.57707 28.6456 9.31056 28.5579 9.0635C28.4701 8.81644 28.293 8.60311 28.055 8.45765L25.4493 6.86286C24.8136 6.47251 24.0594 6.26973 23.2907 6.28246C22.522 6.29519 21.7766 6.52281 21.1572 6.93396C19.7845 7.85316 18.5783 8.95948 17.5821 10.2133C15.3446 10.7107 13.2137 11.539 11.2757 12.6645C10.6324 13.043 10.0189 13.4611 9.43952 13.9159C8.68686 14.5069 8.00558 15.1682 7.40707 15.8887C7.34362 15.9472 7.28978 16.0136 7.24718 16.0859C7.18516 16.1642 7.12301 16.2425 7.06352 16.3218L2.94743 21.8018L1.3353 23.9483C1.01585 24.374 0.875445 24.8887 0.939444 25.3995L1.53583 30.1517C1.57444 30.4604 1.68666 30.7578 1.86477 31.0237C2.04288 31.2895 2.28265 31.5173 2.5676 31.6915L5.13485 33.2629C5.76832 33.6496 6.49411 33.8956 7.25298 33.9809C8.01186 34.0661 8.78229 33.9881 9.5014 33.7532L9.51546 33.7485C10.1868 33.5247 10.776 33.1368 11.217 32.628C11.704 32.8288 12.2331 32.933 12.7685 32.9335C13.0107 32.9334 13.2524 32.9125 13.4902 32.8712C14.1548 32.7561 14.773 32.4823 15.2806 32.0784C15.7882 31.6745 16.1667 31.1551 16.3766 30.5744C16.5866 29.9937 16.6203 29.3728 16.4744 28.7763C16.3284 28.1798 16.0081 27.6295 15.5467 27.1826L18.7004 22.9834L22.5186 17.8993C22.9439 18.0458 23.3952 18.1209 23.8503 18.1211C24.0925 18.121 24.3342 18.1001 24.572 18.0589C25.2336 17.9443 25.8493 17.6725 26.3558 17.2715C26.8622 16.8705 27.241 16.3548 27.4531 15.7776C27.6651 15.2004 27.7028 14.5826 27.5622 13.9878C27.4217 13.3931 27.1079 12.843 26.6533 12.3942L27.4098 11.3868C27.7126 11.6675 28.0737 11.8915 28.4725 12.0459C28.8713 12.2003 29.2999 12.2821 29.7338 12.2866C31.6363 12.2866 33.1268 10.9728 33.1268 9.29567C33.1307 8.7322 32.9559 8.1795 32.6231 7.70282C32.2902 7.22614 31.8133 6.84539 31.2485 6.60553L33.574 2.88974L40.7071 14.4234L37.9954 20.9258H26.2001C26.0739 20.9242 25.9487 20.9456 25.8319 20.9889C25.7152 21.0321 25.6094 21.0962 25.5208 21.1773C25.4323 21.2585 25.3628 21.355 25.3167 21.461C25.2706 21.567 25.2487 21.6803 25.2524 21.7942V23.7188H20.6898C19.84 23.7188 19.2055 24.3927 19.2055 25.16V28.6148C19.2055 29.3821 19.84 30.0665 20.6898 30.0665H25.6414C26.1657 32.3516 28.4679 34.1587 31.174 34.1587C33.88 34.1587 36.1847 32.3516 36.7064 30.0665H38.7551C39.2793 32.3516 41.5808 34.1592 44.2871 34.1592C46.9934 34.1592 49.2959 32.3516 49.8203 30.0665H55.03C55.5541 32.3516 57.8554 34.1582 60.5623 34.1582C63.2692 34.1582 65.5713 32.3516 66.0948 30.0665H70.5336C71.0773 30.0665 71.518 29.6094 71.518 29.1186V19.7241C71.5163 19.2945 71.4204 18.8694 71.2357 18.4735C71.0511 18.0775 70.7814 17.7185 70.4423 17.4171C70.1031 17.1157 69.7012 16.878 69.2598 16.7176C68.8183 16.5571 68.346 16.4772 67.8702 16.4825ZM10.7343 15.2547C11.245 14.854 11.7859 14.4857 12.3528 14.1523C13.4405 13.5181 14.5996 12.9899 15.8107 12.5764L11.9352 17.769L9.55708 16.3138C9.9233 15.9377 10.3167 15.5839 10.7347 15.2547H10.7343ZM8.37738 17.7393L10.8344 19.2431L7.60001 23.5759L5.12894 22.0636L8.37738 17.7393ZM2.89582 25.1997C2.88452 25.1103 2.90907 25.0203 2.96501 24.9458L4.02476 23.5347L6.49976 25.0495L3.39813 29.2032L2.89582 25.1997ZM14.2814 30.4346C14.0107 30.795 13.5925 31.0436 13.1189 31.1256C12.6452 31.2077 12.1548 31.1166 11.7556 30.8722C11.4579 30.69 11.2267 30.4322 11.0912 30.1313C10.9558 29.8305 10.9222 29.5001 10.9948 29.1821C11.0673 28.864 11.2427 28.5725 11.4988 28.3444C11.7548 28.1163 12.08 27.9619 12.4333 27.9007C12.7866 27.8395 13.152 27.8743 13.4834 28.0006C13.8148 28.1269 14.0973 28.339 14.2951 28.6103C14.4929 28.8815 14.5972 29.1996 14.5948 29.5243C14.5923 29.8491 14.4833 30.1659 14.2814 30.4346ZM13.8758 26.2412C13.119 26.034 12.3094 26.0458 11.5604 26.2749C10.8114 26.5041 10.1607 26.9392 9.69947 27.5192C9.23825 28.0991 8.98969 28.7949 8.98864 29.5088C8.9876 30.2228 9.23412 30.9191 9.69363 31.5001C9.47574 31.7611 9.18099 31.9616 8.84299 32.0787L8.82893 32.0832C8.4025 32.2223 7.9457 32.2685 7.49577 32.2179C7.04584 32.1673 6.61552 32.0215 6.23988 31.7923L4.59274 30.784L12.4638 20.2403L16.5183 22.722L13.8758 26.2412ZM25.364 15.6226C25.0933 15.983 24.6751 16.2316 24.2015 16.3136C23.7278 16.3957 23.2374 16.3046 22.8381 16.0602C22.5404 15.878 22.3092 15.6202 22.1738 15.3193C22.0384 15.0185 22.0048 14.6881 22.0774 14.3701C22.1499 14.052 22.3253 13.7605 22.5814 13.5324C22.8375 13.3044 23.1627 13.15 23.5159 13.0888C23.8692 13.0276 24.2346 13.0623 24.566 13.1886C24.8974 13.3149 25.1799 13.5271 25.3777 13.7983C25.5755 14.0695 25.6798 14.3876 25.6774 14.7123C25.6749 15.0371 25.5659 15.3538 25.364 15.6226ZM24.9924 11.4393C24.2154 11.219 23.3805 11.2307 22.6116 11.4726C21.8426 11.7145 21.1804 12.1738 20.7234 12.7822C20.2664 13.3907 20.0388 14.116 20.0744 14.8504C20.11 15.5849 20.4069 16.2894 20.9211 16.8595L17.6232 21.2508L13.5641 18.7664L18.9849 11.5047C19.8964 10.2962 21.0263 9.23449 22.3274 8.36383C22.6167 8.17049 22.9659 8.06392 23.3258 8.05914C23.6887 8.05287 24.0447 8.1488 24.3444 8.33362L26.3853 9.58283L24.9924 11.4393ZM42.7111 14.6639C42.7616 14.5419 42.7823 14.4116 42.7716 14.2817C42.7609 14.1519 42.7192 14.0257 42.6492 13.9118L35.2027 1.92096L45.3618 14.6281V20.9258H40.0994L42.7111 14.6639ZM25.5941 28.2891H21.1743V25.4962H27.0261C26.2579 26.2815 25.7602 27.2522 25.5941 28.2891ZM34.8492 29.0798C34.8267 29.9471 34.4289 30.772 33.7411 31.3778C33.0533 31.9837 32.1301 32.3223 31.1691 32.3213C30.2082 32.3203 29.2858 31.9797 28.5996 31.3724C27.9133 30.7651 27.5177 29.9394 27.4975 29.072C27.4966 29.0491 27.4975 29.0255 27.4975 29.0025C27.4969 28.1662 27.8466 27.3607 28.4763 26.7475L28.4904 26.7348C28.497 26.7289 28.5035 26.7221 28.51 26.7167C28.7745 26.4636 29.0819 26.2501 29.4206 26.0842C29.9594 25.8209 30.5624 25.6832 31.1751 25.6834C31.6736 25.6829 32.167 25.7742 32.625 25.9519C33.083 26.1295 33.4961 26.3897 33.8388 26.7166C33.8453 26.7228 33.8519 26.7292 33.8585 26.7348L33.8726 26.7475C34.5026 27.3605 34.8523 28.166 34.8513 29.0022C34.85 29.0255 34.8502 29.0491 34.8492 29.0798ZM38.7091 28.2891H36.7528C36.5869 27.2522 36.0893 26.2815 35.3211 25.4962H40.1402C39.3778 26.2849 38.8813 27.254 38.7091 28.2891ZM48.0336 29.0896C47.893 30.8726 46.2997 32.3217 44.3221 32.3217C43.3598 32.3166 42.4372 31.9748 41.7484 31.3682C41.0595 30.7616 40.6581 29.9375 40.6286 29.0691C40.6276 29.047 40.6192 29.0244 40.6192 29.0025C40.6181 28.4051 40.7959 27.8185 41.1337 27.3048C41.4714 26.7912 41.9567 26.3694 42.5381 26.0842C43.075 25.8192 43.6774 25.6813 44.2892 25.6833C45.2194 25.6863 46.1148 26.0032 46.7995 26.5716C47.4843 27.14 47.9089 27.919 47.9902 28.7556C47.9962 28.8317 48.0336 28.9122 48.0336 29.0018V29.0896ZM27.2211 23.7188V22.7032H48.7368V23.7188H27.2211ZM51.8305 28.2891H49.8665C49.6947 27.2542 49.1987 26.2851 48.4371 25.4962H51.8305V28.2891ZM59.0024 10.6426H66.4601C66.6093 10.6426 66.7524 10.6961 66.8579 10.7914C66.9634 10.8866 67.0226 11.0158 67.0226 11.1505C67.0226 11.2851 66.9634 11.4143 66.8579 11.5095C66.7524 11.6048 66.6093 11.6583 66.4601 11.6583H59.0024V10.6426ZM59.0024 13.4356H64.0649V16.4825H60.702C60.2489 16.4712 59.8185 16.3014 59.5014 16.0091C59.1843 15.7167 59.0054 15.3246 59.0024 14.9155V13.4356ZM53.7993 10.6426H57.0336V14.9155C57.0438 15.6559 57.3253 16.3724 57.8341 16.9532C58.3429 17.5339 59.0504 17.9462 59.8461 18.1256V20.418H53.7993V10.6426ZM64.2383 29.0804C64.216 29.9478 63.8186 30.7728 63.1309 31.3788C62.4433 31.9849 61.5202 32.3238 60.5592 32.3231C59.5982 32.3223 58.6757 31.9819 57.9892 31.3748C57.3027 30.7677 56.9068 29.9421 56.8863 29.0747C56.8854 29.0507 56.8863 29.0261 56.8863 29.0023C56.8861 28.143 57.2552 27.3172 57.9158 26.6985C58.5763 26.0798 59.4769 25.7165 60.4282 25.685C61.3794 25.6535 62.307 25.9563 63.016 26.5296C63.725 27.103 64.1601 27.9022 64.2297 28.7592C64.2363 28.8373 64.2395 28.9192 64.2395 29.0023C64.2388 29.0275 64.239 29.0535 64.2383 29.0804ZM69.5493 28.2891H66.1412C65.9492 27.0806 65.2778 25.976 64.2517 25.1807C63.2256 24.3854 61.9147 23.9533 60.5623 23.9648C57.7401 23.9648 55.3951 25.7501 54.9816 28.2891H53.7993V24.6736C53.7993 24.668 53.8002 24.6627 53.8002 24.6571C53.8002 24.6515 53.7993 24.6456 53.7993 24.6405V22.1954H60.8758C60.9996 22.2003 61.1233 22.1821 61.2389 22.1418C61.3546 22.1016 61.4598 22.0402 61.548 21.9615C61.6362 21.8829 61.7054 21.7886 61.7513 21.6847C61.7972 21.5807 61.8189 21.4693 61.8149 21.3575V18.2598H67.8702C68.0876 18.2543 68.304 18.2881 68.5068 18.3591C68.7095 18.4301 68.8945 18.537 69.0509 18.6734C69.2073 18.8098 69.3319 18.9731 69.4175 19.1536C69.5031 19.3341 69.5479 19.5282 69.5493 19.7245V28.2891Z" fill="#262424"/>
</svg>
