<svg width="34" height="29" viewBox="0 0 34 29" fill="none" xmlns="http://www.w3.org/2000/svg">
<path d="M20.0537 18.8891H21.5377C21.6574 18.8891 21.7722 18.8476 21.8568 18.7737C21.9414 18.6998 21.9889 18.5995 21.9889 18.495C21.9889 18.3904 21.9414 18.2902 21.8568 18.2163C21.7722 18.1424 21.6574 18.1008 21.5377 18.1008H20.0537C19.9341 18.1008 19.8193 18.1424 19.7347 18.2163C19.6501 18.2902 19.6025 18.3904 19.6025 18.495C19.6025 18.5995 19.6501 18.6998 19.7347 18.7737C19.8193 18.8476 19.9341 18.8891 20.0537 18.8891Z" fill="#F89C24"/>
<path d="M20.0537 21.1413H21.5377C21.6574 21.1413 21.7722 21.0998 21.8568 21.0259C21.9414 20.952 21.9889 20.8517 21.9889 20.7472C21.9889 20.6426 21.9414 20.5424 21.8568 20.4685C21.7722 20.3946 21.6574 20.353 21.5377 20.353H20.0537C19.9341 20.353 19.8193 20.3946 19.7347 20.4685C19.6501 20.5424 19.6025 20.6426 19.6025 20.7472C19.6025 20.8517 19.6501 20.952 19.7347 21.0259C19.8193 21.0998 19.9341 21.1413 20.0537 21.1413Z" fill="#F89C24"/>
<path d="M20.0537 23.3374H21.5377C21.6574 23.3374 21.7722 23.2958 21.8568 23.2219C21.9414 23.148 21.9889 23.0478 21.9889 22.9432C21.9889 22.8387 21.9414 22.7384 21.8568 22.6645C21.7722 22.5906 21.6574 22.5491 21.5377 22.5491H20.0537C19.9341 22.5491 19.8193 22.5906 19.7347 22.6645C19.6501 22.7384 19.6025 22.8387 19.6025 22.9432C19.6025 23.0478 19.6501 23.148 19.7347 23.2219C19.8193 23.2958 19.9341 23.3374 20.0537 23.3374Z" fill="#F89C24"/>
<path d="M11.1992 20.1758C11.0796 20.1758 10.9648 20.2173 10.8802 20.2912C10.7956 20.3651 10.748 20.4654 10.748 20.5699V24.9759C10.748 25.0804 10.7956 25.1807 10.8802 25.2546C10.9648 25.3285 11.0796 25.37 11.1992 25.37C11.3189 25.37 11.4336 25.3285 11.5182 25.2546C11.6029 25.1807 11.6504 25.0804 11.6504 24.9759V20.5699C11.6504 20.4654 11.6029 20.3651 11.5182 20.2912C11.4336 20.2173 11.3189 20.1758 11.1992 20.1758Z" fill="#F89C24"/>
<path d="M9.33008 20.1758C9.21042 20.1758 9.09566 20.2173 9.01105 20.2912C8.92644 20.3651 8.87891 20.4654 8.87891 20.5699V24.9759C8.87891 25.0804 8.92644 25.1807 9.01105 25.2546C9.09566 25.3285 9.21042 25.37 9.33008 25.37C9.44974 25.37 9.56449 25.3285 9.64911 25.2546C9.73372 25.1807 9.78125 25.0804 9.78125 24.9759V20.5699C9.78125 20.4654 9.73372 20.3651 9.64911 20.2912C9.56449 20.2173 9.44974 20.1758 9.33008 20.1758Z" fill="#F89C24"/>
<path d="M13.7023 15.4752C13.7022 15.1721 13.5648 14.8813 13.3201 14.6664C13.0754 14.4515 12.7433 14.3299 12.3963 14.3282H11.5858V5.74096L12.2156 4.56679C12.2597 4.48227 12.2682 4.38683 12.2395 4.29737L11.3823 1.44722C11.3565 1.36269 11.2994 1.28796 11.22 1.23464C11.1406 1.18133 11.0433 1.1524 10.9431 1.15234H9.57543C9.47561 1.15247 9.37866 1.18147 9.29971 1.23482C9.22075 1.28817 9.16425 1.36286 9.13901 1.44722L8.28417 4.29708C8.25551 4.38659 8.26403 4.48207 8.30821 4.56662L8.94321 5.74096V14.3282H8.12227C7.80938 14.3295 7.50734 14.4284 7.2706 14.6072C7.03387 14.7859 6.87803 15.0326 6.83119 15.3029C6.78436 15.5732 6.8496 15.8491 7.01517 16.0811C7.18073 16.313 7.43571 16.4856 7.73413 16.5678L6.88908 19.1649C6.88044 19.2012 6.87762 19.2384 6.88071 19.2754V25.6393C6.88071 26.8702 8.00864 27.8981 9.41758 27.8981H11.101C12.5099 27.8981 13.6483 26.8702 13.6483 25.6393V19.2756C13.6496 19.2389 13.645 19.2022 13.6347 19.1667L12.7824 16.5678C13.0486 16.4946 13.2813 16.3492 13.4466 16.1528C13.612 15.9564 13.7016 15.7191 13.7023 15.4752ZM9.9236 1.94064H10.5949L11.3197 4.35722L10.717 5.48234C10.6914 5.53595 10.68 5.59389 10.6834 5.65188V14.3282H9.84555V5.65188C9.84732 5.59357 9.83411 5.53566 9.80688 5.4824L9.19644 4.35722L9.9236 1.94064ZM12.7459 25.6393C12.7459 26.4355 12.0124 27.1098 11.101 27.1098H9.41758C8.50615 27.1098 7.78305 26.4355 7.78305 25.6393V19.3311L8.65613 16.6367H11.8624L12.7459 19.3311V25.6393ZM12.3963 15.8484H8.12227C8.01115 15.8484 7.90459 15.8099 7.82603 15.7412C7.74746 15.6726 7.70332 15.5795 7.70332 15.4824C7.70332 15.3854 7.74746 15.2923 7.82603 15.2236C7.90459 15.155 8.01115 15.1165 8.12227 15.1165H12.3963C12.5074 15.1165 12.614 15.155 12.6925 15.2236C12.7711 15.2923 12.8152 15.3854 12.8152 15.4824C12.8152 15.5795 12.7711 15.6726 12.6925 15.7412C12.614 15.8099 12.5074 15.8484 12.3963 15.8484Z" fill="#F89C24"/>
<path d="M20.8023 27.8717C21.1335 27.8711 21.4613 27.8135 21.7669 27.7021C22.0726 27.5907 22.3501 27.4277 22.5836 27.2225C22.8171 27.0173 23.0019 26.7739 23.1276 26.5062C23.2533 26.2385 23.3173 25.9518 23.3159 25.6625V11.2887C24.46 10.8544 25.4345 10.1384 26.1204 9.22821C26.8064 8.31804 27.1742 7.25307 27.1788 6.16333C27.183 5.1251 26.8539 4.10665 26.2288 3.22361C25.6038 2.34057 24.7078 1.62832 23.6427 1.16773C23.5742 1.13776 23.4979 1.12365 23.4214 1.12674C23.3448 1.12984 23.2704 1.15004 23.2053 1.18541C23.1402 1.22078 23.0865 1.27015 23.0495 1.3288C23.0124 1.38744 22.9932 1.4534 22.9937 1.52038V4.28342L20.8188 5.54818L18.598 4.19124L18.6082 1.51863C18.6084 1.45136 18.5889 1.38516 18.5516 1.32631C18.5143 1.26746 18.4604 1.21792 18.395 1.18238C18.3296 1.14684 18.2549 1.12649 18.178 1.12326C18.1011 1.12003 18.0245 1.13402 17.9555 1.1639C16.8889 1.62389 15.9918 2.33653 15.3665 3.22052C14.7412 4.10451 14.4129 5.12425 14.419 6.16339C14.425 7.25361 14.7941 8.31875 15.4812 9.22885C16.1683 10.139 17.1438 10.8547 18.2886 11.2887V25.6625C18.2873 25.9518 18.3513 26.2385 18.4769 26.5062C18.6026 26.7739 18.7875 27.0173 19.021 27.2225C19.2544 27.4277 19.5319 27.5907 19.8376 27.7021C20.1433 27.8135 20.4711 27.8711 20.8023 27.8717ZM15.3109 6.16333C15.3077 5.38258 15.5242 4.61311 15.9414 3.92265C16.3586 3.23218 16.9637 2.64189 17.7034 2.20372L17.6949 4.39468C17.6946 4.45829 17.712 4.52101 17.7455 4.57747C17.7791 4.63394 17.8277 4.68248 17.8874 4.71895L20.5534 6.3483C20.6277 6.39379 20.716 6.41862 20.8068 6.41953C20.8975 6.42045 20.9865 6.39741 21.062 6.35343L23.6944 4.82261C23.7563 4.78664 23.8071 4.73787 23.8423 4.68064C23.8774 4.6234 23.8959 4.55947 23.896 4.49451V2.20755C24.725 2.70374 25.3822 3.38928 25.7957 4.18941C26.2092 4.98954 26.3633 5.87351 26.2411 6.7449C26.1189 7.6163 25.7252 8.44164 25.1028 9.13091C24.4804 9.82017 23.6533 10.3469 22.7117 10.6536C22.6251 10.6815 22.5502 10.7317 22.4969 10.7976C22.4437 10.8635 22.4147 10.9419 22.4136 11.0226V25.6623C22.4136 26.0357 22.2438 26.3937 21.9417 26.6577C21.6395 26.9217 21.2296 27.07 20.8023 27.07C20.3749 27.07 19.9651 26.9217 19.6629 26.6577C19.3607 26.3937 19.1909 26.0357 19.1909 25.6623V11.0226C19.1887 10.9414 19.1585 10.8627 19.1042 10.7968C19.0499 10.731 18.9741 10.6809 18.8867 10.6533C17.8403 10.3093 16.9381 9.69588 16.2996 8.89411C15.661 8.09234 15.3162 7.14006 15.3109 6.16333Z" fill="#F89C24"/>
</svg>
