<svg width="14" height="9" viewBox="0 0 14 9" fill="none" xmlns="http://www.w3.org/2000/svg">
<path d="M7.70996 7.98822L13.36 2.32822C13.4537 2.23526 13.5281 2.12466 13.5789 2.0028C13.6296 1.88094 13.6558 1.75024 13.6558 1.61822C13.6558 1.48621 13.6296 1.35551 13.5789 1.23365C13.5281 1.11179 13.4537 1.00119 13.36 0.908224C13.1726 0.721973 12.9191 0.617432 12.655 0.617432C12.3908 0.617432 12.1373 0.721973 11.95 0.908224L6.94996 5.85822L1.99996 0.908224C1.8126 0.721973 1.55915 0.617432 1.29496 0.617432C1.03078 0.617432 0.777326 0.721973 0.589964 0.908224C0.495476 1.00084 0.420305 1.11128 0.368809 1.23316C0.317312 1.35503 0.290514 1.48592 0.289965 1.61822C0.290514 1.75053 0.317312 1.88141 0.368809 2.00329C0.420305 2.12516 0.495476 2.23561 0.589964 2.32822L6.23996 7.98822C6.33361 8.08973 6.44726 8.17074 6.57376 8.22614C6.70026 8.28155 6.83686 8.31016 6.97496 8.31016C7.11307 8.31016 7.24967 8.28155 7.37617 8.22614C7.50267 8.17074 7.61632 8.08973 7.70996 7.98822V7.98822Z" fill="#111111"/>
</svg>
