<svg width="45" height="39" viewBox="0 0 45 39" fill="none" xmlns="http://www.w3.org/2000/svg">
<path d="M22.7546 7.00098L22.7546 7.00098C22.4109 6.99762 22.07 6.99336 21.7327 6.98913C20.244 6.97049 18.8237 6.9527 17.5238 7.01757C15.9274 7.09723 14.4417 7.30323 13.1518 7.81872C11.8417 8.34222 10.7444 9.18093 9.93734 10.4897C9.22515 11.6446 8.76242 13.1274 8.54128 15.0079H0.808884C0.909512 12.2274 1.57315 10.0563 2.63042 8.35213C3.78047 6.49845 5.4284 5.14553 7.44024 4.16211C11.4989 2.17818 16.9596 1.7334 22.5066 1.7334C28.0531 1.7334 33.5138 2.17818 37.5726 4.16211C39.5845 5.14554 41.2325 6.49847 42.3826 8.35214C43.4399 10.0563 44.1036 12.2274 44.2042 15.0079H36.4052C36.2054 13.1771 35.7901 11.73 35.1401 10.5982C34.3989 9.30749 33.3773 8.47052 32.1305 7.94048C30.9066 7.42014 29.4822 7.20255 27.9311 7.1031C26.7273 7.02592 25.3991 7.01814 23.9873 7.00986C23.5829 7.00749 23.1717 7.00508 22.7546 7.00098ZM8.46124 17.5757C8.45369 17.6271 8.44541 17.6767 8.43647 17.7248C8.35173 18.175 8.20519 18.4457 8.04775 18.6203C7.89077 18.7945 7.67719 18.9239 7.37299 19.0161C6.77399 19.1978 6.00043 19.1961 4.98424 19.1939C4.86962 19.1936 4.75192 19.1934 4.63103 19.1934C4.49795 19.1934 4.3685 19.1938 4.24232 19.1942C3.742 19.1959 3.29331 19.1974 2.87553 19.1711C2.35457 19.1384 1.95799 19.0652 1.65764 18.9334C1.37925 18.8114 1.17599 18.6366 1.02811 18.3547C0.930592 18.1688 0.847648 17.9175 0.79835 17.5757H8.46124ZM36.5006 17.5757H44.1941C44.145 17.866 44.0676 18.0802 43.979 18.2396C43.8367 18.4954 43.637 18.6616 43.3507 18.7799C43.0438 18.9068 42.64 18.9766 42.1139 19.0078C41.6928 19.0327 41.2404 19.0312 40.738 19.0297C40.611 19.0293 40.4808 19.0288 40.3471 19.0288C40.2231 19.0288 40.1024 19.0291 39.9847 19.0294C38.9786 19.0316 38.2006 19.0333 37.594 18.8644C37.2808 18.7772 37.0636 18.6551 36.907 18.4968C36.7532 18.3412 36.6112 18.1035 36.5255 17.7054C36.5166 17.6638 36.5083 17.6206 36.5006 17.5757Z" stroke="#F89C24" stroke-width="1.5"/>
<mask id="path-2-inside-1_2066_1618" fill="white">
<path d="M31.2639 14.5831V13.2737C31.2639 12.6881 30.5891 12.6514 29.7559 12.6514H28.3948C27.5624 12.6514 26.8876 12.6881 26.8876 13.2737V15.2772H17.2597V13.2737C17.2597 12.6881 16.5849 12.6514 15.7525 12.6514H14.3906C13.5582 12.6514 12.8834 12.6881 12.8834 13.2737V15.7262C10.69 18.0054 3.51278 27.7077 3.25195 28.8823L3.25545 36.7203C3.25545 37.4441 3.84451 38.0332 4.56835 38.0332H39.579C40.3028 38.0332 40.8919 37.4441 40.8919 36.7203V28.8429C40.6337 27.7024 33.4582 18.0045 31.2639 15.7253V14.5831ZM16.7853 29.937C16.615 29.9414 16.4455 29.9117 16.2868 29.8496C16.1281 29.7875 15.9835 29.6943 15.8614 29.5754C15.7394 29.4565 15.6423 29.3143 15.5761 29.1573C15.5099 29.0003 15.4757 28.8317 15.4757 28.6613C15.4757 28.4909 15.5099 28.3222 15.5761 28.1652C15.6423 28.0082 15.7394 27.8661 15.8614 27.7472C15.9835 27.6283 16.1281 27.535 16.2868 27.4729C16.4455 27.4108 16.615 27.3811 16.7853 27.3856C17.1179 27.3943 17.4339 27.5325 17.666 27.7708C17.8981 28.0091 18.028 28.3286 18.028 28.6613C18.028 28.9939 17.8981 29.3135 17.666 29.5518C17.4339 29.79 17.1179 29.9283 16.7853 29.937ZM16.7853 25.5607C16.615 25.5651 16.4455 25.5354 16.2868 25.4733C16.1281 25.4112 15.9835 25.318 15.8614 25.1991C15.7394 25.0802 15.6423 24.938 15.5761 24.781C15.5099 24.624 15.4757 24.4553 15.4757 24.285C15.4757 24.1146 15.5099 23.9459 15.5761 23.7889C15.6423 23.6319 15.7394 23.4897 15.8614 23.3708C15.9835 23.2519 16.1281 23.1587 16.2868 23.0966C16.4455 23.0345 16.615 23.0048 16.7853 23.0093C17.1179 23.018 17.4339 23.1562 17.666 23.3945C17.8981 23.6328 18.028 23.9523 18.028 24.285C18.028 24.6176 17.8981 24.9371 17.666 25.1754C17.4339 25.4137 17.1179 25.5519 16.7853 25.5607ZM16.7853 21.1852C16.615 21.1897 16.4455 21.16 16.2868 21.0979C16.1281 21.0358 15.9835 20.9425 15.8614 20.8236C15.7394 20.7047 15.6423 20.5626 15.5761 20.4056C15.5099 20.2486 15.4757 20.0799 15.4757 19.9095C15.4757 19.7391 15.5099 19.5704 15.5761 19.4134C15.6423 19.2564 15.7394 19.1143 15.8614 18.9954C15.9835 18.8765 16.1281 18.7832 16.2868 18.7211C16.4455 18.659 16.615 18.6293 16.7853 18.6338C17.1179 18.6425 17.4339 18.7807 17.666 19.019C17.8981 19.2573 18.028 19.5768 18.028 19.9095C18.028 20.2422 17.8981 20.5617 17.666 20.8C17.4339 21.0383 17.1179 21.1765 16.7853 21.1852ZM22.0369 29.937C21.8666 29.9414 21.697 29.9117 21.5384 29.8496C21.3797 29.7875 21.2351 29.6943 21.113 29.5754C20.9909 29.4565 20.8939 29.3143 20.8277 29.1573C20.7615 29.0003 20.7273 28.8317 20.7273 28.6613C20.7273 28.4909 20.7615 28.3222 20.8277 28.1652C20.8939 28.0082 20.9909 27.8661 21.113 27.7472C21.2351 27.6283 21.3797 27.535 21.5384 27.4729C21.697 27.4108 21.8666 27.3811 22.0369 27.3856C22.3694 27.3943 22.6854 27.5325 22.9176 27.7708C23.1497 28.0091 23.2796 28.3286 23.2796 28.6613C23.2796 28.9939 23.1497 29.3135 22.9176 29.5518C22.6854 29.79 22.3694 29.9283 22.0369 29.937ZM22.0369 25.5607C21.8666 25.5651 21.697 25.5354 21.5384 25.4733C21.3797 25.4112 21.2351 25.318 21.113 25.1991C20.9909 25.0802 20.8939 24.938 20.8277 24.781C20.7615 24.624 20.7273 24.4553 20.7273 24.285C20.7273 24.1146 20.7615 23.9459 20.8277 23.7889C20.8939 23.6319 20.9909 23.4897 21.113 23.3708C21.2351 23.2519 21.3797 23.1587 21.5384 23.0966C21.697 23.0345 21.8666 23.0048 22.0369 23.0093C22.3694 23.018 22.6854 23.1562 22.9176 23.3945C23.1497 23.6328 23.2796 23.9523 23.2796 24.285C23.2796 24.6176 23.1497 24.9371 22.9176 25.1754C22.6854 25.4137 22.3694 25.5519 22.0369 25.5607ZM22.0369 21.1852C21.8666 21.1897 21.697 21.16 21.5384 21.0979C21.3797 21.0358 21.2351 20.9425 21.113 20.8236C20.9909 20.7047 20.8939 20.5626 20.8277 20.4056C20.7615 20.2486 20.7273 20.0799 20.7273 19.9095C20.7273 19.7391 20.7615 19.5704 20.8277 19.4134C20.8939 19.2564 20.9909 19.1143 21.113 18.9954C21.2351 18.8765 21.3797 18.7832 21.5384 18.7211C21.697 18.659 21.8666 18.6293 22.0369 18.6338C22.3694 18.6425 22.6854 18.7807 22.9176 19.019C23.1497 19.2573 23.2796 19.5768 23.2796 19.9095C23.2796 20.2422 23.1497 20.5617 22.9176 20.8C22.6854 21.0383 22.3694 21.1765 22.0369 21.1852ZM27.2885 29.937C26.95 29.937 26.6254 29.8025 26.3861 29.5632C26.1468 29.3239 26.0123 28.9993 26.0123 28.6608C26.0123 28.3224 26.1468 27.9978 26.3861 27.7585C26.6254 27.5192 26.95 27.3847 27.2885 27.3847C27.6269 27.3847 27.9515 27.5192 28.1908 27.7585C28.4302 27.9978 28.5646 28.3224 28.5646 28.6608C28.5646 28.9993 28.4302 29.3239 28.1908 29.5632C27.9515 29.8025 27.6269 29.937 27.2885 29.937ZM27.2885 25.5607C26.95 25.5607 26.6254 25.4262 26.3861 25.1869C26.1468 24.9476 26.0123 24.623 26.0123 24.2845C26.0123 23.9461 26.1468 23.6215 26.3861 23.3822C26.6254 23.1428 26.95 23.0084 27.2885 23.0084C27.6269 23.0084 27.9515 23.1428 28.1908 23.3822C28.4302 23.6215 28.5646 23.9461 28.5646 24.2845C28.5646 24.623 28.4302 24.9476 28.1908 25.1869C27.9515 25.4262 27.6269 25.5607 27.2885 25.5607ZM27.2885 21.1852C26.95 21.1852 26.6254 21.0508 26.3861 20.8114C26.1468 20.5721 26.0123 20.2475 26.0123 19.9091C26.0123 19.5706 26.1468 19.246 26.3861 19.0067C26.6254 18.7674 26.95 18.6329 27.2885 18.6329C27.6269 18.6329 27.9515 18.7674 28.1908 19.0067C28.4302 19.246 28.5646 19.5706 28.5646 19.9091C28.5646 20.2475 28.4302 20.5721 28.1908 20.8114C27.9515 21.0508 27.6269 21.1852 27.2885 21.1852Z"/>
</mask>
<path d="M31.2639 14.5831V13.2737C31.2639 12.6881 30.5891 12.6514 29.7559 12.6514H28.3948C27.5624 12.6514 26.8876 12.6881 26.8876 13.2737V15.2772H17.2597V13.2737C17.2597 12.6881 16.5849 12.6514 15.7525 12.6514H14.3906C13.5582 12.6514 12.8834 12.6881 12.8834 13.2737V15.7262C10.69 18.0054 3.51278 27.7077 3.25195 28.8823L3.25545 36.7203C3.25545 37.4441 3.84451 38.0332 4.56835 38.0332H39.579C40.3028 38.0332 40.8919 37.4441 40.8919 36.7203V28.8429C40.6337 27.7024 33.4582 18.0045 31.2639 15.7253V14.5831ZM16.7853 29.937C16.615 29.9414 16.4455 29.9117 16.2868 29.8496C16.1281 29.7875 15.9835 29.6943 15.8614 29.5754C15.7394 29.4565 15.6423 29.3143 15.5761 29.1573C15.5099 29.0003 15.4757 28.8317 15.4757 28.6613C15.4757 28.4909 15.5099 28.3222 15.5761 28.1652C15.6423 28.0082 15.7394 27.8661 15.8614 27.7472C15.9835 27.6283 16.1281 27.535 16.2868 27.4729C16.4455 27.4108 16.615 27.3811 16.7853 27.3856C17.1179 27.3943 17.4339 27.5325 17.666 27.7708C17.8981 28.0091 18.028 28.3286 18.028 28.6613C18.028 28.9939 17.8981 29.3135 17.666 29.5518C17.4339 29.79 17.1179 29.9283 16.7853 29.937ZM16.7853 25.5607C16.615 25.5651 16.4455 25.5354 16.2868 25.4733C16.1281 25.4112 15.9835 25.318 15.8614 25.1991C15.7394 25.0802 15.6423 24.938 15.5761 24.781C15.5099 24.624 15.4757 24.4553 15.4757 24.285C15.4757 24.1146 15.5099 23.9459 15.5761 23.7889C15.6423 23.6319 15.7394 23.4897 15.8614 23.3708C15.9835 23.2519 16.1281 23.1587 16.2868 23.0966C16.4455 23.0345 16.615 23.0048 16.7853 23.0093C17.1179 23.018 17.4339 23.1562 17.666 23.3945C17.8981 23.6328 18.028 23.9523 18.028 24.285C18.028 24.6176 17.8981 24.9371 17.666 25.1754C17.4339 25.4137 17.1179 25.5519 16.7853 25.5607ZM16.7853 21.1852C16.615 21.1897 16.4455 21.16 16.2868 21.0979C16.1281 21.0358 15.9835 20.9425 15.8614 20.8236C15.7394 20.7047 15.6423 20.5626 15.5761 20.4056C15.5099 20.2486 15.4757 20.0799 15.4757 19.9095C15.4757 19.7391 15.5099 19.5704 15.5761 19.4134C15.6423 19.2564 15.7394 19.1143 15.8614 18.9954C15.9835 18.8765 16.1281 18.7832 16.2868 18.7211C16.4455 18.659 16.615 18.6293 16.7853 18.6338C17.1179 18.6425 17.4339 18.7807 17.666 19.019C17.8981 19.2573 18.028 19.5768 18.028 19.9095C18.028 20.2422 17.8981 20.5617 17.666 20.8C17.4339 21.0383 17.1179 21.1765 16.7853 21.1852ZM22.0369 29.937C21.8666 29.9414 21.697 29.9117 21.5384 29.8496C21.3797 29.7875 21.2351 29.6943 21.113 29.5754C20.9909 29.4565 20.8939 29.3143 20.8277 29.1573C20.7615 29.0003 20.7273 28.8317 20.7273 28.6613C20.7273 28.4909 20.7615 28.3222 20.8277 28.1652C20.8939 28.0082 20.9909 27.8661 21.113 27.7472C21.2351 27.6283 21.3797 27.535 21.5384 27.4729C21.697 27.4108 21.8666 27.3811 22.0369 27.3856C22.3694 27.3943 22.6854 27.5325 22.9176 27.7708C23.1497 28.0091 23.2796 28.3286 23.2796 28.6613C23.2796 28.9939 23.1497 29.3135 22.9176 29.5518C22.6854 29.79 22.3694 29.9283 22.0369 29.937ZM22.0369 25.5607C21.8666 25.5651 21.697 25.5354 21.5384 25.4733C21.3797 25.4112 21.2351 25.318 21.113 25.1991C20.9909 25.0802 20.8939 24.938 20.8277 24.781C20.7615 24.624 20.7273 24.4553 20.7273 24.285C20.7273 24.1146 20.7615 23.9459 20.8277 23.7889C20.8939 23.6319 20.9909 23.4897 21.113 23.3708C21.2351 23.2519 21.3797 23.1587 21.5384 23.0966C21.697 23.0345 21.8666 23.0048 22.0369 23.0093C22.3694 23.018 22.6854 23.1562 22.9176 23.3945C23.1497 23.6328 23.2796 23.9523 23.2796 24.285C23.2796 24.6176 23.1497 24.9371 22.9176 25.1754C22.6854 25.4137 22.3694 25.5519 22.0369 25.5607ZM22.0369 21.1852C21.8666 21.1897 21.697 21.16 21.5384 21.0979C21.3797 21.0358 21.2351 20.9425 21.113 20.8236C20.9909 20.7047 20.8939 20.5626 20.8277 20.4056C20.7615 20.2486 20.7273 20.0799 20.7273 19.9095C20.7273 19.7391 20.7615 19.5704 20.8277 19.4134C20.8939 19.2564 20.9909 19.1143 21.113 18.9954C21.2351 18.8765 21.3797 18.7832 21.5384 18.7211C21.697 18.659 21.8666 18.6293 22.0369 18.6338C22.3694 18.6425 22.6854 18.7807 22.9176 19.019C23.1497 19.2573 23.2796 19.5768 23.2796 19.9095C23.2796 20.2422 23.1497 20.5617 22.9176 20.8C22.6854 21.0383 22.3694 21.1765 22.0369 21.1852ZM27.2885 29.937C26.95 29.937 26.6254 29.8025 26.3861 29.5632C26.1468 29.3239 26.0123 28.9993 26.0123 28.6608C26.0123 28.3224 26.1468 27.9978 26.3861 27.7585C26.6254 27.5192 26.95 27.3847 27.2885 27.3847C27.6269 27.3847 27.9515 27.5192 28.1908 27.7585C28.4302 27.9978 28.5646 28.3224 28.5646 28.6608C28.5646 28.9993 28.4302 29.3239 28.1908 29.5632C27.9515 29.8025 27.6269 29.937 27.2885 29.937ZM27.2885 25.5607C26.95 25.5607 26.6254 25.4262 26.3861 25.1869C26.1468 24.9476 26.0123 24.623 26.0123 24.2845C26.0123 23.9461 26.1468 23.6215 26.3861 23.3822C26.6254 23.1428 26.95 23.0084 27.2885 23.0084C27.6269 23.0084 27.9515 23.1428 28.1908 23.3822C28.4302 23.6215 28.5646 23.9461 28.5646 24.2845C28.5646 24.623 28.4302 24.9476 28.1908 25.1869C27.9515 25.4262 27.6269 25.5607 27.2885 25.5607ZM27.2885 21.1852C26.95 21.1852 26.6254 21.0508 26.3861 20.8114C26.1468 20.5721 26.0123 20.2475 26.0123 19.9091C26.0123 19.5706 26.1468 19.246 26.3861 19.0067C26.6254 18.7674 26.95 18.6329 27.2885 18.6329C27.6269 18.6329 27.9515 18.7674 28.1908 19.0067C28.4302 19.246 28.5646 19.5706 28.5646 19.9091C28.5646 20.2475 28.4302 20.5721 28.1908 20.8114C27.9515 21.0508 27.6269 21.1852 27.2885 21.1852Z" stroke="#F89C24" stroke-width="3" mask="url(#path-2-inside-1_2066_1618)"/>
</svg>
