<svg width="45" height="45" viewBox="0 0 45 45" fill="none" xmlns="http://www.w3.org/2000/svg">
<path d="M1.18695 45.0088C0.882589 45.0091 0.590164 44.8799 0.372131 44.6488C0.265675 44.5349 0.181018 44.3991 0.122992 44.2494C0.064967 44.0997 0.0347407 43.939 0.0340697 43.7765L0 17.0405C0 17.0325 0 17.0259 0 17.0179C0.00310395 16.8205 0.0499455 16.6268 0.136539 16.4533C0.223132 16.2798 0.346914 16.1316 0.497388 16.0213L6.96959 11.2339V6.15405C6.97248 5.82431 7.09552 5.50932 7.3117 5.27827C7.52787 5.04721 7.81949 4.91903 8.12246 4.92185H15.5006L21.8451 0.228442C22.0387 0.0853322 22.2672 0.00878906 22.5012 0.00878906C22.7352 0.00878906 22.9638 0.0853322 23.1573 0.228442L29.4629 4.92047H36.8727C37.1757 4.91765 37.4673 5.04592 37.6834 5.27697C37.8996 5.50803 38.0227 5.82301 38.0256 6.15276V11.2922L44.471 16.0848C44.6917 16.248 44.8523 16.4908 44.9246 16.7704C44.9519 16.8486 44.9659 16.9316 44.9659 17.0153L45 43.7117C44.9977 44.0415 44.8753 44.3568 44.6596 44.5883C44.4439 44.8199 44.1525 44.9487 43.8495 44.9466L1.18817 45.0088H1.18695ZM4.55921 42.5377L40.4079 42.4834L22.5164 27.6276L4.55921 42.5377ZM2.33619 41.2605L16.2522 29.707L2.31184 19.3897L2.33619 41.2605ZM28.7502 29.6832L42.6893 41.2564L42.6614 19.3315L28.7502 29.6832ZM9.27534 21.5445L18.1627 28.12L21.8111 25.0917C22.0117 24.9265 22.2559 24.8362 22.5075 24.8343C22.7591 24.8324 23.0045 24.9189 23.2072 25.0811L23.223 25.0917L26.8433 28.0989L35.721 21.4916V7.38633H9.27534V21.5445ZM3.17895 17.0351L6.97078 19.8411V14.2292L3.17895 17.0351ZM38.0256 19.7762L41.708 17.0365L38.0256 14.2967V19.7762ZM19.5552 4.92047H25.4266L22.4982 2.74326L19.5552 4.92047ZM14.698 21.2004C14.3974 21.2004 14.1091 21.0704 13.8965 20.8391C13.684 20.6078 13.5646 20.294 13.5646 19.9669C13.5646 19.6397 13.684 19.3259 13.8965 19.0946C14.1091 18.8632 14.3974 18.7333 14.698 18.7333H30.2996C30.6002 18.7333 30.8885 18.8632 31.101 19.0946C31.3136 19.3259 31.433 19.6397 31.433 19.9669C31.433 20.294 31.3136 20.6078 31.101 20.8391C30.8885 21.0704 30.6002 21.2004 30.2996 21.2004H14.698ZM14.698 14.7864C14.3974 14.7864 14.1091 14.6564 13.8965 14.4251C13.684 14.1937 13.5646 13.88 13.5646 13.5528C13.5646 13.2257 13.684 12.9119 13.8965 12.6805C14.1091 12.4492 14.3974 12.3193 14.698 12.3193H30.2996C30.6002 12.3193 30.8885 12.4492 31.101 12.6805C31.3136 12.9119 31.433 13.2257 31.433 13.5528C31.433 13.88 31.3136 14.1937 31.101 14.4251C30.8885 14.6564 30.6002 14.7864 30.2996 14.7864H14.698Z" fill="#F89C24"/>
</svg>
