<svg width="151" height="85" viewBox="0 0 151 85" fill="none" xmlns="http://www.w3.org/2000/svg">
<g clip-path="url(#clip0_2066_1706)">
<path d="M67.8316 31.5109V34.2262H57.1325V31.5109H67.8316ZM57.9907 23.2147V43.082H54.5166V23.2147H57.9907ZM70.5029 23.2147V43.082H67.0427V23.2147H70.5029ZM83.3198 39.6024V28.3179H86.6693V43.082H83.5136L83.3198 39.6024ZM83.7903 36.5323L84.9116 36.505C84.9116 37.4965 84.8008 38.4108 84.5793 39.2476C84.3579 40.0755 84.0164 40.7987 83.5551 41.4172C83.0937 42.0268 82.5032 42.5043 81.7834 42.85C81.0636 43.1865 80.201 43.3549 79.1951 43.3549C78.4662 43.3549 77.7972 43.2502 77.1882 43.041C76.5792 42.8318 76.0533 42.5088 75.6104 42.0722C75.1767 41.6356 74.8398 41.067 74.5999 40.3666C74.3601 39.6661 74.2401 38.8293 74.2401 37.8558V28.3179H77.5757V37.8832C77.5757 38.4199 77.6403 38.8701 77.7695 39.234C77.8986 39.5888 78.074 39.8754 78.2955 40.0937C78.517 40.312 78.7753 40.4666 79.0705 40.5576C79.3658 40.6486 79.6796 40.694 80.0118 40.694C80.9622 40.694 81.7096 40.5122 82.2541 40.1483C82.8077 39.7753 83.1998 39.275 83.4305 38.6473C83.6705 38.0196 83.7903 37.3146 83.7903 36.5323ZM99.6799 28.3179H102.711V42.6726C102.711 44.0008 102.425 45.1287 101.853 46.0566C101.281 46.9845 100.483 47.6894 99.4585 48.1716C98.4342 48.6628 97.2485 48.9084 95.9012 48.9084C95.3292 48.9084 94.6925 48.8266 93.9912 48.6628C93.2992 48.499 92.6256 48.2353 91.9704 47.8714C91.3245 47.5166 90.7847 47.0481 90.351 46.4659L91.915 44.5283C92.4503 45.156 93.0408 45.6154 93.6867 45.9065C94.3326 46.1976 95.0108 46.3432 95.7214 46.3432C96.4872 46.3432 97.1377 46.2022 97.6729 45.9201C98.2174 45.6472 98.6371 45.2425 98.9324 44.7057C99.2277 44.169 99.3753 43.5141 99.3753 42.7408V31.661L99.6799 28.3179ZM89.5068 35.8637V35.5772C89.5068 34.4583 89.6452 33.4395 89.9219 32.5206C90.1988 31.5927 90.5955 30.7968 91.1124 30.1327C91.629 29.4596 92.2565 28.9456 92.9947 28.5908C93.7329 28.227 94.5679 28.045 95.4999 28.045C96.4688 28.045 97.2946 28.2179 97.9774 28.5635C98.6695 28.9092 99.2462 29.405 99.7076 30.0509C100.169 30.6877 100.529 31.4517 100.787 32.3432C101.055 33.2257 101.253 34.2081 101.382 35.2906V36.2049C101.262 37.26 101.059 38.2243 100.773 39.0975C100.487 39.9708 100.109 40.7259 99.6384 41.3626C99.1678 41.9994 98.5865 42.4907 97.8944 42.8364C97.2116 43.182 96.4042 43.3549 95.4723 43.3549C94.5587 43.3549 93.7329 43.1683 92.9947 42.7954C92.2657 42.4224 91.6383 41.8994 91.1124 41.2262C90.5955 40.553 90.1988 39.7616 89.9219 38.852C89.6452 37.9332 89.5068 36.9372 89.5068 35.8637ZM92.8424 35.5772V35.8637C92.8424 36.5368 92.907 37.1646 93.0362 37.7467C93.1746 38.3289 93.3822 38.8429 93.659 39.2886C93.9451 39.7253 94.305 40.071 94.7387 40.3256C95.1816 40.5713 95.7029 40.694 96.3027 40.694C97.0869 40.694 97.7283 40.5303 98.2266 40.2028C98.7341 39.8754 99.1216 39.4342 99.3893 38.8792C99.666 38.3152 99.8598 37.6876 99.9706 36.9962V34.5264C99.9152 33.9897 99.7998 33.4894 99.6245 33.0255C99.4585 32.5615 99.2324 32.1568 98.9464 31.8111C98.6603 31.4563 98.3004 31.1833 97.8667 30.9924C97.433 30.7922 96.9209 30.6922 96.3303 30.6922C95.7306 30.6922 95.2092 30.8196 94.7663 31.0742C94.3234 31.3289 93.9589 31.6791 93.6729 32.1249C93.396 32.5707 93.1885 33.0892 93.0501 33.6805C92.9116 34.2718 92.8424 34.904 92.8424 35.5772ZM109.465 22.123V43.082H106.144V22.123H109.465ZM108.884 35.1541L107.805 35.1405C107.814 34.1217 107.957 33.1802 108.234 32.3159C108.52 31.4517 108.917 30.7013 109.424 30.0645C109.941 29.4186 110.559 28.9228 111.279 28.5772C111.998 28.2224 112.797 28.045 113.673 28.045C114.411 28.045 115.076 28.1451 115.666 28.3453C116.266 28.5453 116.783 28.8683 117.216 29.314C117.65 29.7507 117.978 30.3238 118.199 31.0333C118.43 31.7338 118.545 32.5889 118.545 33.5986V43.082H115.196V33.5713C115.196 32.8618 115.09 32.2978 114.877 31.8793C114.674 31.4608 114.375 31.1606 113.978 30.9788C113.581 30.7877 113.096 30.6922 112.524 30.6922C111.925 30.6922 111.394 30.8104 110.933 31.047C110.481 31.2835 110.102 31.6064 109.798 32.0158C109.493 32.4252 109.262 32.8981 109.106 33.4348C108.958 33.9716 108.884 34.5447 108.884 35.1541ZM128.525 43.3549C127.417 43.3549 126.416 43.1774 125.522 42.8226C124.636 42.4588 123.879 41.9539 123.252 41.3081C122.633 40.6622 122.158 39.9026 121.826 39.0293C121.493 38.156 121.328 37.2145 121.328 36.2049V35.659C121.328 34.5037 121.498 33.4576 121.839 32.5206C122.18 31.5837 122.656 30.7832 123.265 30.1191C123.874 29.446 124.593 28.932 125.425 28.5772C126.255 28.2224 127.154 28.045 128.124 28.045C129.194 28.045 130.13 28.2224 130.933 28.5772C131.735 28.932 132.4 29.4322 132.926 30.0781C133.461 30.7149 133.858 31.4744 134.117 32.3569C134.383 33.2393 134.518 34.2126 134.518 35.277V36.6824H122.947V34.3218H131.224V34.0625C131.205 33.4712 131.085 32.9163 130.864 32.3978C130.651 31.8793 130.324 31.4608 129.881 31.1425C129.438 30.8241 128.848 30.6648 128.109 30.6648C127.555 30.6648 127.062 30.7832 126.628 31.0196C126.204 31.247 125.849 31.5791 125.563 32.0158C125.277 32.4524 125.055 32.98 124.898 33.5986C124.75 34.2081 124.677 34.8949 124.677 35.659V36.2049C124.677 36.8506 124.765 37.4511 124.939 38.0059C125.125 38.5518 125.392 39.0293 125.743 39.4387C126.093 39.8481 126.517 40.171 127.016 40.4075C127.514 40.6349 128.082 40.7486 128.719 40.7486C129.521 40.7486 130.237 40.5895 130.864 40.271C131.491 39.9527 132.035 39.5024 132.497 38.9202L134.255 40.5986C133.932 41.0624 133.512 41.5082 132.996 41.9357C132.478 42.3542 131.846 42.6954 131.099 42.9591C130.361 43.223 129.503 43.3549 128.525 43.3549ZM145.521 39.0839C145.521 38.7565 145.439 38.4607 145.272 38.197C145.107 37.9241 144.788 37.6785 144.318 37.4602C143.856 37.2419 143.173 37.0417 142.268 36.8597C141.475 36.6869 140.746 36.4822 140.082 36.2457C139.427 36.0002 138.863 35.7045 138.393 35.3588C137.923 35.0131 137.558 34.6038 137.3 34.1308C137.041 33.6577 136.912 33.1119 136.912 32.4933C136.912 31.8929 137.046 31.3244 137.314 30.7877C137.581 30.251 137.965 29.7779 138.463 29.3687C138.96 28.9593 139.565 28.6364 140.276 28.3998C140.995 28.1633 141.798 28.045 142.684 28.045C143.939 28.045 145.013 28.2542 145.909 28.6727C146.813 29.0821 147.505 29.6415 147.985 30.351C148.465 31.0515 148.704 31.843 148.704 32.7253H145.369C145.369 32.3341 145.267 31.9702 145.064 31.6337C144.87 31.288 144.575 31.0106 144.178 30.8013C143.781 30.583 143.284 30.4739 142.684 30.4739C142.111 30.4739 141.637 30.5648 141.259 30.7467C140.889 30.9196 140.613 31.147 140.428 31.429C140.252 31.711 140.165 32.0203 140.165 32.3569C140.165 32.6025 140.211 32.8254 140.303 33.0255C140.405 33.2165 140.571 33.3939 140.802 33.5576C141.032 33.7123 141.346 33.8578 141.743 33.9943C142.149 34.1308 142.656 34.2627 143.265 34.3901C144.41 34.6265 145.392 34.9313 146.213 35.3042C147.044 35.6681 147.68 36.1412 148.123 36.7234C148.566 37.2964 148.788 38.0241 148.788 38.9066C148.788 39.5616 148.645 40.1619 148.359 40.7077C148.082 41.2444 147.676 41.7129 147.141 42.1132C146.605 42.5043 145.964 42.809 145.217 43.0273C144.478 43.2457 143.648 43.3549 142.726 43.3549C141.37 43.3549 140.22 43.1183 139.279 42.6453C138.338 42.1631 137.623 41.5492 137.134 40.8033C136.654 40.0482 136.414 39.2659 136.414 38.4562H139.639C139.676 39.0658 139.846 39.5525 140.151 39.9162C140.465 40.271 140.852 40.5303 141.314 40.694C141.784 40.8487 142.268 40.926 142.767 40.926C143.367 40.926 143.87 40.8487 144.275 40.694C144.681 40.5303 144.991 40.312 145.204 40.0391C145.415 39.7571 145.521 39.4387 145.521 39.0839Z" fill="black"/>
<path d="M60.2192 58.3785V59.4496H54.7658V58.3785H60.2192ZM54.9734 54.1077V64.0412H53.6377V54.1077H54.9734ZM61.3818 54.1077V64.0412H60.0531V54.1077H61.3818ZM63.2227 60.4321V60.2752C63.2227 59.743 63.3011 59.2496 63.458 58.7946C63.6148 58.3353 63.8409 57.9373 64.1362 57.6008C64.4314 57.2596 64.789 56.9958 65.2088 56.8094C65.6287 56.6183 66.0993 56.5228 66.6206 56.5228C67.1466 56.5228 67.6195 56.6183 68.0393 56.8094C68.4638 56.9958 68.8237 57.2596 69.119 57.6008C69.4189 57.9373 69.6472 58.3353 69.804 58.7946C69.9609 59.2496 70.0394 59.743 70.0394 60.2752V60.4321C70.0394 60.9642 69.9609 61.4577 69.804 61.9126C69.6472 62.3674 69.4189 62.7654 69.119 63.1066C68.8237 63.4431 68.4661 63.707 68.0463 63.898C67.631 64.0844 67.1605 64.1777 66.6344 64.1777C66.1085 64.1777 65.6356 64.0844 65.2158 63.898C64.7959 63.707 64.436 63.4431 64.1362 63.1066C63.8409 62.7654 63.6148 62.3674 63.458 61.9126C63.3011 61.4577 63.2227 60.9642 63.2227 60.4321ZM64.503 60.2752V60.4321C64.503 60.8005 64.5468 61.1485 64.6345 61.476C64.7221 61.7989 64.8536 62.0854 65.029 62.3357C65.2088 62.5858 65.4327 62.7836 65.7002 62.9291C65.9678 63.0701 66.2793 63.1407 66.6344 63.1407C66.9851 63.1407 67.2919 63.0701 67.5549 62.9291C67.8225 62.7836 68.044 62.5858 68.2192 62.3357C68.3946 62.0854 68.5261 61.7989 68.6137 61.476C68.706 61.1485 68.7521 60.8005 68.7521 60.4321V60.2752C68.7521 59.9113 68.706 59.5679 68.6137 59.245C68.5261 58.9175 68.3923 58.6287 68.2124 58.3785C68.037 58.1238 67.8155 57.9237 67.548 57.7781C67.285 57.6326 66.9759 57.5598 66.6206 57.5598C66.2699 57.5598 65.9608 57.6326 65.6933 57.7781C65.4303 57.9237 65.2088 58.1238 65.029 58.3785C64.8536 58.6287 64.7221 58.9175 64.6345 59.245C64.5468 59.5679 64.503 59.9113 64.503 60.2752ZM72.9184 58.1261V64.0412H71.6311V56.6593H72.8492L72.9184 58.1261ZM72.6553 60.0705L72.0602 60.0501C72.0648 59.5452 72.1316 59.079 72.2608 58.6514C72.3901 58.2193 72.5815 57.844 72.8352 57.5257C73.089 57.2074 73.4051 56.9617 73.7834 56.7889C74.1617 56.6114 74.6 56.5228 75.0983 56.5228C75.4489 56.5228 75.7719 56.5728 76.0672 56.6729C76.3625 56.7684 76.6185 56.9208 76.8354 57.13C77.0522 57.3392 77.2205 57.6076 77.3405 57.9351C77.4605 58.2625 77.5204 58.6583 77.5204 59.1222V64.0412H76.2402V59.1836C76.2402 58.797 76.1732 58.4877 76.0394 58.2557C75.9103 58.0237 75.7257 57.8555 75.4858 57.7509C75.246 57.6417 74.9645 57.5871 74.6415 57.5871C74.2632 57.5871 73.9471 57.6531 73.6934 57.785C73.4397 57.9168 73.2367 58.0988 73.0844 58.3308C72.9322 58.5627 72.8214 58.8288 72.7522 59.1289C72.6876 59.4247 72.6553 59.7385 72.6553 60.0705ZM77.5066 59.3746L76.6485 59.6338C76.6531 59.2291 76.72 58.8402 76.8492 58.4672C76.983 58.0943 77.1745 57.7622 77.4236 57.4711C77.6774 57.18 77.9887 56.9504 78.3578 56.782C78.7269 56.6092 79.149 56.5228 79.6243 56.5228C80.0257 56.5228 80.3809 56.5751 80.69 56.6797C81.0038 56.7843 81.2667 56.9457 81.479 57.1642C81.6958 57.3778 81.8597 57.6531 81.9703 57.9896C82.0811 58.3262 82.1364 58.7264 82.1364 59.1904V64.0412H80.8492V59.1768C80.8492 58.7629 80.7824 58.4422 80.6486 58.2148C80.5193 57.9828 80.3349 57.8213 80.0949 57.7304C79.8596 57.6348 79.5781 57.5871 79.2506 57.5871C78.9691 57.5871 78.7201 57.6348 78.5032 57.7304C78.2864 57.8259 78.1041 57.9578 77.9565 58.1261C77.8088 58.2898 77.6958 58.4786 77.6174 58.6923C77.5436 58.9061 77.5066 59.1336 77.5066 59.3746ZM87.1815 64.1777C86.6601 64.1777 86.1872 64.0913 85.7628 63.9184C85.343 63.7411 84.9807 63.4932 84.6762 63.1748C84.3764 62.8564 84.1457 62.4789 83.9842 62.0422C83.8228 61.6056 83.742 61.128 83.742 60.6095V60.3229C83.742 59.7225 83.832 59.1881 84.0119 58.7197C84.1919 58.2466 84.4364 57.8464 84.7455 57.5188C85.0545 57.1914 85.4052 56.9435 85.7975 56.7753C86.1896 56.6069 86.5955 56.5228 87.0154 56.5228C87.5506 56.5228 88.012 56.6138 88.3995 56.7956C88.7917 56.9776 89.1123 57.2323 89.3614 57.5598C89.6106 57.8827 89.7951 58.2649 89.9151 58.706C90.035 59.1427 90.095 59.6202 90.095 60.1387V60.7051H84.5032V59.6748H88.8147V59.5793C88.7963 59.2518 88.7271 58.9334 88.6072 58.6242C88.4918 58.3148 88.3073 58.0602 88.0535 57.86C87.7998 57.6598 87.4537 57.5598 87.0154 57.5598C86.7247 57.5598 86.4571 57.6212 86.2126 57.744C85.9681 57.8623 85.7581 58.0397 85.5829 58.2762C85.4076 58.5128 85.2714 58.8015 85.1745 59.1427C85.0777 59.4837 85.0293 59.8772 85.0293 60.3229V60.6095C85.0293 60.9597 85.0777 61.2895 85.1745 61.5987C85.276 61.9036 85.4214 62.1718 85.6105 62.4039C85.8043 62.6358 86.0373 62.8177 86.3095 62.9496C86.5863 63.0816 86.9 63.1475 87.2507 63.1475C87.7028 63.1475 88.0857 63.0565 88.3995 62.8745C88.7132 62.6927 88.9877 62.4493 89.223 62.1446L89.9982 62.7518C89.8367 62.9928 89.6313 63.2226 89.3822 63.4409C89.1331 63.6592 88.8263 63.8365 88.4618 63.973C88.1019 64.1095 87.6752 64.1777 87.1815 64.1777ZM100.67 61.5306C100.67 61.2985 100.633 61.094 100.559 60.9165C100.49 60.7346 100.365 60.5708 100.185 60.4253C100.01 60.2797 99.7653 60.141 99.4516 60.0091C99.1425 59.8772 98.7503 59.743 98.2751 59.6066C97.7768 59.461 97.327 59.2995 96.9256 59.1222C96.5242 58.9402 96.1805 58.7333 95.8945 58.5013C95.6084 58.2694 95.3892 58.0033 95.2369 57.703C95.0847 57.4029 95.0086 57.0595 95.0086 56.6729C95.0086 56.2862 95.0893 55.9292 95.2509 55.6018C95.4123 55.2743 95.643 54.99 95.9429 54.7489C96.2474 54.5033 96.6095 54.3122 97.0294 54.1758C97.4493 54.0394 97.9176 53.9712 98.4343 53.9712C99.1909 53.9712 99.8323 54.1144 100.358 54.401C100.889 54.683 101.292 55.0536 101.569 55.5131C101.846 55.9679 101.984 56.4546 101.984 56.9731H100.656C100.656 56.6001 100.575 56.2704 100.414 55.9838C100.252 55.6927 100.008 55.4653 99.68 55.3015C99.3524 55.1332 98.9372 55.0491 98.4343 55.0491C97.959 55.0491 97.5669 55.1196 97.2578 55.2606C96.9487 55.4016 96.7179 55.5926 96.5657 55.8337C96.418 56.0748 96.3442 56.3499 96.3442 56.6593C96.3442 56.8684 96.3881 57.0595 96.4758 57.2323C96.5681 57.4007 96.7087 57.5575 96.8979 57.703C97.0916 57.8486 97.3362 57.9828 97.6315 58.1056C97.9314 58.2284 98.2889 58.3467 98.7042 58.4604C99.2763 58.6196 99.7699 58.797 100.185 58.9926C100.6 59.1881 100.942 59.4087 101.209 59.6543C101.482 59.8955 101.682 60.1706 101.811 60.4799C101.945 60.7846 102.012 61.1303 102.012 61.5169C102.012 61.9217 101.929 62.2878 101.763 62.6153C101.597 62.9428 101.359 63.2226 101.05 63.4545C100.741 63.6865 100.37 63.8661 99.9361 63.9935C99.507 64.1163 99.0271 64.1777 98.4966 64.1777C98.0306 64.1777 97.5715 64.114 97.1194 63.9866C96.6719 63.8594 96.2636 63.6683 95.8945 63.4135C95.53 63.1589 95.2369 62.8451 95.0155 62.472C94.7986 62.0945 94.6902 61.6579 94.6902 61.1621H96.019C96.019 61.5032 96.0859 61.7967 96.2197 62.0422C96.3534 62.2833 96.5357 62.4834 96.7665 62.6426C97.0017 62.8018 97.267 62.9201 97.5623 62.9974C97.8622 63.0702 98.1736 63.1066 98.4966 63.1066C98.9625 63.1066 99.357 63.0429 99.68 62.9155C100.003 62.7881 100.247 62.6063 100.414 62.3698C100.584 62.1332 100.67 61.8535 100.67 61.5306ZM106.628 64.1777C106.107 64.1777 105.634 64.0913 105.209 63.9184C104.79 63.7411 104.427 63.4932 104.123 63.1748C103.823 62.8564 103.592 62.4789 103.431 62.0422C103.269 61.6056 103.189 61.128 103.189 60.6095V60.3229C103.189 59.7225 103.279 59.1881 103.459 58.7197C103.638 58.2466 103.883 57.8464 104.192 57.5188C104.501 57.1914 104.852 56.9435 105.244 56.7753C105.636 56.6069 106.042 56.5228 106.462 56.5228C106.997 56.5228 107.459 56.6138 107.846 56.7956C108.238 56.9776 108.559 57.2323 108.808 57.5598C109.057 57.8827 109.242 58.2649 109.362 58.706C109.482 59.1427 109.542 59.6202 109.542 60.1387V60.7051H103.95V59.6748H108.261V59.5793C108.243 59.2518 108.174 58.9334 108.054 58.6242C107.938 58.3148 107.754 58.0602 107.5 57.86C107.246 57.6598 106.9 57.5598 106.462 57.5598C106.171 57.5598 105.904 57.6212 105.659 57.744C105.415 57.8623 105.205 58.0397 105.03 58.2762C104.854 58.5128 104.718 58.8015 104.621 59.1427C104.524 59.4837 104.476 59.8772 104.476 60.3229V60.6095C104.476 60.9597 104.524 61.2895 104.621 61.5987C104.723 61.9036 104.868 62.1718 105.057 62.4039C105.251 62.6358 105.484 62.8177 105.756 62.9496C106.033 63.0816 106.347 63.1475 106.697 63.1475C107.15 63.1475 107.532 63.0565 107.846 62.8745C108.16 62.6927 108.434 62.4493 108.67 62.1446L109.445 62.7518C109.283 62.9928 109.078 63.2226 108.829 63.4409C108.58 63.6592 108.273 63.8365 107.909 63.973C107.549 64.1095 107.122 64.1777 106.628 64.1777ZM112.317 57.819V64.0412H111.037V56.6593H112.282L112.317 57.819ZM114.656 56.6183L114.649 57.7918C114.543 57.7691 114.441 57.7554 114.345 57.7509C114.252 57.7417 114.146 57.7372 114.026 57.7372C113.731 57.7372 113.47 57.7827 113.244 57.8736C113.018 57.9646 112.827 58.0919 112.67 58.2557C112.513 58.4195 112.388 58.615 112.296 58.8425C112.208 59.0654 112.151 59.3109 112.123 59.5793L111.763 59.784C111.763 59.3382 111.807 58.9198 111.895 58.5286C111.987 58.1375 112.128 57.7918 112.317 57.4916C112.506 57.1869 112.746 56.9504 113.037 56.782C113.332 56.6092 113.682 56.5228 114.089 56.5228C114.181 56.5228 114.287 56.5341 114.407 56.5569C114.527 56.5751 114.61 56.5956 114.656 56.6183ZM118.241 62.9019L120.289 56.6593H121.597L118.905 64.0412H118.047L118.241 62.9019ZM116.531 56.6593L118.642 62.936L118.787 64.0412H117.929L115.217 56.6593H116.531ZM124.22 56.6593V64.0412H122.933V56.6593H124.22ZM122.836 54.7011C122.836 54.4964 122.898 54.3236 123.022 54.1826C123.152 54.0416 123.341 53.9712 123.591 53.9712C123.835 53.9712 124.022 54.0416 124.15 54.1826C124.285 54.3236 124.351 54.4964 124.351 54.7011C124.351 54.8968 124.285 55.065 124.15 55.206C124.022 55.3425 123.835 55.4107 123.591 55.4107C123.341 55.4107 123.152 55.3425 123.022 55.206C122.898 55.065 122.836 54.8968 122.836 54.7011ZM129.272 63.1407C129.576 63.1407 129.858 63.0792 130.116 62.9565C130.375 62.8337 130.587 62.6654 130.753 62.4516C130.919 62.2333 131.014 61.9854 131.036 61.7079H132.255C132.232 62.1446 132.082 62.5516 131.805 62.9291C131.532 63.3021 131.176 63.6046 130.733 63.8365C130.29 64.064 129.803 64.1777 129.272 64.1777C128.71 64.1777 128.218 64.0799 127.798 63.8843C127.383 63.6888 127.037 63.4204 126.76 63.0792C126.488 62.7382 126.282 62.347 126.144 61.9058C126.011 61.46 125.943 60.9893 125.943 60.4935V60.2069C125.943 59.7111 126.011 59.2427 126.144 58.8015C126.282 58.3558 126.488 57.9624 126.76 57.6212C127.037 57.2801 127.383 57.0117 127.798 56.8161C128.218 56.6206 128.71 56.5228 129.272 56.5228C129.858 56.5228 130.37 56.641 130.808 56.8776C131.247 57.1096 131.59 57.4279 131.839 57.8328C132.093 58.233 132.232 58.6878 132.255 59.1972H131.036C131.014 58.8925 130.926 58.6173 130.774 58.3717C130.626 58.1261 130.423 57.9306 130.165 57.785C129.911 57.6348 129.613 57.5598 129.272 57.5598C128.88 57.5598 128.55 57.6371 128.282 57.7918C128.02 57.9419 127.81 58.1466 127.652 58.4059C127.5 58.6605 127.39 58.9447 127.321 59.2587C127.256 59.5679 127.224 59.884 127.224 60.2069V60.4935C127.224 60.8165 127.256 61.1348 127.321 61.4486C127.385 61.7625 127.493 62.0468 127.645 62.3015C127.802 62.5562 128.013 62.7609 128.276 62.9155C128.543 63.0656 128.875 63.1407 129.272 63.1407ZM136.801 64.1777C136.28 64.1777 135.808 64.0913 135.383 63.9184C134.963 63.7411 134.601 63.4932 134.296 63.1748C133.996 62.8564 133.766 62.4789 133.604 62.0422C133.443 61.6056 133.362 61.128 133.362 60.6095V60.3229C133.362 59.7225 133.452 59.1881 133.632 58.7197C133.812 58.2466 134.056 57.8464 134.366 57.5188C134.675 57.1914 135.025 56.9435 135.417 56.7753C135.809 56.6069 136.215 56.5228 136.636 56.5228C137.171 56.5228 137.632 56.6138 138.02 56.7956C138.412 56.9776 138.732 57.2323 138.982 57.5598C139.231 57.8827 139.415 58.2649 139.535 58.706C139.655 59.1427 139.715 59.6202 139.715 60.1387V60.7051H134.124V59.6748H138.435V59.5793C138.417 59.2518 138.347 58.9334 138.227 58.6242C138.112 58.3148 137.927 58.0602 137.674 57.86C137.42 57.6598 137.074 57.5598 136.636 57.5598C136.345 57.5598 136.077 57.6212 135.833 57.744C135.588 57.8623 135.378 58.0397 135.203 58.2762C135.027 58.5128 134.891 58.8015 134.795 59.1427C134.698 59.4837 134.649 59.8772 134.649 60.3229V60.6095C134.649 60.9597 134.698 61.2895 134.795 61.5987C134.896 61.9036 135.041 62.1718 135.23 62.4039C135.424 62.6358 135.658 62.8177 135.93 62.9496C136.206 63.0816 136.52 63.1475 136.871 63.1475C137.323 63.1475 137.706 63.0565 138.02 62.8745C138.333 62.6927 138.608 62.4493 138.843 62.1446L139.618 62.7518C139.456 62.9928 139.252 63.2226 139.003 63.4409C138.754 63.6592 138.447 63.8365 138.082 63.973C137.722 64.1095 137.295 64.1777 136.801 64.1777ZM145.57 62.0832C145.57 61.9012 145.528 61.733 145.446 61.5783C145.367 61.4191 145.204 61.2758 144.954 61.1484C144.71 61.0165 144.34 60.9029 143.847 60.8074C143.432 60.7209 143.055 60.6185 142.719 60.5004C142.387 60.3821 142.103 60.2388 141.867 60.0705C141.637 59.9022 141.46 59.7044 141.334 59.477C141.21 59.2496 141.148 58.9834 141.148 58.6787C141.148 58.3876 141.213 58.1124 141.341 57.8531C141.475 57.5939 141.663 57.3642 141.902 57.1642C142.147 56.964 142.44 56.807 142.781 56.6934C143.122 56.5796 143.503 56.5228 143.923 56.5228C144.522 56.5228 145.035 56.6274 145.459 56.8366C145.884 57.0459 146.209 57.3255 146.435 57.6758C146.661 58.0215 146.774 58.4059 146.774 58.8288H145.494C145.494 58.6242 145.432 58.4262 145.308 58.2353C145.187 58.0397 145.01 57.8782 144.774 57.7509C144.543 57.6235 144.26 57.5598 143.923 57.5598C143.568 57.5598 143.28 57.6144 143.058 57.7235C142.841 57.8282 142.682 57.9623 142.58 58.1261C142.484 58.2898 142.435 58.4627 142.435 58.6446C142.435 58.781 142.458 58.9039 142.504 59.013C142.554 59.1176 142.643 59.2155 142.767 59.3064C142.892 59.3928 143.067 59.4747 143.293 59.552C143.519 59.6293 143.808 59.7066 144.158 59.784C144.771 59.9204 145.277 60.0842 145.674 60.2752C146.071 60.4662 146.366 60.7005 146.559 60.9779C146.753 61.2553 146.85 61.592 146.85 61.9876C146.85 62.3106 146.782 62.6063 146.642 62.8745C146.509 63.1429 146.313 63.3749 146.054 63.5705C145.8 63.7616 145.496 63.9116 145.141 64.0208C144.79 64.1254 144.396 64.1777 143.958 64.1777C143.297 64.1777 142.74 64.0617 142.283 63.8298C141.826 63.5977 141.48 63.2976 141.245 62.9291C141.009 62.5607 140.891 62.1718 140.891 61.7625H142.179C142.198 62.1081 142.299 62.3834 142.484 62.5881C142.668 62.7881 142.895 62.9315 143.161 63.0179C143.43 63.0997 143.694 63.1407 143.958 63.1407C144.308 63.1407 144.601 63.0952 144.836 63.0042C145.076 62.9132 145.258 62.7881 145.383 62.629C145.507 62.4698 145.57 62.2878 145.57 62.0832Z" fill="black"/>
<path d="M8.67532 74.9309V75.7343H4.58528V74.9309H8.67532ZM4.741 71.7278V79.1779H3.73926V71.7278H4.741ZM9.5473 71.7278V79.1779H8.55075V71.7278H9.5473ZM13.5128 79.2803C13.1217 79.2803 12.767 79.2154 12.4487 79.0858C12.1338 78.9528 11.8622 78.7669 11.6338 78.5281C11.4089 78.2893 11.2359 78.0062 11.1148 77.6787C10.9937 77.3513 10.9331 76.993 10.9331 76.6042V76.3893C10.9331 75.939 11.0006 75.5381 11.1356 75.1868C11.2705 74.832 11.4539 74.5318 11.6857 74.2861C11.9176 74.0406 12.1806 73.8546 12.4747 73.7284C12.7688 73.6022 13.0733 73.5391 13.3882 73.5391C13.7896 73.5391 14.1356 73.6073 14.4263 73.7438C14.7203 73.8802 14.9609 74.0713 15.1478 74.3169C15.3346 74.5591 15.4729 74.8456 15.5629 75.1765C15.6529 75.504 15.6979 75.8621 15.6979 76.251V76.6758H11.5041V75.9031H14.7377V75.8315C14.7239 75.5858 14.6719 75.3471 14.582 75.1151C14.4955 74.8831 14.357 74.6922 14.1668 74.5421C13.9765 74.3919 13.7169 74.3169 13.3882 74.3169C13.1701 74.3169 12.9695 74.3629 12.7861 74.455C12.6027 74.5437 12.4453 74.6768 12.3137 74.8541C12.1823 75.0316 12.0802 75.2482 12.0075 75.504C11.9349 75.7599 11.8985 76.055 11.8985 76.3893V76.6042C11.8985 76.8668 11.9349 77.1141 12.0075 77.3461C12.0837 77.5746 12.1927 77.7759 12.3345 77.9499C12.4799 78.1238 12.6546 78.2603 12.8588 78.3593C13.0663 78.4581 13.3017 78.5076 13.5646 78.5076C13.9037 78.5076 14.191 78.4394 14.4263 78.3029C14.6615 78.1664 14.8675 77.984 15.044 77.7554L15.6253 78.2108C15.5041 78.3916 15.3501 78.564 15.1633 78.7277C14.9764 78.8914 14.7463 79.0245 14.473 79.1268C14.2031 79.2291 13.8831 79.2803 13.5128 79.2803ZM17.8623 71.3184V79.1779H16.8969V71.3184H17.8623ZM20.3641 74.7058V81.3066H19.3987V73.6414H20.281L20.3641 74.7058ZM24.1479 76.3636V76.4711C24.1479 76.8736 24.0995 77.2472 24.0025 77.5917C23.9057 77.9329 23.7638 78.2296 23.577 78.482C23.3935 78.7344 23.1669 78.9306 22.897 79.0705C22.6271 79.2103 22.3174 79.2803 21.9679 79.2803C21.6115 79.2803 21.2966 79.2223 21.0233 79.1063C20.7499 78.9904 20.518 78.8214 20.3277 78.5997C20.1375 78.378 19.9852 78.112 19.871 77.8015C19.7602 77.4911 19.6842 77.1414 19.6426 76.7525V76.1794C19.6842 75.77 19.762 75.4034 19.8762 75.0793C19.9904 74.7553 20.1409 74.479 20.3277 74.2504C20.518 74.0183 20.7482 73.8427 21.0181 73.7233C21.288 73.6006 21.5994 73.5391 21.9524 73.5391C22.3053 73.5391 22.6185 73.6073 22.8918 73.7438C23.1651 73.8769 23.3953 74.0678 23.5822 74.3169C23.769 74.5659 23.9091 74.8644 24.0025 75.2123C24.0995 75.5568 24.1479 75.9406 24.1479 76.3636ZM23.1825 76.4711V76.3636C23.1825 76.0873 23.1531 75.828 23.0942 75.5858C23.0354 75.3403 22.9436 75.1253 22.8192 74.9411C22.698 74.7535 22.5423 74.6068 22.352 74.5011C22.1616 74.3919 21.935 74.3374 21.6721 74.3374C21.4298 74.3374 21.2188 74.3782 21.0388 74.4601C20.8623 74.5421 20.7118 74.6529 20.5872 74.7928C20.4627 74.9292 20.3606 75.0861 20.281 75.2635C20.2049 75.4375 20.1479 75.6183 20.1097 75.8059V77.1312C20.1789 77.37 20.2759 77.5951 20.4004 77.8067C20.525 78.0147 20.6911 78.1836 20.8987 78.3132C21.1063 78.4394 21.3676 78.5025 21.6825 78.5025C21.942 78.5025 22.1652 78.4496 22.352 78.3439C22.5423 78.2347 22.698 78.0863 22.8192 77.8988C22.9436 77.7111 23.0354 77.4962 23.0942 77.254C23.1531 77.0084 23.1825 76.7474 23.1825 76.4711ZM26.4161 73.6414V79.1779H25.4507V73.6414H26.4161ZM25.378 72.1729C25.378 72.0194 25.4247 71.8897 25.5181 71.784C25.6151 71.6783 25.7569 71.6254 25.9438 71.6254C26.1272 71.6254 26.2673 71.6783 26.3641 71.784C26.4645 71.8897 26.5147 72.0194 26.5147 72.1729C26.5147 72.3196 26.4645 72.4458 26.3641 72.5516C26.2673 72.6539 26.1272 72.705 25.9438 72.705C25.7569 72.705 25.6151 72.6539 25.5181 72.5516C25.4247 72.4458 25.378 72.3196 25.378 72.1729ZM28.9178 74.8235V79.1779H27.9577V73.6414H28.8659L28.9178 74.8235ZM28.6895 76.1999L28.2898 76.1846C28.2932 75.8059 28.3504 75.4562 28.4611 75.1356C28.5718 74.8115 28.7275 74.5301 28.9282 74.2913C29.129 74.0524 29.3677 73.8682 29.6445 73.7386C29.9248 73.6057 30.2345 73.5391 30.5736 73.5391C30.8504 73.5391 31.0995 73.5767 31.321 73.6517C31.5424 73.7233 31.7311 73.8393 31.8867 73.9996C32.0459 74.1599 32.167 74.368 32.25 74.6239C32.3331 74.8764 32.3746 75.185 32.3746 75.5501V79.1779H31.4092V75.5398C31.4092 75.2499 31.366 75.0178 31.2795 74.8439C31.1929 74.6665 31.0667 74.5386 30.9006 74.4601C30.7344 74.3782 30.5303 74.3374 30.2881 74.3374C30.0494 74.3374 29.8314 74.3869 29.6341 74.4857C29.4403 74.5847 29.2725 74.7212 29.1306 74.8951C28.9922 75.0691 28.8832 75.2686 28.8037 75.4937C28.7275 75.7155 28.6895 75.9509 28.6895 76.1999ZM37.4716 73.6414H38.3436V79.0602C38.3436 79.5481 38.2433 79.9643 38.0425 80.3088C37.8418 80.6533 37.5616 80.9143 37.2017 81.0917C36.8453 81.2724 36.4335 81.3629 35.9664 81.3629C35.7727 81.3629 35.5442 81.3322 35.2812 81.2708C35.0217 81.2128 34.7657 81.1121 34.5131 80.9689C34.2639 80.829 34.0546 80.6397 33.885 80.4009L34.3885 79.838C34.6238 80.1177 34.8695 80.3122 35.1255 80.4214C35.385 80.5305 35.6411 80.5851 35.8937 80.5851C36.1982 80.5851 36.4612 80.5289 36.6827 80.4163C36.9042 80.3037 37.0754 80.1365 37.1965 79.9148C37.3211 79.6964 37.3833 79.427 37.3833 79.1063V74.8593L37.4716 73.6414ZM33.6048 76.4711V76.3636C33.6048 75.9406 33.6549 75.5568 33.7552 75.2123C33.859 74.8644 34.0062 74.5659 34.1965 74.3169C34.3902 74.0678 34.6238 73.8769 34.8971 73.7438C35.1705 73.6073 35.4785 73.5391 35.8211 73.5391C36.174 73.5391 36.4819 73.6006 36.7449 73.7233C37.0114 73.8427 37.2363 74.0183 37.4197 74.2504C37.6066 74.479 37.7536 74.7553 37.8609 75.0793C37.9681 75.4034 38.0425 75.77 38.0841 76.1794V76.6502C38.0461 77.0561 37.9716 77.4211 37.8609 77.7452C37.7536 78.0693 37.6066 78.3456 37.4197 78.5741C37.2363 78.8027 37.0114 78.9784 36.7449 79.1012C36.4785 79.2206 36.167 79.2803 35.8107 79.2803C35.475 79.2803 35.1705 79.2103 34.8971 79.0705C34.6272 78.9306 34.3954 78.7344 34.2017 78.482C34.0079 78.2296 33.859 77.9329 33.7552 77.5917C33.6549 77.2472 33.6048 76.8736 33.6048 76.4711ZM34.565 76.3636V76.4711C34.565 76.7474 34.5926 77.0067 34.648 77.2489C34.7068 77.4911 34.7951 77.7043 34.9127 77.8885C35.0339 78.0727 35.1878 78.2177 35.3746 78.3234C35.5615 78.4258 35.7847 78.4769 36.0442 78.4769C36.3626 78.4769 36.6255 78.4104 36.8332 78.2774C37.0408 78.1443 37.2051 77.9686 37.3263 77.7503C37.4509 77.532 37.5477 77.2949 37.617 77.0391V75.8059C37.5789 75.6183 37.5201 75.4375 37.4405 75.2635C37.3643 75.0861 37.264 74.9292 37.1394 74.7928C37.0183 74.6529 36.8678 74.5421 36.6879 74.4601C36.5079 74.3782 36.2968 74.3374 36.0546 74.3374C35.7917 74.3374 35.565 74.3919 35.3746 74.5011C35.1878 74.6068 35.0339 74.7535 34.9127 74.9411C34.7951 75.1253 34.7068 75.3403 34.648 75.5858C34.5926 75.828 34.565 76.0873 34.565 76.3636ZM42.9319 71.7278L44.8938 75.4682L46.861 71.7278H47.9977L45.3922 76.3944V79.1779H44.3903V76.3944L41.7848 71.7278H42.9319ZM48.2261 76.4711V76.3534C48.2261 75.9542 48.2849 75.5842 48.4025 75.243C48.5202 74.8985 48.6898 74.6001 48.9112 74.3476C49.1327 74.0917 49.4008 73.8939 49.7157 73.754C50.0306 73.6108 50.3836 73.5391 50.7746 73.5391C51.169 73.5391 51.5237 73.6108 51.8386 73.754C52.1569 73.8939 52.4268 74.0917 52.6483 74.3476C52.8733 74.6001 53.0445 74.8985 53.1622 75.243C53.2798 75.5842 53.3386 75.9542 53.3386 76.3534V76.4711C53.3386 76.8703 53.2798 77.2403 53.1622 77.5815C53.0445 77.9226 52.8733 78.2211 52.6483 78.4769C52.4268 78.7293 52.1587 78.9273 51.8438 79.0705C51.5323 79.2103 51.1794 79.2803 50.7849 79.2803C50.3905 79.2803 50.0358 79.2103 49.7209 79.0705C49.406 78.9273 49.1361 78.7293 48.9112 78.4769C48.6898 78.2211 48.5202 77.9226 48.4025 77.5815C48.2849 77.2403 48.2261 76.8703 48.2261 76.4711ZM49.1863 76.3534V76.4711C49.1863 76.7474 49.2192 77.0084 49.2849 77.254C49.3507 77.4962 49.4492 77.7111 49.5808 77.8988C49.7157 78.0863 49.8835 78.2347 50.0842 78.3439C50.285 78.4496 50.5185 78.5025 50.7849 78.5025C51.048 78.5025 51.2781 78.4496 51.4753 78.3439C51.676 78.2347 51.842 78.0863 51.9736 77.8988C52.1051 77.7111 52.2037 77.4962 52.2694 77.254C52.3386 77.0084 52.3732 76.7474 52.3732 76.4711V76.3534C52.3732 76.0805 52.3386 75.823 52.2694 75.5807C52.2037 75.3351 52.1033 75.1186 51.9684 74.9309C51.8368 74.7399 51.6708 74.5898 51.4701 74.4806C51.2729 74.3715 51.041 74.3169 50.7746 74.3169C50.5116 74.3169 50.2798 74.3715 50.0791 74.4806C49.8819 74.5898 49.7157 74.7399 49.5808 74.9309C49.4492 75.1186 49.3507 75.3351 49.2849 75.5807C49.2192 75.823 49.1863 76.0805 49.1863 76.3534ZM57.9788 77.8988V73.6414H58.9442V79.1779H58.0256L57.9788 77.8988ZM58.1605 76.732L58.5601 76.7218C58.5601 77.0902 58.5203 77.4314 58.4407 77.7452C58.3647 78.0556 58.2401 78.3252 58.067 78.5537C57.8941 78.7823 57.6675 78.9614 57.3872 79.091C57.1068 79.2172 56.7661 79.2803 56.3646 79.2803C56.0913 79.2803 55.8404 79.2411 55.612 79.1626C55.3871 79.0841 55.1933 78.963 55.0307 78.7993C54.868 78.6356 54.7418 78.4224 54.6518 78.1597C54.5653 77.897 54.5221 77.5815 54.5221 77.2131V73.6414H55.4823V77.2233C55.4823 77.4724 55.5099 77.6787 55.5653 77.8424C55.6242 78.0027 55.702 78.1307 55.7988 78.2262C55.8992 78.3183 56.0099 78.3831 56.1311 78.4206C56.2556 78.4581 56.3836 78.4769 56.5152 78.4769C56.9235 78.4769 57.247 78.4001 57.4857 78.2467C57.7245 78.0897 57.8958 77.88 57.9996 77.6173C58.1068 77.3513 58.1605 77.0561 58.1605 76.732ZM65.9876 72.3878L63.4858 79.1779H62.4633L65.344 71.7278H66.0032L65.9876 72.3878ZM68.0845 79.1779L65.5775 72.3878L65.562 71.7278H66.2211L69.1122 79.1779H68.0845ZM67.9548 76.4199V77.2284H63.709V76.4199H67.9548ZM70.9393 74.5113V79.1779H69.979V73.6414H70.9133L70.9393 74.5113ZM72.6936 73.6108L72.6884 74.4908C72.6088 74.4738 72.5327 74.4636 72.4601 74.4601C72.3909 74.4533 72.3112 74.45 72.2212 74.45C71.9998 74.45 71.8043 74.4841 71.6347 74.5522C71.4652 74.6204 71.3216 74.716 71.204 74.8388C71.0863 74.9616 70.9929 75.1083 70.9237 75.2789C70.8579 75.446 70.8147 75.6302 70.7939 75.8315L70.524 75.985C70.524 75.6507 70.5568 75.3369 70.6226 75.0435C70.6918 74.7502 70.7974 74.4908 70.9393 74.2656C71.0811 74.0372 71.261 73.8597 71.479 73.7335C71.7005 73.6039 71.9635 73.5391 72.268 73.5391C72.3372 73.5391 72.4167 73.5477 72.5067 73.5647C72.5967 73.5783 72.659 73.5937 72.6936 73.6108ZM73.2231 76.4711V76.3534C73.2231 75.9542 73.2819 75.5842 73.3995 75.243C73.5172 74.8985 73.6866 74.6001 73.9081 74.3476C74.1296 74.0917 74.3978 73.8939 74.7127 73.754C75.0275 73.6108 75.3805 73.5391 75.7715 73.5391C76.166 73.5391 76.5207 73.6108 76.8356 73.754C77.1539 73.8939 77.4238 74.0917 77.6452 74.3476C77.8701 74.6001 78.0415 74.8985 78.1591 75.243C78.2768 75.5842 78.3356 75.9542 78.3356 76.3534V76.4711C78.3356 76.8703 78.2768 77.2403 78.1591 77.5815C78.0415 77.9226 77.8701 78.2211 77.6452 78.4769C77.4238 78.7293 77.1557 78.9273 76.8408 79.0705C76.5293 79.2103 76.1764 79.2803 75.7819 79.2803C75.3874 79.2803 75.0327 79.2103 74.7179 79.0705C74.403 78.9273 74.1331 78.7293 73.9081 78.4769C73.6866 78.2211 73.5172 77.9226 73.3995 77.5815C73.2819 77.2403 73.2231 76.8703 73.2231 76.4711ZM74.1833 76.3534V76.4711C74.1833 76.7474 74.2161 77.0084 74.2819 77.254C74.3476 77.4962 74.4462 77.7111 74.5777 77.8988C74.7127 78.0863 74.8805 78.2347 75.0812 78.3439C75.2818 78.4496 75.5155 78.5025 75.7819 78.5025C76.0448 78.5025 76.2749 78.4496 76.4721 78.3439C76.6729 78.2347 76.839 78.0863 76.9705 77.8988C77.1019 77.7111 77.2005 77.4962 77.2663 77.254C77.3355 77.0084 77.3701 76.7474 77.3701 76.4711V76.3534C77.3701 76.0805 77.3355 75.823 77.2663 75.5807C77.2005 75.3351 77.1003 75.1186 76.9653 74.9309C76.8338 74.7399 76.6677 74.5898 76.467 74.4806C76.2698 74.3715 76.038 74.3169 75.7715 74.3169C75.5085 74.3169 75.2766 74.3715 75.076 74.4806C74.8787 74.5898 74.7127 74.7399 74.5777 74.9309C74.4462 75.1186 74.3476 75.3351 74.2819 75.5807C74.2161 75.823 74.1833 76.0805 74.1833 76.3534ZM82.9758 77.8988V73.6414H83.9412V79.1779H83.0224L82.9758 77.8988ZM83.1574 76.732L83.5571 76.7218C83.5571 77.0902 83.5173 77.4314 83.4377 77.7452C83.3615 78.0556 83.237 78.3252 83.064 78.5537C82.891 78.7823 82.6643 78.9614 82.384 79.091C82.1038 79.2172 81.7629 79.2803 81.3615 79.2803C81.0881 79.2803 80.8373 79.2411 80.609 79.1626C80.3841 79.0841 80.1903 78.963 80.0276 78.7993C79.865 78.6356 79.7387 78.4224 79.6487 78.1597C79.5623 77.897 79.5189 77.5815 79.5189 77.2131V73.6414H80.4791V77.2233C80.4791 77.4724 80.5069 77.6787 80.5622 77.8424C80.621 78.0027 80.699 78.1307 80.7958 78.2262C80.8961 78.3183 81.0069 78.3831 81.1279 78.4206C81.2525 78.4581 81.3806 78.4769 81.512 78.4769C81.9203 78.4769 82.244 78.4001 82.4827 78.2467C82.7215 78.0897 82.8927 77.88 82.9966 77.6173C83.1038 77.3513 83.1574 77.0561 83.1574 76.732ZM86.3651 74.8235V79.1779H85.4048V73.6414H86.3132L86.3651 74.8235ZM86.1367 76.1999L85.7371 76.1846C85.7405 75.8059 85.7977 75.4562 85.9083 75.1356C86.019 74.8115 86.1748 74.5301 86.3755 74.2913C86.5761 74.0524 86.8149 73.8682 87.0918 73.7386C87.3721 73.6057 87.6817 73.5391 88.0208 73.5391C88.2976 73.5391 88.5468 73.5767 88.7682 73.6517C88.9897 73.7233 89.1783 73.8393 89.334 73.9996C89.4932 74.1599 89.6143 74.368 89.6973 74.6239C89.7803 74.8764 89.8219 75.185 89.8219 75.5501V79.1779H88.8565V75.5398C88.8565 75.2499 88.8132 75.0178 88.7267 74.8439C88.6402 74.6665 88.514 74.5386 88.3478 74.4601C88.1817 74.3782 87.9776 74.3374 87.7354 74.3374C87.4966 74.3374 87.2786 74.3869 87.0814 74.4857C86.8876 74.5847 86.7197 74.7212 86.5779 74.8951C86.4395 75.0691 86.3305 75.2686 86.2508 75.4937C86.1748 75.7155 86.1367 75.9509 86.1367 76.1999ZM94.8202 78.1033V71.3184H95.7857V79.1779H94.9032L94.8202 78.1033ZM91.0416 76.4711V76.3636C91.0416 75.9406 91.0935 75.5568 91.1973 75.2123C91.3045 74.8644 91.4551 74.5659 91.649 74.3169C91.8461 74.0678 92.0797 73.8769 92.3496 73.7438C92.623 73.6073 92.9275 73.5391 93.2632 73.5391C93.6161 73.5391 93.924 73.6006 94.187 73.7233C94.4535 73.8427 94.6784 74.0183 94.8618 74.2504C95.0486 74.479 95.1957 74.7553 95.3029 75.0793C95.4102 75.4034 95.4846 75.77 95.5262 76.1794V76.6502C95.488 77.0561 95.4137 77.4211 95.3029 77.7452C95.1957 78.0693 95.0486 78.3456 94.8618 78.5741C94.6784 78.8027 94.4535 78.9784 94.187 79.1012C93.9206 79.2206 93.6091 79.2803 93.2528 79.2803C92.924 79.2803 92.623 79.2103 92.3496 79.0705C92.0797 78.9306 91.8461 78.7344 91.649 78.482C91.4551 78.2296 91.3045 77.9329 91.1973 77.5917C91.0935 77.2472 91.0416 76.8736 91.0416 76.4711ZM92.0071 76.3636V76.4711C92.0071 76.7474 92.0347 77.0067 92.0901 77.2489C92.1489 77.4911 92.2389 77.7043 92.36 77.8885C92.481 78.0727 92.6351 78.2177 92.8219 78.3234C93.0088 78.4258 93.232 78.4769 93.4915 78.4769C93.8098 78.4769 94.071 78.4104 94.2753 78.2774C94.4829 78.1443 94.649 77.9686 94.7736 77.7503C94.898 77.532 94.995 77.2949 95.0642 77.0391V75.8059C95.0227 75.6183 94.9621 75.4375 94.8825 75.2635C94.8064 75.0861 94.706 74.9292 94.5815 74.7928C94.4603 74.6529 94.3099 74.5421 94.1299 74.4601C93.9534 74.3782 93.7441 74.3374 93.5019 74.3374C93.2388 74.3374 93.0122 74.3919 92.8219 74.5011C92.6351 74.6068 92.481 74.7535 92.36 74.9411C92.2389 75.1253 92.1489 75.3403 92.0901 75.5858C92.0347 75.828 92.0071 76.0873 92.0071 76.3636ZM102.647 71.7278V79.1779H101.661V71.7278H102.647ZM105.076 71.7278V72.5362H99.2373V71.7278H105.076ZM107.013 71.3184V79.1779H106.052V71.3184H107.013ZM106.784 76.1999L106.384 76.1846C106.388 75.8059 106.445 75.4562 106.556 75.1356C106.666 74.8115 106.822 74.5301 107.023 74.2913C107.224 74.0524 107.462 73.8682 107.739 73.7386C108.019 73.6057 108.329 73.5391 108.668 73.5391C108.945 73.5391 109.194 73.5767 109.416 73.6517C109.637 73.7233 109.826 73.8393 109.981 73.9996C110.141 74.1599 110.262 74.368 110.345 74.6239C110.428 74.8764 110.469 75.185 110.469 75.5501V79.1779H109.504V75.5398C109.504 75.2499 109.461 75.0178 109.374 74.8439C109.288 74.6665 109.161 74.5386 108.995 74.4601C108.829 74.3782 108.625 74.3374 108.383 74.3374C108.144 74.3374 107.926 74.3869 107.729 74.4857C107.535 74.5847 107.367 74.7212 107.225 74.8951C107.087 75.0691 106.978 75.2686 106.898 75.4937C106.822 75.7155 106.784 75.9509 106.784 76.1999ZM114.238 79.2803C113.846 79.2803 113.492 79.2154 113.173 79.0858C112.859 78.9528 112.587 78.7669 112.359 78.5281C112.134 78.2893 111.961 78.0062 111.84 77.6787C111.718 77.3513 111.658 76.993 111.658 76.6042V76.3893C111.658 75.939 111.725 75.5381 111.86 75.1868C111.995 74.832 112.179 74.5318 112.41 74.2861C112.642 74.0406 112.905 73.8546 113.199 73.7284C113.494 73.6022 113.798 73.5391 114.113 73.5391C114.514 73.5391 114.86 73.6073 115.151 73.7438C115.445 73.8802 115.686 74.0713 115.872 74.3169C116.059 74.5591 116.198 74.8456 116.288 75.1765C116.378 75.504 116.423 75.8621 116.423 76.251V76.6758H112.229V75.9031H115.462V75.8315C115.449 75.5858 115.397 75.3471 115.307 75.1151C115.22 74.8831 115.082 74.6922 114.892 74.5421C114.701 74.3919 114.442 74.3169 114.113 74.3169C113.895 74.3169 113.694 74.3629 113.511 74.455C113.327 74.5437 113.17 74.6768 113.038 74.8541C112.907 75.0316 112.805 75.2482 112.732 75.504C112.66 75.7599 112.623 76.055 112.623 76.3893V76.6042C112.623 76.8668 112.66 77.1141 112.732 77.3461C112.808 77.5746 112.917 77.7759 113.059 77.9499C113.205 78.1238 113.379 78.2603 113.583 78.3593C113.791 78.4581 114.026 78.5076 114.289 78.5076C114.628 78.5076 114.916 78.4394 115.151 78.3029C115.386 78.1664 115.592 77.984 115.769 77.7554L116.35 78.2108C116.229 78.3916 116.075 78.564 115.888 78.7277C115.701 78.8914 115.471 79.0245 115.198 79.1268C114.928 79.2291 114.608 79.2803 114.238 79.2803ZM125.262 74.9309V75.7343H121.172V74.9309H125.262ZM121.328 71.7278V79.1779H120.326V71.7278H121.328ZM126.134 71.7278V79.1779H125.137V71.7278H126.134ZM127.514 76.4711V76.3534C127.514 75.9542 127.573 75.5842 127.69 75.243C127.809 74.8985 127.979 74.6001 128.199 74.3476C128.422 74.0917 128.69 73.8939 129.004 73.754C129.319 73.6108 129.672 73.5391 130.063 73.5391C130.458 73.5391 130.812 73.6108 131.127 73.754C131.445 73.8939 131.716 74.0917 131.936 74.3476C132.162 74.6001 132.333 74.8985 132.45 75.243C132.568 75.5842 132.627 75.9542 132.627 76.3534V76.4711C132.627 76.8703 132.568 77.2403 132.45 77.5815C132.333 77.9226 132.162 78.2211 131.936 78.4769C131.716 78.7293 131.447 78.9273 131.132 79.0705C130.82 79.2103 130.468 79.2803 130.074 79.2803C129.679 79.2803 129.324 79.2103 129.01 79.0705C128.694 78.9273 128.425 78.7293 128.199 78.4769C127.979 78.2211 127.809 77.9226 127.69 77.5815C127.573 77.2403 127.514 76.8703 127.514 76.4711ZM128.475 76.3534V76.4711C128.475 76.7474 128.508 77.0084 128.574 77.254C128.639 77.4962 128.738 77.7111 128.869 77.8988C129.004 78.0863 129.172 78.2347 129.372 78.3439C129.573 78.4496 129.807 78.5025 130.074 78.5025C130.336 78.5025 130.566 78.4496 130.764 78.3439C130.964 78.2347 131.131 78.0863 131.262 77.8988C131.393 77.7111 131.492 77.4962 131.557 77.254C131.627 77.0084 131.661 76.7474 131.661 76.4711V76.3534C131.661 76.0805 131.627 75.823 131.557 75.5807C131.492 75.3351 131.392 75.1186 131.257 74.9309C131.125 74.7399 130.96 74.5898 130.759 74.4806C130.562 74.3715 130.329 74.3169 130.063 74.3169C129.8 74.3169 129.568 74.3715 129.368 74.4806C129.17 74.5898 129.004 74.7399 128.869 74.9309C128.738 75.1186 128.639 75.3351 128.574 75.5807C128.508 75.823 128.475 76.0805 128.475 76.3534ZM137.267 77.8988V73.6414H138.233V79.1779H137.314L137.267 77.8988ZM137.449 76.732L137.849 76.7218C137.849 77.0902 137.809 77.4314 137.73 77.7452C137.653 78.0556 137.529 78.3252 137.355 78.5537C137.183 78.7823 136.956 78.9614 136.675 79.091C136.395 79.2172 136.055 79.2803 135.653 79.2803C135.379 79.2803 135.129 79.2411 134.9 79.1626C134.675 79.0841 134.482 78.963 134.319 78.7993C134.157 78.6356 134.031 78.4224 133.94 78.1597C133.853 77.897 133.811 77.5815 133.811 77.2131V73.6414H134.771V77.2233C134.771 77.4724 134.798 77.6787 134.854 77.8424C134.913 78.0027 134.991 78.1307 135.088 78.2262C135.188 78.3183 135.298 78.3831 135.42 78.4206C135.544 78.4581 135.672 78.4769 135.803 78.4769C136.212 78.4769 136.536 78.4001 136.774 78.2467C137.013 78.0897 137.184 77.88 137.288 77.6173C137.396 77.3513 137.449 77.0561 137.449 76.732ZM142.967 77.7094C142.967 77.573 142.935 77.4467 142.872 77.3308C142.814 77.2113 142.692 77.104 142.504 77.0084C142.321 76.9095 142.044 76.8241 141.673 76.7525C141.363 76.6877 141.081 76.6109 140.828 76.5222C140.579 76.4336 140.366 76.3261 140.19 76.1999C140.016 76.0737 139.883 75.9252 139.79 75.7548C139.696 75.5842 139.649 75.3846 139.649 75.156C139.649 74.9377 139.697 74.7314 139.796 74.5369C139.895 74.3425 140.035 74.1702 140.215 74.0201C140.399 73.87 140.619 73.7523 140.875 73.667C141.13 73.5817 141.416 73.5391 141.731 73.5391C142.181 73.5391 142.565 73.6176 142.883 73.7745C143.202 73.9314 143.445 74.1412 143.615 74.4039C143.784 74.6632 143.869 74.9514 143.869 75.2686H142.909C142.909 75.1151 142.863 74.9667 142.77 74.8235C142.679 74.6768 142.546 74.5557 142.369 74.4601C142.197 74.3646 141.984 74.3169 141.731 74.3169C141.464 74.3169 141.248 74.3579 141.082 74.4397C140.92 74.5181 140.801 74.6188 140.724 74.7415C140.652 74.8644 140.615 74.994 140.615 75.1304C140.615 75.2328 140.633 75.3249 140.667 75.4067C140.705 75.4852 140.771 75.5586 140.864 75.6268C140.958 75.6917 141.089 75.753 141.259 75.811C141.428 75.869 141.644 75.927 141.907 75.985C142.368 76.0873 142.747 76.2102 143.045 76.3534C143.341 76.4967 143.563 76.6723 143.709 76.8805C143.854 77.0886 143.927 77.341 143.927 77.6377C143.927 77.88 143.875 78.1017 143.771 78.3029C143.671 78.5042 143.523 78.6782 143.329 78.8249C143.139 78.9681 142.911 79.0807 142.644 79.1626C142.381 79.2411 142.086 79.2803 141.757 79.2803C141.262 79.2803 140.843 79.1933 140.501 79.0194C140.158 78.8454 139.898 78.6202 139.722 78.3439C139.546 78.0676 139.458 77.7759 139.458 77.4689H140.423C140.437 77.7282 140.512 77.9345 140.652 78.0881C140.79 78.2382 140.959 78.3456 141.16 78.4104C141.36 78.4719 141.56 78.5025 141.757 78.5025C142.02 78.5025 142.239 78.4684 142.416 78.4001C142.596 78.3319 142.733 78.2382 142.826 78.1187C142.92 77.9994 142.967 77.8629 142.967 77.7094ZM147.519 79.2803C147.128 79.2803 146.772 79.2154 146.455 79.0858C146.139 78.9528 145.868 78.7669 145.64 78.5281C145.414 78.2893 145.242 78.0062 145.12 77.6787C144.999 77.3513 144.939 76.993 144.939 76.6042V76.3893C144.939 75.939 145.007 75.5381 145.141 75.1868C145.276 74.832 145.459 74.5318 145.692 74.2861C145.923 74.0406 146.186 73.8546 146.481 73.7284C146.775 73.6022 147.079 73.5391 147.394 73.5391C147.795 73.5391 148.141 73.6073 148.432 73.7438C148.726 73.8802 148.967 74.0713 149.153 74.3169C149.34 74.5591 149.478 74.8456 149.568 75.1765C149.659 75.504 149.704 75.8621 149.704 76.251V76.6758H145.51V75.9031H148.744V75.8315C148.729 75.5858 148.677 75.3471 148.588 75.1151C148.501 74.8831 148.362 74.6922 148.172 74.5421C147.982 74.3919 147.722 74.3169 147.394 74.3169C147.176 74.3169 146.975 74.3629 146.791 74.455C146.608 74.5437 146.451 74.6768 146.319 74.8541C146.188 75.0316 146.086 75.2482 146.013 75.504C145.941 75.7599 145.904 76.055 145.904 76.3893V76.6042C145.904 76.8668 145.941 77.1141 146.013 77.3461C146.09 77.5746 146.198 77.7759 146.34 77.9499C146.485 78.1238 146.66 78.2603 146.864 78.3593C147.072 78.4581 147.307 78.5076 147.571 78.5076C147.91 78.5076 148.197 78.4394 148.432 78.3029C148.667 78.1664 148.873 77.984 149.049 77.7554L149.631 78.2108C149.51 78.3916 149.355 78.564 149.169 78.7277C148.982 78.8914 148.752 79.0245 148.479 79.1268C148.209 79.2291 147.888 79.2803 147.519 79.2803Z" fill="black"/>
<path d="M35.9331 27.3628V65.2053H28.2559V48.9039H24.1221V43.082H28.2559V27.3628H35.9331Z" fill="#B87A2A"/>
<path d="M12.311 27.3628V65.2053H19.9882V48.9039H25.3032V43.082H19.9882V27.3628H12.311Z" fill="#B87A2A"/>
<path d="M2.8623 65.2053V22.8725L24.1221 2.32861L45.382 22.8725V65.2053" stroke="black" stroke-width="2.5"/>
<path d="M2.8623 84.418H150.5" stroke="black"/>
</g>
<defs>
<clipPath id="clip0_2066_1706">
<rect width="150" height="85" fill="white" transform="translate(0.5)"/>
</clipPath>
</defs>
</svg>
