<svg width="63" height="48" viewBox="0 0 63 48" fill="none" xmlns="http://www.w3.org/2000/svg">
<g clip-path="url(#clip0_2066_1500)">
<path fill-rule="evenodd" clip-rule="evenodd" d="M8.50255 0.448242L19.6085 0.448242C23.884 0.448242 27.3797 3.94401 27.3797 8.21942C27.3797 24.2094 31.469 41.7738 11.8675 46.7886C2.98477 49.0571 0.671016 39.279 10.1171 38.605C15.8764 38.1925 17.0031 34.4704 17.1791 28.847H8.27118C3.99577 28.842 0.5 25.3462 0.5 21.0758L0.5 8.45079C0.5 4.04964 4.1014 0.448242 8.50255 0.448242ZM43.078 0.448242L54.184 0.448242C58.4594 0.448242 61.9552 3.94401 61.9552 8.21942C61.9552 24.2094 66.0445 41.7738 46.443 46.7886C37.5652 49.0571 35.2515 39.279 44.6926 38.605C50.4518 38.1925 51.5785 34.4704 51.7546 28.847H42.8416C38.5662 28.847 35.0704 25.3512 35.0704 21.0758V8.45079C35.0755 4.04964 38.6769 0.448242 43.078 0.448242Z" fill="#F89C24" fill-opacity="0.28"/>
</g>
<defs>
<clipPath id="clip0_2066_1500">
<rect width="61.8073" height="46.6824" fill="white" transform="translate(0.5 0.448242)"/>
</clipPath>
</defs>
</svg>
