<svg width="56" height="66" viewBox="0 0 56 66" fill="none" xmlns="http://www.w3.org/2000/svg">
<path d="M45.5087 40.4656L46.7161 40.0973C46.8347 40.0611 46.9509 40.0261 47.0648 39.9917C47.6969 39.8012 48.2573 39.6323 48.7515 39.4099C49.3266 39.1511 49.6611 38.8819 49.8351 38.5815L49.8351 38.5815C49.9792 38.3328 50.0515 37.9971 50.0348 37.522C50.0178 37.0405 49.9134 36.4973 49.7722 35.8739C49.7438 35.7481 49.7134 35.6178 49.6824 35.4843C49.5676 34.9911 49.4429 34.4551 49.3642 33.947C49.2637 33.2975 49.2158 32.5722 49.3913 31.8774L49.3914 31.8772C49.5685 31.1768 49.9464 30.5545 50.3411 30.02C50.6653 29.581 51.0443 29.1457 51.391 28.7476C51.4641 28.6637 51.5358 28.5813 51.6053 28.501C52.0237 28.0168 52.3742 27.5888 52.6229 27.1745C52.8693 26.764 52.9708 26.4387 52.9708 26.1617C52.9708 25.8995 52.8645 25.5439 52.5931 25.0631C52.3255 24.589 51.9514 24.0849 51.5199 23.5294C51.4413 23.4283 51.3605 23.325 51.2784 23.2201C50.9269 22.771 50.5521 22.2921 50.2316 21.8231C49.8382 21.2475 49.4614 20.5965 49.2869 19.9108L49.2869 19.9107C49.1102 19.2162 49.1568 18.4908 49.2561 17.8411C49.3338 17.3327 49.4575 16.7965 49.5714 16.3031C49.6022 16.1696 49.6323 16.0392 49.6606 15.9133C49.8006 15.2897 49.9039 14.7463 49.92 14.2649C49.9359 13.7898 49.8629 13.4544 49.7184 13.206L49.7184 13.206C49.5738 12.9576 49.3183 12.7283 48.8974 12.5073C48.4709 12.2833 47.9475 12.1046 47.3361 11.9181C47.2128 11.8804 47.0846 11.8422 46.9533 11.803C46.4681 11.6581 45.9408 11.5006 45.4605 11.3169C44.8466 11.0821 44.193 10.7641 43.6765 10.2671L43.6765 10.2671C43.1532 9.76344 42.8017 9.12023 42.5359 8.50892C42.3208 8.01406 42.1351 7.47291 41.9653 6.97816C41.9264 6.86507 41.8885 6.75441 41.8511 6.64728C41.6401 6.0413 41.4438 5.52636 41.2085 5.11091C40.9758 4.70006 40.7468 4.46362 40.5119 4.33803C40.2744 4.21111 39.9473 4.15139 39.4732 4.18516C38.994 4.2193 38.4541 4.34109 37.831 4.50033C37.723 4.52794 37.6118 4.55687 37.4983 4.58642C36.9894 4.71886 36.4328 4.86371 35.8992 4.95744C35.2434 5.07265 34.5126 5.1334 33.8048 4.97026C33.1042 4.8088 32.4798 4.43988 31.9445 4.05395C31.5043 3.73654 31.066 3.36269 30.6643 3.02016C30.5797 2.94805 30.4968 2.87734 30.4158 2.80883C29.927 2.39522 29.4923 2.04647 29.0703 1.79843C28.6521 1.55262 28.3158 1.44824 28.0259 1.44824C27.7241 1.44824 27.2741 1.57956 26.6866 1.88363C26.1188 2.17744 25.517 2.58213 24.9356 3.0126C24.4634 3.3622 24.0263 3.71236 23.6407 4.02117C23.5517 4.09248 23.4654 4.16159 23.3821 4.22797C23.1665 4.39977 22.9607 4.56131 22.787 4.68558C22.7003 4.74762 22.6068 4.81114 22.514 4.86546C22.441 4.90823 22.2883 4.99424 22.1009 5.03781L45.5087 40.4656ZM45.5087 40.4656L46.1436 41.5567M45.5087 40.4656L46.1436 41.5567M46.1436 41.5567L50.8831 49.7021L53.5046 54.2076L54.3395 55.6426L54.5707 56.0399L54.6313 56.1441L54.6468 56.1707L54.6507 56.1775L54.6517 56.1791L54.652 56.1796C54.652 56.1796 54.652 56.1797 55.0899 55.925L54.652 56.1797C54.7698 56.3822 54.7727 56.4897 54.7681 56.5262C54.7399 56.5498 54.6479 56.6055 54.4138 56.6158L48.6737 56.8659C47.8833 56.9004 47.0655 57.1957 46.3752 57.5974C45.6848 57.9991 45.0242 58.564 44.6036 59.2334L44.6034 59.2338L41.5486 64.1006C41.4243 64.2986 41.3306 64.3513 41.296 64.3642C41.2619 64.3502 41.1699 64.2944 41.0521 64.0919L41.0521 64.0919L40.1877 64.5947C41.0521 64.0919 41.052 64.0918 41.052 64.0917L41.0517 64.0912L41.0505 64.0892L41.0459 64.0812L41.0275 64.0496L40.9559 63.9266L40.6842 63.4595L39.7142 61.7922L36.7708 56.7326L33.8269 51.6722L32.8564 50.0039L32.5844 49.5361L32.5127 49.4128L32.5015 49.3936C32.4146 49.2278 32.2795 49.0412 32.0684 48.899C31.823 48.7338 31.549 48.6787 31.2984 48.7023C30.8957 48.7402 30.6215 48.9761 30.5638 49.0257C30.5619 49.0273 30.5603 49.0287 30.5589 49.0299L30.5585 49.0302C30.0737 49.4438 29.6393 49.7891 29.2194 50.0323C28.8036 50.2732 28.4638 50.3771 28.1665 50.3771C27.8454 50.3771 27.4099 50.2533 26.8986 49.9899C26.4005 49.7334 25.9025 49.3817 25.4783 49.0206L25.4773 49.0197C25.2596 48.8348 24.9402 48.6984 24.5698 48.7281C24.179 48.7595 23.8632 48.9635 23.6427 49.2212L23.6427 49.2211L23.6343 49.2311C23.5897 49.2888 23.5465 49.3544 23.5435 49.3593L23.5401 49.3651L23.5372 49.37L23.5316 49.3796L23.5127 49.4123L23.4405 49.5367L23.1678 50.0072L22.1959 51.6848L19.2483 56.773L16.3015 61.8604L15.3305 63.5368L15.0584 64.0065L14.9867 64.1303L14.9683 64.162L14.9637 64.17L14.9625 64.1721L14.9622 64.1726C14.9622 64.1726 14.9622 64.1726 14.9623 64.1726L14.9622 64.1726C14.8448 64.3753 14.7528 64.4313 14.7187 64.4454C14.6841 64.4326 14.5902 64.38 14.4654 64.1821L11.402 59.3211L11.4019 59.321C10.9801 58.6519 10.3183 58.0882 9.62725 57.6878C8.93615 57.2874 8.11795 56.9938 7.32785 56.9605L7.32747 56.9605L1.58686 56.7211C1.35288 56.7113 1.26055 56.6559 1.23219 56.6322C1.2275 56.5956 1.23042 56.488 1.34782 56.2854L1.34786 56.2853L0.482616 55.784C1.34786 56.2853 1.34789 56.2853 1.34795 56.2852L1.3482 56.2847L1.34921 56.283L1.35323 56.276L1.36912 56.2486L1.43121 56.1415L1.66769 55.7333L2.51869 54.2646L5.16346 49.7001L9.65467 41.9488C9.78434 41.7462 9.88046 41.4884 9.87025 41.1914C9.85937 40.8747 9.73141 40.6236 9.59403 40.4509C9.3505 40.1447 9.0226 40.0053 8.8377 39.95C8.15256 39.7448 7.55926 39.561 7.06629 39.3204C6.57924 39.0827 6.28975 38.8355 6.13206 38.5644C5.98749 38.3158 5.91451 37.9802 5.93038 37.5051C5.94646 37.0236 6.04981 36.4802 6.18982 35.8565C6.21808 35.7307 6.24816 35.6003 6.27897 35.4668C6.39282 34.9733 6.51653 34.4372 6.59422 33.9288C6.69351 33.2791 6.74009 32.5537 6.56334 31.8592C6.38508 31.1587 6.0056 30.5369 5.60967 30.0032C5.28471 29.5652 4.90484 29.1309 4.55748 28.7338C4.48384 28.6496 4.41167 28.5671 4.34179 28.4866C3.92226 28.0031 3.57093 27.576 3.32176 27.1624C3.0749 26.7526 2.97341 26.428 2.97341 26.1517C2.97341 25.7997 3.09411 25.4058 3.35371 24.9407C3.61504 24.4724 3.98161 23.9933 4.40828 23.4718C4.50691 23.3512 4.61013 23.2268 4.71555 23.0997C5.04445 22.7033 5.39467 22.2812 5.69285 21.8703C6.0881 21.3255 6.47227 20.6965 6.64637 20.0068L6.64638 20.0068C6.82178 19.3118 6.77383 18.5864 6.6733 17.9369C6.59464 17.4286 6.46989 16.8926 6.3551 16.3994C6.32405 16.2659 6.29373 16.1357 6.26524 16.0099C6.12405 15.3865 6.01968 14.8434 6.0027 14.362C5.98593 13.887 6.0583 13.5516 6.20233 13.303L6.20234 13.3029C6.34645 13.0542 6.60159 12.8245 7.02204 12.6027C7.44814 12.3779 7.97126 12.1982 8.58225 12.0106C8.7056 11.9727 8.83378 11.9342 8.96504 11.8947C9.44998 11.7489 9.9769 11.5905 10.4568 11.406C11.0703 11.1701 11.7233 10.8509 12.2389 10.353L12.2389 10.353C12.7614 9.84846 13.1117 9.2046 13.3763 8.59282C13.5905 8.0976 13.7752 7.55613 13.9441 7.06107C13.9827 6.94789 14.0205 6.83713 14.0576 6.72991C14.2675 6.12352 14.4628 5.6082 14.6974 5.19231C14.9294 4.78101 15.158 4.54416 15.3926 4.41816L15.3928 4.41804M46.1436 41.5567L15.3928 4.41804M15.3928 4.41804C15.6301 4.29057 15.957 4.23015 16.4311 4.26301M15.3928 4.41804L16.4311 4.26301M16.4311 4.26301C16.9103 4.29622 17.4504 4.417 18.0737 4.57512M16.4311 4.26301L18.0737 4.57512M18.0737 4.57512C18.1819 4.60256 18.2933 4.63133 18.407 4.66071M18.0737 4.57512L18.407 4.66071M18.407 4.66071C18.9161 4.79221 19.4728 4.93603 20.0064 5.0288M18.407 4.66071L20.0064 5.0288M20.0064 5.0288C20.6624 5.14284 21.3933 5.20229 22.1008 5.03782L20.0064 5.0288ZM54.7647 56.5407C54.7646 56.5407 54.765 56.539 54.7664 56.5356C54.7656 56.539 54.7649 56.5406 54.7647 56.5407ZM54.7751 56.5197C54.7771 56.5168 54.7783 56.5155 54.7784 56.5156C54.7786 56.5157 54.7776 56.5171 54.7751 56.5197ZM41.2815 64.3681C41.2814 64.3679 41.2831 64.3675 41.2868 64.3672C41.2835 64.3681 41.2817 64.3682 41.2815 64.3681ZM41.3052 64.3675C41.3087 64.3679 41.3104 64.3684 41.3104 64.3685C41.3104 64.3687 41.3086 64.3685 41.3052 64.3675ZM32.4851 49.3652C32.4851 49.3652 32.4868 49.3681 32.4896 49.373C32.4864 49.3676 32.4851 49.3652 32.4851 49.3652ZM14.7044 64.4498C14.7043 64.4496 14.706 64.4491 14.7095 64.4487C14.7062 64.4497 14.7044 64.4499 14.7044 64.4498ZM14.7279 64.4484C14.7315 64.4486 14.7332 64.4491 14.7332 64.4492C14.7331 64.4494 14.7313 64.4492 14.7279 64.4484ZM1.22169 56.6216C1.2218 56.6214 1.22301 56.6227 1.22502 56.6257C1.22258 56.6231 1.22158 56.6217 1.22169 56.6216ZM1.23387 56.6418C1.23529 56.6451 1.2357 56.6468 1.23555 56.6468C1.2354 56.6469 1.23469 56.6452 1.23387 56.6418ZM17.1881 42.8338L17.194 42.8376C23.3151 46.6984 31.3335 47.1178 38.0165 43.2297C47.5816 37.6651 50.8351 25.3581 45.2705 15.793L44.4213 16.287L45.2705 15.7929C43.4502 12.6643 40.9067 10.2096 37.974 8.51879L37.9697 8.51632C37.9008 8.4771 37.8312 8.43786 37.7608 8.39886C37.7518 8.39383 37.7418 8.38819 37.731 8.38213C37.6955 8.36217 37.652 8.33768 37.611 8.31539C28.1061 3.13882 16.1126 6.46171 10.6554 15.8818C5.25967 25.1947 8.2128 37.0847 17.1881 42.8338Z" stroke="#F89C24" stroke-width="2"/>
<path d="M35.5604 12.9233L35.5608 12.9235C42.7379 17.0815 45.194 26.3043 41.0364 33.4814C36.8786 40.6581 27.6556 43.1149 20.4785 38.9569L20.4784 38.9569C20.3048 38.8563 20.1321 38.7501 19.9565 38.6389L19.9565 38.6389L19.9502 38.6349C17.9385 37.3819 16.1952 35.6365 14.922 33.448L14.922 33.448C10.751 26.2789 13.1911 17.0509 20.3605 12.8799L20.3605 12.8799C25.1897 10.0703 30.9548 10.2591 35.4818 12.8792L35.4853 12.8812C35.5472 12.9166 35.5404 12.9123 35.5358 12.9094C35.5323 12.9071 35.5301 12.9057 35.5604 12.9233ZM35.9947 27.9009L35.9948 27.9009L38.6751 25.2884C38.6751 25.2884 38.6751 25.2883 38.6751 25.2883C39.2026 24.7742 39.6596 23.9914 39.3815 23.1352C39.1034 22.2791 38.2737 21.9142 37.5448 21.8082L37.5446 21.8081L33.8407 21.2699L33.8407 21.2699C33.4692 21.2159 32.9924 21.0118 32.5374 20.6812C32.0825 20.3507 31.7409 19.9603 31.5748 19.6237L30.6781 20.0663L31.5748 19.6237L29.9182 16.2675C29.9182 16.2675 29.9182 16.2674 29.9182 16.2674C29.5922 15.6069 28.9889 14.9304 28.0887 14.9304C27.1885 14.9304 26.5851 15.6069 26.2591 16.2674L26.2591 16.2674L24.6026 19.6237C24.6026 19.6237 24.6026 19.6237 24.6026 19.6237C24.4365 19.9603 24.0949 20.3506 23.64 20.6812C23.185 21.0118 22.7082 21.216 22.3367 21.2699L18.6328 21.8081L18.6327 21.8082C17.9038 21.9142 17.074 22.279 16.7958 23.1351C16.5175 23.9913 16.9745 24.7742 17.5021 25.2883C17.5022 25.2884 17.5022 25.2884 17.5022 25.2884L20.1823 27.9009L20.1823 27.9009C20.4511 28.1628 20.7168 28.6082 20.8906 29.1431C21.0643 29.6779 21.1112 30.1945 21.0477 30.5645L21.0477 30.5645L20.415 34.2534C20.415 34.2535 20.415 34.2535 20.415 34.2535C20.2904 34.9795 20.3808 35.8815 21.1092 36.4107C21.8376 36.9398 22.7233 36.747 23.3753 36.4043L23.3754 36.4043L26.6882 34.6625C27.0205 34.4878 27.5263 34.3728 28.0886 34.3728C28.651 34.3728 29.1567 34.4878 29.489 34.6625C29.489 34.6625 29.489 34.6625 29.4891 34.6625L32.8021 36.4043L32.8021 36.4043C33.454 36.747 34.3399 36.9398 35.0682 36.4106C35.7965 35.8814 35.8868 34.9793 35.7623 34.2534L35.1296 30.5645L35.1295 30.5643C35.066 30.1944 35.1128 29.6779 35.2866 29.143C35.4603 28.6082 35.726 28.1628 35.9947 27.9009Z" stroke="#F89C24" stroke-width="2"/>
</svg>
