<svg width="66" height="50" viewBox="0 0 66 50" fill="none" xmlns="http://www.w3.org/2000/svg">
<path d="M25.2559 23.042C26.3058 23.042 27.1602 23.8964 27.1602 24.9463C27.1602 25.9962 26.3058 26.8506 25.2559 26.8506C24.206 26.8506 23.3516 25.9962 23.3516 24.9463C23.3516 23.8964 24.206 23.042 25.2559 23.042Z" fill="#F89C24"/>
<path d="M25.2559 16.4248C25.5597 16.4248 25.8614 16.4406 26.1602 16.472V18.2943C25.8642 18.2541 25.5622 18.2334 25.2559 18.2334C21.5539 18.2334 18.543 21.2443 18.543 24.9463C18.543 28.6483 21.5539 31.6592 25.2559 31.6592C25.5622 31.6592 25.8642 31.6384 26.1602 31.5983V33.4206C25.8614 33.452 25.5597 33.4678 25.2559 33.4678C20.5586 33.4678 16.7344 29.6435 16.7344 24.9463C16.7344 20.2491 20.5586 16.4248 25.2559 16.4248Z" stroke="#F89C24" stroke-width="2"/>
<path d="M21.4473 1.19043H26.1602V10.6441C25.8596 10.6254 25.558 10.6162 25.2559 10.6162C17.353 10.6162 10.9258 17.0434 10.9258 24.9463C10.9258 32.8492 17.353 39.2764 25.2559 39.2764C25.558 39.2764 25.8596 39.2672 26.1602 39.2485V48.7021H21.4473C20.9484 48.7021 20.543 48.2967 20.543 47.7979V45.1014V44.3461L19.8166 44.1395C18.3354 43.7182 16.906 43.1216 15.5423 42.3557L14.8813 41.9843L14.3453 42.5207L12.4298 44.4374C12.0764 44.7908 11.5048 44.7908 11.1513 44.4374L5.76472 39.0508C5.41205 38.6981 5.41297 38.1241 5.76472 37.7723L7.68172 35.8553L8.21826 35.3188L7.84598 34.6576C7.07947 33.2963 6.48406 31.8672 6.06263 30.3856L5.85601 29.6592H5.10078H2.4043C1.90541 29.6592 1.5 29.2538 1.5 28.7549V21.1377C1.5 20.6388 1.90541 20.2334 2.4043 20.2334H5.10078H5.85601L6.06263 19.507C6.48405 18.0254 7.07949 16.5962 7.84616 15.2334L8.21818 14.5721L7.68148 14.0357L5.76472 12.1202C5.76465 12.1202 5.76457 12.1201 5.76449 12.12C5.41297 11.7682 5.41213 11.1944 5.76472 10.8418L11.1513 5.45515C11.5048 5.10173 12.0764 5.10173 12.4298 5.45515L14.3468 7.37215L14.8833 7.90869L15.5445 7.53641C16.9059 6.7699 18.3349 6.17449 19.8166 5.75306L20.543 5.54644V4.79121V2.09473C20.543 1.59584 20.9484 1.19043 21.4473 1.19043Z" stroke="#F89C24" stroke-width="2"/>
<path d="M61.9711 10.6162H55.0742V3.71929L61.9711 10.6162ZM44.5527 10.6162H36.6816C35.0782 10.6162 33.7773 11.9171 33.7773 13.5205C33.7773 15.124 35.0782 16.4248 36.6816 16.4248H44.5527C46.1562 16.4248 47.457 15.124 47.457 13.5205C47.457 11.9171 46.1562 10.6162 44.5527 10.6162ZM36.6816 39.2764H55.9785C57.582 39.2764 58.8828 37.9755 58.8828 36.3721C58.8828 34.7686 57.582 33.4678 55.9785 33.4678H36.6816C35.0782 33.4678 33.7773 34.7686 33.7773 36.3721C33.7773 37.9755 35.0782 39.2764 36.6816 39.2764ZM36.6816 31.6592H55.9785C57.582 31.6592 58.8828 30.3583 58.8828 28.7549C58.8828 27.1514 57.582 25.8506 55.9785 25.8506H36.6816C35.0782 25.8506 33.7773 27.1514 33.7773 28.7549C33.7773 30.3583 35.0782 31.6592 36.6816 31.6592ZM36.6816 24.042H55.9785C57.582 24.042 58.8828 22.7412 58.8828 21.1377C58.8828 19.5342 57.582 18.2334 55.9785 18.2334H36.6816C35.0782 18.2334 33.7773 19.5342 33.7773 21.1377C33.7773 22.7412 35.0782 24.042 36.6816 24.042ZM49.2656 13.5205C49.2656 15.124 50.5665 16.4248 52.1699 16.4248H64.5V47.7979C64.5 48.2967 64.0946 48.7021 63.5957 48.7021H31.9688V1.19043H49.2656V13.5205Z" stroke="#F89C24" stroke-width="2"/>
</svg>
