<svg width="58" height="66" viewBox="0 0 58 66" fill="none" xmlns="http://www.w3.org/2000/svg">
<path d="M9.66237 41.6599L9.49566 40.9766L8.79616 40.9025L1.47852 40.1276V37.9248H18.4372C18.9412 43.3167 23.479 47.5367 29.0026 47.5367C34.5262 47.5367 39.064 43.3166 39.568 37.9248H56.5267V40.1276L49.209 40.9025L48.5095 40.9766L48.3428 41.6599C47.8553 43.6584 47.0659 45.5389 46.0253 47.2505L45.6598 47.8517L46.1021 48.3987L50.7299 54.1226L46.2003 58.6521L40.4765 54.0243L39.9295 53.582L39.3283 53.9475C37.6167 54.9881 35.7362 55.7775 33.7377 56.265L33.0544 56.4317L32.9803 57.1312L32.2054 64.4489H25.7998L25.0249 57.1312L24.9508 56.4317L24.2675 56.265C22.269 55.7775 20.3885 54.9881 18.6769 53.9475L18.0757 53.582L17.5287 54.0243L11.8048 58.6521L7.27534 54.1226L11.9031 48.3987L12.3454 47.8517L11.9799 47.2505C10.9393 45.5389 10.1499 43.6584 9.66237 41.6599Z" stroke="#F89C24" stroke-width="2"/>
<path d="M22.6367 7.81571C22.6367 4.30562 25.4941 1.44824 29.0042 1.44824C32.5143 1.44824 35.3717 4.30562 35.3717 7.81571C35.3717 11.3258 32.5143 14.1831 29.0042 14.1831C25.4941 14.1831 22.6367 11.3258 22.6367 7.81571Z" stroke="#F89C24" stroke-width="2"/>
<path d="M21.1633 18.2178C21.1633 18.2178 21.1633 18.2178 21.1633 18.2178H36.8514C39.9108 18.2178 42.4014 20.7084 42.4014 23.7678V32.1133H15.6133V23.7678C15.6133 20.7084 18.1039 18.2179 21.1633 18.2178Z" stroke="#F89C24" stroke-width="2"/>
<path d="M7.77539 10.4505C7.77539 7.36366 10.2884 4.85059 13.3753 4.85059C16.4623 4.85059 18.9752 7.36354 18.9752 10.4505C18.9752 11.2628 18.8016 12.0336 18.4898 12.7297C16.2955 13.2607 14.351 14.4294 12.8613 16.0253C10.0141 15.7648 7.77539 13.3635 7.77539 10.4505Z" stroke="#F89C24" stroke-width="2"/>
<path d="M1.47852 24.7456C1.47852 22.0623 3.66303 19.8779 6.34616 19.8779H10.4884C10.0433 21.0933 9.79993 22.4052 9.79993 23.7718V32.1175H1.47852V24.7456Z" stroke="#F89C24" stroke-width="2"/>
<path d="M39.0312 10.4505C39.0312 7.36366 41.5442 4.85059 44.6312 4.85059C47.7181 4.85059 50.2311 7.36354 50.2311 10.4505C50.2311 13.3636 47.9924 15.7649 45.1452 16.0253C43.6554 14.4294 41.711 13.2607 39.5165 12.7297C39.2048 12.0336 39.0312 11.2627 39.0312 10.4505Z" stroke="#F89C24" stroke-width="2"/>
<path d="M48.2025 23.7718C48.2025 22.4052 47.9592 21.0933 47.514 19.8779H51.6563C54.3394 19.8779 56.5239 22.0624 56.5239 24.7454V32.1174H48.2025V23.7718Z" stroke="#F89C24" stroke-width="2"/>
</svg>
