<svg width="78" height="78" viewBox="0 0 78 78" fill="none" xmlns="http://www.w3.org/2000/svg">
<path d="M0.680664 0.729492H77.449V77.1611H0.680664V0.729492Z" fill="#262424"/>
<path d="M0.680376 0.729766H48.8471C52.7246 0.729766 56.6024 0.721661 60.4717 0.737534C59.3995 1.82094 58.3028 2.89657 57.2231 3.98031C57.6499 4.42948 58.1013 4.8469 58.5288 5.2883C59.5125 4.61421 60.6247 4.07656 61.834 3.98808C62.9222 3.87562 64.0188 4.1566 65.0181 4.59024C65.397 4.75065 65.7518 5.00732 66.1789 5.04751C66.5981 5.02353 66.9126 4.6544 67.0578 4.28494C67.1785 4.02861 67.0656 3.72331 66.8644 3.53858C65.9292 2.59972 64.9859 1.67673 64.0588 0.737534C68.5248 0.713556 72.9908 0.737534 77.449 0.729766C77.449 5.06372 77.4568 9.40578 77.449 13.7478C76.5301 12.8492 75.635 11.9339 74.7238 11.0353C74.482 10.786 74.0875 10.6577 73.7568 10.8103C73.539 10.9147 73.3294 11.0832 73.2327 11.3159C73.1116 11.7816 73.3216 12.2389 73.5068 12.656C74.0712 13.8441 74.3212 15.1845 74.1519 16.4928C74.039 17.3837 73.7164 18.2584 73.2327 19.021C73.1038 19.2054 72.983 19.3979 72.8701 19.5911C73.3375 19.9919 73.7327 20.4735 74.2083 20.867C75.2724 19.7754 76.3687 18.7079 77.449 17.6242C77.449 24.8716 77.4568 32.1194 77.449 39.3669C77.2391 39.4392 77.0054 39.5837 76.7876 39.479C76.4976 39.2946 76.2798 39.0217 76.0379 38.789C73.426 36.2045 70.8382 33.5959 68.2185 31.0198C67.1785 32.0553 66.1551 33.0985 65.0985 34.1099C65.6552 34.7357 66.2759 35.2896 66.8563 35.8914C68.9522 37.9785 71.0479 40.0653 73.1523 42.1517C73.3294 42.3364 73.539 42.4972 73.6357 42.738C73.6679 43.0028 73.4827 43.2273 73.4101 43.4681C73.3053 43.7491 73.5312 44.0862 73.8294 44.0939C74.0953 44.1426 74.3212 43.9656 74.4905 43.7893C75.4738 42.8018 76.4653 41.8228 77.449 40.8434V77.1614H40.9629C41.8981 76.2306 42.8333 75.3073 43.7685 74.3762C40.5856 71.2153 37.4066 68.0504 34.2317 64.8816C33.192 65.8768 32.1924 66.9123 31.1605 67.9153C30.9427 68.1402 30.7009 68.3567 30.5964 68.6617C30.5479 68.9585 30.822 69.2395 31.112 69.2557C31.3701 69.2236 31.5876 69.0548 31.8457 68.9987C32.0713 68.9832 32.249 69.1595 32.4098 69.304C34.2965 71.1979 36.1909 73.0763 38.0854 74.9625C38.5606 75.4596 39.0769 75.9091 39.5199 76.4231C39.7218 76.6477 39.5847 76.9365 39.4718 77.1614H17.6499L22.8007 72.0328C23.123 71.7278 23.4537 71.3749 23.5019 70.9092C23.5745 70.3715 23.0267 69.8336 22.4863 69.946C22.0348 70.0342 21.6644 70.3874 21.1966 70.3874C20.8985 70.3634 20.6726 70.1466 20.4711 69.9541C16.3677 65.8768 12.2728 61.7918 8.17753 57.7142C7.90345 57.4416 7.57306 57.1768 7.47605 56.7831C7.46011 56.318 7.79049 55.9405 7.91159 55.5153C8.06457 54.9776 7.55678 54.3913 7.00828 54.4319C6.62973 54.4558 6.2912 54.6723 6.0334 54.9374C4.25969 56.7273 2.45409 58.4929 0.680376 60.2829C0.672235 40.4341 0.680376 20.5782 0.680376 0.729766Z" fill="#F89C24"/>
<path d="M56.0538 5.13608C56.1264 5.05604 56.2553 4.98343 56.3279 5.10399C61.948 10.6914 67.5641 16.2828 73.1763 21.8782C71.2046 23.8399 69.2349 25.8036 67.2673 27.7694C67.0092 28.0101 66.6947 28.2107 66.3402 28.2347C65.8484 28.2753 65.3565 27.8335 65.3969 27.3357C65.4132 26.8464 65.8321 26.4691 65.8403 25.9713C65.8565 25.6583 65.6147 25.4259 65.4132 25.2088C61.2453 21.0676 57.0857 16.9184 52.9178 12.7685C52.6841 12.544 52.4263 12.263 52.0715 12.2873C51.5474 12.2951 51.1526 12.7766 50.6207 12.7206C50.3141 12.7283 50.0641 12.4876 49.9111 12.239C49.7015 11.8057 49.8948 11.2839 50.2096 10.9631C52.1604 9.02053 54.1112 7.0783 56.0538 5.13608ZM64.1476 6.76524C64.3087 6.46838 64.615 6.1955 64.9776 6.24346C65.3806 6.27588 65.671 6.60448 65.9369 6.86959C67.5473 8.47941 69.1597 10.0873 70.774 11.6932C71.0803 11.9904 71.4429 12.2792 71.5155 12.7206C71.5559 13.1778 71.1366 13.5872 70.6933 13.6355C70.3225 13.6436 69.984 13.443 69.6618 13.2663C68.9762 12.8651 68.2025 12.544 67.3881 12.5841C66.9688 12.576 66.5662 12.7446 66.1869 12.9131C65.7436 12.4396 65.2358 12.0144 64.8165 11.5247C64.9454 11.1637 65.1147 10.8185 65.1391 10.4329C65.1958 9.55851 64.8409 8.72367 64.3973 7.99318C64.1717 7.63216 63.9943 7.18232 64.1476 6.76524ZM28.6208 11.0191C29.4918 10.1043 30.4108 9.24545 31.2812 8.33833C32.1115 9.14075 32.9175 9.95162 33.7319 10.7621C33.9979 11.0191 33.756 11.4524 33.4579 11.5568C33.2079 11.5889 32.9901 11.4204 32.7645 11.34C31.8941 10.9148 30.8137 10.8668 29.9433 11.3322C29.7174 11.4285 29.5319 11.621 29.29 11.6612C29.0482 11.4687 28.8467 11.2279 28.6208 11.0191ZM28.0729 11.5325C29.2578 12.6723 30.4026 13.8523 31.5715 14.9998C33.4015 16.8137 35.2231 18.6438 37.0612 20.4577C36.0139 21.5124 34.9606 22.5612 33.9012 23.6039C33.6834 23.8444 33.2482 23.9491 33.0386 23.6519C32.7808 23.379 33.0627 23.042 33.1434 22.761C33.2401 22.5523 33.0712 22.3679 32.9338 22.2237C30.8232 20.13 28.7165 18.0324 26.6137 15.9309C26.4203 15.7543 26.2589 15.5378 26.0251 15.4173C25.7029 15.345 25.4529 15.6341 25.1385 15.6503C24.8966 15.626 24.671 15.3855 24.7033 15.1363C24.7192 14.9438 24.8322 14.7753 24.9692 14.6388C26.0011 13.6034 27.0492 12.5841 28.0729 11.5325ZM32.2808 12.8168C32.1763 12.5521 32.3615 12.2312 32.6438 12.191C32.8534 12.159 33.0226 12.319 33.1678 12.4558C34.0382 13.3224 34.9086 14.1974 35.7875 15.0562C35.9405 15.2248 36.1583 15.3771 36.1746 15.626C36.2068 15.8749 35.9649 16.1157 35.7071 16.0914C35.3683 16.0914 35.1105 15.8266 34.8042 15.7141C34.3527 15.5057 33.8045 15.4895 33.3612 15.7303C33.1275 15.4976 32.8934 15.2569 32.6516 15.04C32.7567 14.6868 32.8534 14.3099 32.7645 13.9404C32.7001 13.5233 32.4097 13.2022 32.2808 12.8168ZM47.7185 13.443C47.9362 13.2261 48.21 13.0657 48.5166 13.0255C49.0563 12.9455 49.6207 13.4669 49.5163 14.0127C49.4437 14.4943 49.0407 14.8793 49.0726 15.3855C49.1533 15.7381 49.4437 15.9789 49.677 16.2281C53.7967 20.3213 57.916 24.4063 62.0191 28.5076C62.245 28.7085 62.4706 28.9733 62.7932 28.9733C63.2769 28.9733 63.6476 28.6123 64.1072 28.5316C64.6391 28.4438 65.1632 28.9652 65.0984 29.4951C65.0665 29.8561 64.8488 30.1692 64.5991 30.4177C62.5269 32.4724 60.4631 34.5433 58.3916 36.598C58.1257 36.8628 57.7871 37.1036 57.3923 37.1036C56.9564 37.1276 56.5375 36.7588 56.4812 36.3332C56.4245 35.7713 56.9486 35.3538 56.9323 34.7919C56.9083 34.5271 56.723 34.3106 56.5456 34.1178C52.926 30.5224 49.3144 26.9186 45.6951 23.3229C48.6859 28.8528 51.7007 34.367 54.6915 39.8968C54.7397 39.9769 54.7801 40.0654 54.8204 40.1616C54.603 40.3619 54.3934 40.5787 54.1837 40.7955C48.194 37.8584 42.2124 34.8881 36.2309 31.9429C35.2879 31.4775 34.3527 30.9318 33.2886 30.8034C32.9338 30.7548 32.6919 31.0442 32.4341 31.2286C32.1678 31.4373 31.813 31.5657 31.483 31.4613C31.0878 31.285 30.8137 30.8193 30.9348 30.3938C31.0152 30.105 31.2167 29.8642 31.4263 29.6552C33.3612 27.7373 35.2879 25.8113 37.2227 23.9008C40.2372 25.3695 43.2603 26.8062 46.2836 28.2753C46.3803 28.3472 46.4848 28.4195 46.5736 28.5157C46.6221 28.4593 46.6625 28.4032 46.7107 28.3472L46.5977 28.3631C45.0099 25.3533 43.3413 22.3837 41.7528 19.374C43.7521 17.3997 45.7273 15.4173 47.7185 13.443ZM37.1338 14.7992C37.279 14.5345 37.6901 14.5024 37.8835 14.727C38.6976 15.5456 39.5283 16.3642 40.3502 17.1832C39.4318 18.1066 38.5076 19.0242 37.5775 19.9359C37.3679 19.6952 37.0853 19.5027 36.9242 19.2217C37.1901 18.7722 37.4724 18.3146 37.545 17.785C37.682 17.0545 37.5612 16.2842 37.2468 15.6101C37.1579 15.3531 36.9646 15.0562 37.1338 14.7992ZM23.5988 16.0032C23.7599 15.8347 23.9373 15.6581 24.171 15.602C24.4051 15.554 24.6951 15.6982 24.7273 15.9549C24.784 16.2359 24.5744 16.4689 24.518 16.7415C24.4855 16.9583 24.6629 17.1109 24.7918 17.2555C26.9444 19.398 29.0885 21.5411 31.2411 23.6759C31.3863 23.8126 31.5393 23.9812 31.7489 24.0291C32.0067 24.0051 32.2242 23.8366 32.4745 23.7805C32.7808 23.7481 33.0627 24.0774 32.966 24.3662C32.926 24.583 32.7567 24.7437 32.6115 24.896C31.5634 25.9396 30.5152 26.9828 29.4674 28.0182C29.2822 28.203 29.0404 28.3955 28.7659 28.3313C28.613 28.2668 28.4841 28.1466 28.4274 27.9943C28.347 27.641 28.7259 27.3519 28.637 26.9987C28.5566 26.8626 28.4437 26.7579 28.3389 26.6458C27.3555 25.6745 26.38 24.6873 25.3885 23.7164C25.0431 24.0681 24.6937 24.4158 24.3403 24.7596C24.0984 24.5269 23.8566 24.2939 23.631 24.0453C23.9855 23.7002 24.3325 23.3473 24.6873 23.0018C23.8162 22.1514 22.9536 21.2841 22.0914 20.4253C21.9058 20.249 21.7447 20.0565 21.5269 19.9282C21.1321 19.7995 20.7532 20.3534 20.3743 20.0484C20.0677 19.8319 20.1647 19.398 20.4147 19.1734C21.4706 18.1058 22.5425 17.0626 23.5988 16.0032Z" fill="#262424"/>
<path d="M19.471 20.1688C19.7132 20.0158 20.0758 20.1124 20.1884 20.3853C20.3013 20.7142 20.0032 20.9952 19.995 21.3164C19.9869 21.4849 20.1239 21.6051 20.2287 21.7176C22.4617 23.9411 24.6869 26.164 26.9199 28.3791C27.3226 28.8124 27.8389 28.066 28.2741 28.3872C28.5563 28.6121 28.4596 29.0532 28.2178 29.2619C27.1696 30.3135 26.1137 31.3487 25.0736 32.4C24.9044 32.5607 24.7351 32.7532 24.5014 32.8255C24.2433 32.8978 23.9288 32.737 23.8969 32.4645C23.8484 32.1436 24.1388 31.8944 24.1225 31.5813C24.0818 31.4449 23.9936 31.3328 23.8969 31.2284C21.7833 29.1324 19.6737 27.0322 17.5683 24.9279C17.3672 24.7435 17.1979 24.5105 16.9317 24.4143C16.6416 24.3984 16.3998 24.6152 16.1176 24.647C15.8757 24.6551 15.6661 24.4382 15.6579 24.2059C15.6339 23.9567 15.8113 23.7564 15.9805 23.5879C17.0283 22.5443 18.0761 21.5008 19.1165 20.4575C19.2291 20.3532 19.3339 20.2488 19.471 20.1688ZM13.6427 25.9073C14.1264 25.4416 14.5938 24.96 15.0776 24.4865C15.9242 25.3055 16.7543 26.1559 17.6009 26.9826C17.7461 27.143 17.9232 27.2876 18.0036 27.4963C18.1006 27.8897 17.6494 28.323 17.2542 28.1464C16.8591 27.9698 16.545 27.6567 16.1657 27.448C15.529 27.0549 14.7872 26.806 14.0297 26.8945C13.812 26.6699 13.5701 26.4608 13.3768 26.2204C13.4409 26.0917 13.546 26.0036 13.6427 25.9073ZM10.1278 29.4064C11.0308 28.5236 11.9175 27.6327 12.8123 26.7418C14.5065 28.4366 16.2047 30.1275 17.9069 31.8144C18.8421 32.737 19.7532 33.6766 20.6962 34.5833C20.9625 34.8802 21.3169 34.6316 21.6073 34.5269C21.8973 34.3986 22.2362 34.6556 22.228 34.9602C22.228 35.1689 22.1069 35.3456 21.9702 35.4904C20.8739 36.5738 19.7935 37.6573 18.7054 38.741C18.5521 38.8933 18.3584 39.0456 18.1328 39.0297C17.8828 39.0541 17.6409 38.8133 17.665 38.5721C17.6813 38.3155 17.8828 38.1068 17.8828 37.8498C17.8991 37.6329 17.7135 37.4965 17.5846 37.352C15.0131 34.8079 12.4657 32.2399 9.88599 29.7033C9.96672 29.5989 10.0393 29.5027 10.1278 29.4064ZM70.6285 28.6199C71.628 29.5991 72.6197 30.5863 73.6033 31.5813C73.9174 31.8785 73.6918 32.4722 73.2726 32.5368C72.8856 32.5928 72.5874 32.2879 72.2892 32.0872C71.4911 31.5412 70.5477 31.0278 69.5484 31.1963C69.2822 30.9555 69.0244 30.7066 68.8066 30.426C69.4273 29.832 70.024 29.2217 70.6285 28.6199ZM9.3056 30.249C9.60411 30.3615 9.78931 30.6985 10.0312 30.9073C9.90227 31.8383 10.3453 32.713 10.8693 33.4435C11.0227 33.6766 11.2079 33.893 11.3046 34.1578C11.4097 34.5111 11.063 34.8802 10.7082 34.84C10.5067 34.84 10.3697 34.6715 10.2408 34.5512C9.36191 33.6681 8.47557 32.8015 7.59668 31.9187C8.17706 31.3726 8.71742 30.787 9.3056 30.249ZM27.2422 34.7762C28.8463 34.2622 30.5875 34.2061 32.2401 34.5431C35.0457 35.1372 37.5283 36.7745 39.5117 38.8048C41.4543 40.7633 43.0021 43.2195 43.5262 45.956C43.8162 47.4569 43.7517 49.0299 43.3169 50.4987C42.8895 51.9516 42.1151 53.292 41.1398 54.4476C40.7206 54.0062 40.2613 53.5969 39.858 53.1474C39.858 52.9306 39.995 52.7459 40.0357 52.5375C40.2532 51.8313 40.0357 51.0367 39.4954 50.5227C35.5134 46.5501 31.5148 42.5771 27.5322 38.6042C27.1696 38.2351 26.7103 37.9382 26.1862 37.898C25.7588 37.842 25.3396 37.9943 24.9366 38.1385C24.7751 38.227 24.6707 38.0267 24.5659 37.946C24.2433 37.6012 23.8885 37.2881 23.5662 36.9349C23.5662 36.9109 23.5581 36.8626 23.5581 36.8386C24.6303 35.9237 25.8881 35.2095 27.2422 34.7762ZM38.109 34.3344C38.4798 34.4547 38.8183 34.6394 39.165 34.816C40.4631 35.4421 41.7525 36.0923 43.0587 36.7262C43.1714 36.7826 43.2762 36.8707 43.3732 36.9588C44.4692 38.0666 45.574 39.1581 46.6781 40.2577C47.2792 40.8918 48.0183 41.3805 48.8385 41.6862C49.4107 41.9031 50.0559 41.9031 50.6281 41.7021C50.9185 41.6059 51.233 41.4937 51.5393 41.59C51.6925 41.6529 51.8254 41.7566 51.9235 41.8896C52.0215 42.0227 52.0809 42.18 52.0952 42.3445C52.0711 42.7859 51.7889 43.155 51.4907 43.4599C50.5046 44.4552 49.5103 45.4425 48.5081 46.4217C48.2422 46.6625 47.9359 46.9111 47.5648 46.9513C47.0329 47.0313 46.5088 46.47 46.6699 45.956C46.8233 45.4343 47.0329 44.9047 46.9444 44.359C46.8151 43.4437 46.291 42.6332 45.7107 41.9351C43.5262 39.7521 41.3335 37.5769 39.1409 35.3858C38.802 35.0325 38.4313 34.7117 38.109 34.3344ZM62.6958 36.5174C63.3009 35.9156 63.9132 35.3135 64.518 34.7039C64.7839 34.9204 65.0176 35.1774 65.2676 35.4182C65.1628 36.2206 65.4372 37.0149 65.8562 37.6893C66.0736 38.0747 66.388 38.4036 66.5817 38.8048C66.6865 38.9977 66.614 39.2141 66.5414 39.4066C67.5587 40.0909 68.4458 40.9496 69.1614 41.9429C69.9755 43.0908 70.5477 44.4552 70.5155 45.8838C70.5237 47.2404 69.9351 48.5403 69.0725 49.5676C68.8388 49.3268 68.5647 49.1103 68.3629 48.8375C68.4036 48.5403 68.5485 48.2515 68.4759 47.9547C68.3955 47.5693 68.097 47.2964 67.831 47.0313C65.7032 44.9206 63.5828 42.8102 61.4628 40.6991C61.2531 40.4904 61.0031 40.2979 60.7046 40.2739C60.4228 40.2415 60.1405 40.3219 59.8827 40.41C59.6327 40.1777 59.3831 39.9284 59.1412 39.6876C60.2131 38.7727 61.6076 38.1868 63.0346 38.2591C63.5828 38.2432 64.115 38.3715 64.6469 38.4918C64.0021 37.8258 63.3165 37.1996 62.6958 36.5174ZM20.511 41.2286C20.9543 40.0007 21.6555 38.8771 22.4858 37.8737C22.897 38.2915 23.3325 38.6924 23.7355 39.1179C23.8159 39.3749 23.6066 39.6157 23.5662 39.8724C23.3566 40.5626 23.6307 41.3171 24.1388 41.8146C28.0563 45.7233 31.9823 49.624 35.9083 53.5324C36.2872 53.9421 36.7464 54.3271 37.3268 54.4156C37.8428 54.4959 38.3509 54.3193 38.8265 54.1427C39.2617 54.576 39.6972 55.0015 40.1324 55.4348C39.1809 56.2615 38.0765 56.9116 36.8998 57.3693C35.126 58.0511 33.143 58.1636 31.2808 57.7546C28.4511 57.1362 25.9603 55.4429 23.9692 53.3801C22.1314 51.4622 20.6477 49.1103 20.1239 46.4856C19.7695 44.7443 19.8824 42.8983 20.511 41.2286ZM57.1497 43.5484C57.2467 42.3286 57.7868 41.1648 58.5931 40.2496C58.8264 40.4904 59.0768 40.7312 59.3183 40.972C59.2298 41.2611 59.0924 41.566 59.1735 41.8706C59.2216 42.1439 59.4068 42.3607 59.6005 42.5532C61.7287 44.6639 63.8406 46.7828 65.9691 48.8935C66.2188 49.1343 66.4606 49.4234 66.8154 49.5196C67.138 49.6081 67.4684 49.4953 67.7825 49.3991C68.0247 49.6402 68.2747 49.881 68.5084 50.1377C67.4925 50.9722 66.2269 51.5585 64.8887 51.5585C63.5909 51.6145 62.3172 51.1569 61.2372 50.4828C60.455 49.9854 59.7375 49.3832 59.1412 48.6848C59.4231 49.624 59.359 50.6757 58.9153 51.5585C58.4801 52.425 57.8031 53.1315 57.1338 53.8137C56.8919 53.5729 56.6419 53.3237 56.392 53.0833C56.6019 52.7459 56.739 52.3447 56.6097 51.9516C56.4567 51.55 56.126 51.2613 55.836 50.9563C55.2361 50.3523 54.6342 49.7503 54.0301 49.1505C53.6756 48.8212 53.2963 48.444 52.7886 48.4119C52.4904 48.3802 52.2245 48.5325 51.9745 48.677C51.7248 48.4362 51.4829 48.1873 51.233 47.9469C52.2 46.9756 53.3045 45.9722 54.7234 45.7956C55.8842 45.6028 57.0531 46.1006 57.8753 46.8952C57.3594 45.8679 57.0371 44.7119 57.1497 43.5484ZM14.6583 46.3495C14.9001 46.1168 15.2146 45.9402 15.5531 45.9162C16.1094 45.8838 16.6176 46.4616 16.4639 46.9996C16.3431 47.4089 16.045 47.7699 16.0287 48.2117C16.0609 48.5967 16.3835 48.8695 16.6416 49.1265L29.0559 61.4864C29.2496 61.6711 29.4671 61.8555 29.7411 61.8795C30.2086 61.8795 30.5715 61.5347 31.0149 61.4303C31.5467 61.326 32.079 61.8076 32.0549 62.3371C32.0386 62.6985 31.8371 63.0274 31.5871 63.2841L25.3396 69.5045C25.0655 69.7693 24.727 70.002 24.3321 70.002C23.8484 70.0182 23.3969 69.5609 23.437 69.0709C23.4858 68.5896 23.8885 68.2043 23.8969 67.7065C23.8807 67.4096 23.6466 67.1847 23.4614 66.9763C21.6073 65.1223 19.745 63.2841 17.8991 61.4384C17.8265 61.3824 17.7298 61.2216 17.625 61.3337C16.9802 61.9518 16.3594 62.6022 15.7142 63.2199C15.279 62.7866 14.8438 62.3533 14.4083 61.9119C15.0336 61.2612 15.6733 60.6243 16.3269 60.0018C16.3269 59.9694 16.3353 59.8974 16.3353 59.865C14.5857 58.1558 12.8686 56.422 11.1275 54.6965C10.8615 54.4476 10.6112 54.1349 10.2408 54.0464C9.73301 54.014 9.33783 54.4075 8.86226 54.4959C8.24965 54.6003 7.69335 53.91 7.90298 53.3399C8.0078 52.9387 8.33005 52.6496 8.61227 52.3771C10.6275 50.3626 12.6509 48.364 14.6583 46.3495ZM50.6522 48.5166C51.6196 49.4153 52.5308 50.3785 53.4819 51.3014C55.2878 53.1072 57.1016 54.913 58.9153 56.7188C59.0442 56.8235 59.165 56.9677 59.3342 56.9998C59.6812 57.0322 59.955 56.6948 60.302 56.759C60.5116 56.8313 60.7046 57.0322 60.6809 57.2646C60.6809 57.5776 60.4146 57.7944 60.2209 58.0032C59.0846 59.119 57.9638 60.2503 56.8275 61.3662C56.5775 61.639 56.1097 61.5026 55.9567 61.1976C55.7312 60.8204 56.3438 60.4189 56.0215 60.074C53.6822 57.7532 51.347 55.4282 49.0159 53.0991C48.8466 52.9468 48.7018 52.7543 48.5 52.6496C48.1533 52.5534 47.8792 52.8425 47.557 52.8827C47.307 52.8587 47.0651 52.6419 47.0811 52.3849C47.057 52.1039 47.2666 51.8877 47.4437 51.703C48.5162 50.6432 49.5885 49.576 50.6522 48.5166ZM43.4617 55.6678C44.4207 54.7286 45.3559 53.7577 46.3314 52.8344C47.194 53.7013 48.0648 54.5601 48.9274 55.4267C49.2174 55.7077 48.9111 56.1332 48.6129 56.2615C48.4033 56.2855 48.2096 56.1572 48.0241 56.0771C47.2829 55.7154 46.4281 55.5392 45.614 55.7479C45.0981 55.8522 44.6466 56.141 44.1951 56.4057C43.9532 56.1572 43.7117 55.9086 43.4617 55.6678ZM39.5435 59.5762C40.6565 58.4527 41.785 57.353 42.8973 56.2372C44.7029 58.0113 46.4844 59.817 48.2985 61.5907C49.6852 62.9632 51.0555 64.3519 52.45 65.7163C51.37 66.8237 50.2577 67.8993 49.177 68.9986C49.024 69.1675 48.8063 69.2637 48.6048 69.3519C48.4033 69.2799 48.1533 69.2077 48.0888 68.9831C47.9681 68.6055 48.3629 68.3087 48.3148 67.9395C48.1533 67.6265 47.8711 67.4015 47.6292 67.153L41.7525 61.3017C41.4061 60.9808 41.1158 60.5958 40.7046 60.355C40.2935 60.2743 39.9228 60.7961 39.5279 60.5151C39.1894 60.2986 39.2861 59.817 39.5435 59.5762ZM47.3633 57.5861C47.2344 57.2568 47.5407 56.8715 47.8874 56.9275C48.0485 56.9677 48.1692 57.0721 48.2822 57.1845C49.1285 58.0356 49.9833 58.8701 50.8218 59.7208C51.0956 60.0018 51.4504 60.2426 51.5633 60.6438C51.4585 60.8204 51.3456 61.0612 51.1041 61.0852C50.7085 61.1254 50.4185 60.8123 50.0637 60.6836C49.8217 60.5641 49.555 60.5026 49.2849 60.5041C49.0148 60.5056 48.7488 60.5699 48.5081 60.6921C48.2503 60.4351 48.0003 60.1781 47.7422 59.9295C47.9196 59.5523 48.0003 59.119 47.8711 58.7174C47.7744 58.3081 47.5003 57.9711 47.3633 57.5861ZM52.5467 59.6806C52.716 59.4239 53.1271 59.3838 53.3286 59.6245C54.1993 60.4996 55.0863 61.3662 55.9486 62.249C54.9571 63.2121 54.006 64.2233 52.99 65.1625C52.7567 64.9136 52.5063 64.6728 52.2645 64.4239C53.1271 63.3648 53.2482 61.8315 52.6678 60.6117C52.5626 60.3226 52.3371 59.9694 52.5467 59.6806Z" fill="#262424"/>
<path d="M0.680376 62.8751C1.00262 62.7468 1.30927 62.5458 1.66408 62.5539C2.09114 62.6343 2.35742 63.0116 2.65524 63.2922C6.71046 67.3134 10.7491 71.3424 14.7958 75.3633C15.0214 75.6125 15.3117 75.8611 15.3521 76.2144C15.3358 76.5592 15.1503 76.8645 15.0058 77.1694C10.225 77.1613 5.45302 77.1613 0.680376 77.1613C0.680376 72.4018 0.672235 67.6343 0.680376 62.8751Z" fill="#F89C24"/>
<path d="M38.2059 62.6586C39.6408 62.5383 41.0678 63.0517 42.2527 63.8304C43.1797 64.4485 44.0423 65.1627 44.7031 66.0536C45.4935 67.105 45.9768 68.3893 45.9853 69.7135C46.0091 71.2224 45.4127 72.7472 44.3327 73.8144C44.0839 73.5753 43.8393 73.3319 43.599 73.0843C43.7438 72.8117 43.9131 72.5227 43.8649 72.2015C43.7845 71.7199 43.4538 71.3265 43.1231 70.9975L37.6819 65.5798C37.3111 65.2188 36.8919 64.8254 36.3437 64.7855C36.0455 64.7534 35.7793 64.9057 35.5296 65.0503C35.2955 64.7933 34.9733 64.6008 34.8281 64.2799C35.7148 63.3728 36.9241 62.7386 38.2059 62.6586Z" fill="#262424"/>
</svg>
